%TF.GenerationSoftware,KiCad,Pcbnew,9.0.0*%
%TF.CreationDate,2025-03-24T18:02:28-05:00*%
%TF.ProjectId,Project 2.0,50726f6a-6563-4742-9032-2e302e6b6963,rev?*%
%TF.SameCoordinates,Original*%
%TF.FileFunction,Soldermask,Bot*%
%TF.FilePolarity,Negative*%
%FSLAX46Y46*%
G04 Gerber Fmt 4.6, Leading zero omitted, Abs format (unit mm)*
G04 Created by KiCad (PCBNEW 9.0.0) date 2025-03-24 18:02:28*
%MOMM*%
%LPD*%
G01*
G04 APERTURE LIST*
G04 Aperture macros list*
%AMHorizOval*
0 Thick line with rounded ends*
0 $1 width*
0 $2 $3 position (X,Y) of the first rounded end (center of the circle)*
0 $4 $5 position (X,Y) of the second rounded end (center of the circle)*
0 Add line between two ends*
20,1,$1,$2,$3,$4,$5,0*
0 Add two circle primitives to create the rounded ends*
1,1,$1,$2,$3*
1,1,$1,$4,$5*%
%AMRotRect*
0 Rectangle, with rotation*
0 The origin of the aperture is its center*
0 $1 length*
0 $2 width*
0 $3 Rotation angle, in degrees counterclockwise*
0 Add horizontal line*
21,1,$1,$2,0,0,$3*%
G04 Aperture macros list end*
%ADD10R,1.700000X1.700000*%
%ADD11O,1.700000X1.700000*%
%ADD12C,0.650000*%
%ADD13O,2.100000X1.000000*%
%ADD14O,1.800000X1.000000*%
%ADD15C,3.200000*%
%ADD16RotRect,1.700000X1.700000X45.000000*%
%ADD17HorizOval,1.700000X0.000000X0.000000X0.000000X0.000000X0*%
%ADD18RotRect,1.700000X1.700000X225.000000*%
%ADD19HorizOval,1.700000X0.000000X0.000000X0.000000X0.000000X0*%
%ADD20C,1.030000*%
G04 APERTURE END LIST*
D10*
%TO.C,J7*%
X175353375Y-144585608D03*
%TD*%
%TO.C,J8*%
X184853375Y-112505608D03*
D11*
X184853375Y-115045608D03*
X184853375Y-117585608D03*
X184853375Y-120125608D03*
%TD*%
D10*
%TO.C,J4*%
X153478375Y-139585608D03*
D11*
X156018375Y-139585608D03*
X158558374Y-139585608D03*
X161098375Y-139585608D03*
X163638375Y-139585608D03*
%TD*%
D12*
%TO.C,J11*%
X180248375Y-95475608D03*
X180248375Y-89695608D03*
D13*
X179748375Y-96905608D03*
D14*
X183928375Y-96905608D03*
D13*
X179748375Y-88265608D03*
D14*
X183928375Y-88265608D03*
%TD*%
D15*
%TO.C,H4*%
X184000000Y-152000000D03*
%TD*%
D10*
%TO.C,J6*%
X167478375Y-139585608D03*
D11*
X170018375Y-139585608D03*
X172558374Y-139585608D03*
X175098375Y-139585608D03*
X177638375Y-139585608D03*
X180178375Y-139585608D03*
X182718375Y-139585608D03*
X185258376Y-139585608D03*
%TD*%
D15*
%TO.C,H1*%
X184000000Y-76000000D03*
%TD*%
D16*
%TO.C,J3*%
X128761273Y-134493506D03*
D17*
X130557324Y-136289557D03*
X132353375Y-138085608D03*
%TD*%
D10*
%TO.C,J2*%
X149753375Y-139585608D03*
D11*
X147213375Y-139585608D03*
X144673375Y-139585608D03*
X142133375Y-139585608D03*
X139593375Y-139585608D03*
%TD*%
D10*
%TO.C,J10*%
X124233375Y-88085608D03*
D11*
X126773375Y-88085608D03*
X129313375Y-88085608D03*
X131853375Y-88085608D03*
%TD*%
D18*
%TO.C,J9*%
X163853375Y-104585608D03*
D19*
X162057324Y-102789557D03*
X160261273Y-100993506D03*
%TD*%
D15*
%TO.C,H3*%
X113500000Y-152000000D03*
%TD*%
%TO.C,H2*%
X113500000Y-76000000D03*
%TD*%
D20*
%TO.C,Y1*%
X135902693Y-116634926D03*
X139353375Y-120085608D03*
%TD*%
D16*
%TO.C,J5*%
X154057324Y-123289557D03*
D17*
X155853375Y-125085608D03*
%TD*%
M02*
