%TF.GenerationSoftware,KiCad,Pcbnew,9.0.0*%
%TF.CreationDate,2025-03-24T18:02:28-05:00*%
%TF.ProjectId,Project 2.0,50726f6a-6563-4742-9032-2e302e6b6963,rev?*%
%TF.SameCoordinates,Original*%
%TF.FileFunction,Legend,Top*%
%TF.FilePolarity,Positive*%
%FSLAX46Y46*%
G04 Gerber Fmt 4.6, Leading zero omitted, Abs format (unit mm)*
G04 Created by KiCad (PCBNEW 9.0.0) date 2025-03-24 18:02:28*
%MOMM*%
%LPD*%
G01*
G04 APERTURE LIST*
%ADD10C,0.100000*%
%ADD11C,0.150000*%
%ADD12C,0.120000*%
%ADD13C,0.152400*%
%ADD14C,0.127000*%
G04 APERTURE END LIST*
D10*
X123946741Y-90457419D02*
X123899122Y-90433609D01*
X123899122Y-90433609D02*
X123827693Y-90433609D01*
X123827693Y-90433609D02*
X123756265Y-90457419D01*
X123756265Y-90457419D02*
X123708646Y-90505038D01*
X123708646Y-90505038D02*
X123684836Y-90552657D01*
X123684836Y-90552657D02*
X123661027Y-90647895D01*
X123661027Y-90647895D02*
X123661027Y-90719323D01*
X123661027Y-90719323D02*
X123684836Y-90814561D01*
X123684836Y-90814561D02*
X123708646Y-90862180D01*
X123708646Y-90862180D02*
X123756265Y-90909800D01*
X123756265Y-90909800D02*
X123827693Y-90933609D01*
X123827693Y-90933609D02*
X123875312Y-90933609D01*
X123875312Y-90933609D02*
X123946741Y-90909800D01*
X123946741Y-90909800D02*
X123970550Y-90885990D01*
X123970550Y-90885990D02*
X123970550Y-90719323D01*
X123970550Y-90719323D02*
X123875312Y-90719323D01*
X124184836Y-90933609D02*
X124184836Y-90433609D01*
X124184836Y-90433609D02*
X124470550Y-90933609D01*
X124470550Y-90933609D02*
X124470550Y-90433609D01*
X124708646Y-90933609D02*
X124708646Y-90433609D01*
X124708646Y-90433609D02*
X124827694Y-90433609D01*
X124827694Y-90433609D02*
X124899122Y-90457419D01*
X124899122Y-90457419D02*
X124946741Y-90505038D01*
X124946741Y-90505038D02*
X124970551Y-90552657D01*
X124970551Y-90552657D02*
X124994360Y-90647895D01*
X124994360Y-90647895D02*
X124994360Y-90719323D01*
X124994360Y-90719323D02*
X124970551Y-90814561D01*
X124970551Y-90814561D02*
X124946741Y-90862180D01*
X124946741Y-90862180D02*
X124899122Y-90909800D01*
X124899122Y-90909800D02*
X124827694Y-90933609D01*
X124827694Y-90933609D02*
X124708646Y-90933609D01*
X125565789Y-90909800D02*
X125637217Y-90933609D01*
X125637217Y-90933609D02*
X125756265Y-90933609D01*
X125756265Y-90933609D02*
X125803884Y-90909800D01*
X125803884Y-90909800D02*
X125827693Y-90885990D01*
X125827693Y-90885990D02*
X125851503Y-90838371D01*
X125851503Y-90838371D02*
X125851503Y-90790752D01*
X125851503Y-90790752D02*
X125827693Y-90743133D01*
X125827693Y-90743133D02*
X125803884Y-90719323D01*
X125803884Y-90719323D02*
X125756265Y-90695514D01*
X125756265Y-90695514D02*
X125661027Y-90671704D01*
X125661027Y-90671704D02*
X125613408Y-90647895D01*
X125613408Y-90647895D02*
X125589598Y-90624085D01*
X125589598Y-90624085D02*
X125565789Y-90576466D01*
X125565789Y-90576466D02*
X125565789Y-90528847D01*
X125565789Y-90528847D02*
X125589598Y-90481228D01*
X125589598Y-90481228D02*
X125613408Y-90457419D01*
X125613408Y-90457419D02*
X125661027Y-90433609D01*
X125661027Y-90433609D02*
X125780074Y-90433609D01*
X125780074Y-90433609D02*
X125851503Y-90457419D01*
X126018169Y-90433609D02*
X126137217Y-90933609D01*
X126137217Y-90933609D02*
X126232455Y-90576466D01*
X126232455Y-90576466D02*
X126327693Y-90933609D01*
X126327693Y-90933609D02*
X126446741Y-90433609D01*
X126922931Y-90885990D02*
X126899122Y-90909800D01*
X126899122Y-90909800D02*
X126827693Y-90933609D01*
X126827693Y-90933609D02*
X126780074Y-90933609D01*
X126780074Y-90933609D02*
X126708646Y-90909800D01*
X126708646Y-90909800D02*
X126661027Y-90862180D01*
X126661027Y-90862180D02*
X126637217Y-90814561D01*
X126637217Y-90814561D02*
X126613408Y-90719323D01*
X126613408Y-90719323D02*
X126613408Y-90647895D01*
X126613408Y-90647895D02*
X126637217Y-90552657D01*
X126637217Y-90552657D02*
X126661027Y-90505038D01*
X126661027Y-90505038D02*
X126708646Y-90457419D01*
X126708646Y-90457419D02*
X126780074Y-90433609D01*
X126780074Y-90433609D02*
X126827693Y-90433609D01*
X126827693Y-90433609D02*
X126899122Y-90457419D01*
X126899122Y-90457419D02*
X126922931Y-90481228D01*
X127375312Y-90933609D02*
X127137217Y-90933609D01*
X127137217Y-90933609D02*
X127137217Y-90433609D01*
X127541979Y-90933609D02*
X127541979Y-90433609D01*
X127827693Y-90933609D02*
X127613408Y-90647895D01*
X127827693Y-90433609D02*
X127541979Y-90719323D01*
X128399122Y-90909800D02*
X128470550Y-90933609D01*
X128470550Y-90933609D02*
X128589598Y-90933609D01*
X128589598Y-90933609D02*
X128637217Y-90909800D01*
X128637217Y-90909800D02*
X128661026Y-90885990D01*
X128661026Y-90885990D02*
X128684836Y-90838371D01*
X128684836Y-90838371D02*
X128684836Y-90790752D01*
X128684836Y-90790752D02*
X128661026Y-90743133D01*
X128661026Y-90743133D02*
X128637217Y-90719323D01*
X128637217Y-90719323D02*
X128589598Y-90695514D01*
X128589598Y-90695514D02*
X128494360Y-90671704D01*
X128494360Y-90671704D02*
X128446741Y-90647895D01*
X128446741Y-90647895D02*
X128422931Y-90624085D01*
X128422931Y-90624085D02*
X128399122Y-90576466D01*
X128399122Y-90576466D02*
X128399122Y-90528847D01*
X128399122Y-90528847D02*
X128422931Y-90481228D01*
X128422931Y-90481228D02*
X128446741Y-90457419D01*
X128446741Y-90457419D02*
X128494360Y-90433609D01*
X128494360Y-90433609D02*
X128613407Y-90433609D01*
X128613407Y-90433609D02*
X128684836Y-90457419D01*
X128851502Y-90433609D02*
X128970550Y-90933609D01*
X128970550Y-90933609D02*
X129065788Y-90576466D01*
X129065788Y-90576466D02*
X129161026Y-90933609D01*
X129161026Y-90933609D02*
X129280074Y-90433609D01*
X129470550Y-90933609D02*
X129470550Y-90433609D01*
X129470550Y-90433609D02*
X129589598Y-90433609D01*
X129589598Y-90433609D02*
X129661026Y-90457419D01*
X129661026Y-90457419D02*
X129708645Y-90505038D01*
X129708645Y-90505038D02*
X129732455Y-90552657D01*
X129732455Y-90552657D02*
X129756264Y-90647895D01*
X129756264Y-90647895D02*
X129756264Y-90719323D01*
X129756264Y-90719323D02*
X129732455Y-90814561D01*
X129732455Y-90814561D02*
X129708645Y-90862180D01*
X129708645Y-90862180D02*
X129661026Y-90909800D01*
X129661026Y-90909800D02*
X129589598Y-90933609D01*
X129589598Y-90933609D02*
X129470550Y-90933609D01*
X129970550Y-90933609D02*
X129970550Y-90433609D01*
X130303883Y-90433609D02*
X130399121Y-90433609D01*
X130399121Y-90433609D02*
X130446740Y-90457419D01*
X130446740Y-90457419D02*
X130494359Y-90505038D01*
X130494359Y-90505038D02*
X130518169Y-90600276D01*
X130518169Y-90600276D02*
X130518169Y-90766942D01*
X130518169Y-90766942D02*
X130494359Y-90862180D01*
X130494359Y-90862180D02*
X130446740Y-90909800D01*
X130446740Y-90909800D02*
X130399121Y-90933609D01*
X130399121Y-90933609D02*
X130303883Y-90933609D01*
X130303883Y-90933609D02*
X130256264Y-90909800D01*
X130256264Y-90909800D02*
X130208645Y-90862180D01*
X130208645Y-90862180D02*
X130184836Y-90766942D01*
X130184836Y-90766942D02*
X130184836Y-90600276D01*
X130184836Y-90600276D02*
X130208645Y-90505038D01*
X130208645Y-90505038D02*
X130256264Y-90457419D01*
X130256264Y-90457419D02*
X130303883Y-90433609D01*
X131041979Y-90433609D02*
X131208645Y-90933609D01*
X131208645Y-90933609D02*
X131375312Y-90433609D01*
X131827692Y-90885990D02*
X131803883Y-90909800D01*
X131803883Y-90909800D02*
X131732454Y-90933609D01*
X131732454Y-90933609D02*
X131684835Y-90933609D01*
X131684835Y-90933609D02*
X131613407Y-90909800D01*
X131613407Y-90909800D02*
X131565788Y-90862180D01*
X131565788Y-90862180D02*
X131541978Y-90814561D01*
X131541978Y-90814561D02*
X131518169Y-90719323D01*
X131518169Y-90719323D02*
X131518169Y-90647895D01*
X131518169Y-90647895D02*
X131541978Y-90552657D01*
X131541978Y-90552657D02*
X131565788Y-90505038D01*
X131565788Y-90505038D02*
X131613407Y-90457419D01*
X131613407Y-90457419D02*
X131684835Y-90433609D01*
X131684835Y-90433609D02*
X131732454Y-90433609D01*
X131732454Y-90433609D02*
X131803883Y-90457419D01*
X131803883Y-90457419D02*
X131827692Y-90481228D01*
X132327692Y-90885990D02*
X132303883Y-90909800D01*
X132303883Y-90909800D02*
X132232454Y-90933609D01*
X132232454Y-90933609D02*
X132184835Y-90933609D01*
X132184835Y-90933609D02*
X132113407Y-90909800D01*
X132113407Y-90909800D02*
X132065788Y-90862180D01*
X132065788Y-90862180D02*
X132041978Y-90814561D01*
X132041978Y-90814561D02*
X132018169Y-90719323D01*
X132018169Y-90719323D02*
X132018169Y-90647895D01*
X132018169Y-90647895D02*
X132041978Y-90552657D01*
X132041978Y-90552657D02*
X132065788Y-90505038D01*
X132065788Y-90505038D02*
X132113407Y-90457419D01*
X132113407Y-90457419D02*
X132184835Y-90433609D01*
X132184835Y-90433609D02*
X132232454Y-90433609D01*
X132232454Y-90433609D02*
X132303883Y-90457419D01*
X132303883Y-90457419D02*
X132327692Y-90481228D01*
X130980690Y-133179693D02*
X131182720Y-133381723D01*
X130728152Y-133634261D02*
X131081705Y-133280708D01*
X131266899Y-133465902D02*
X131149048Y-134055158D01*
X131502602Y-133701604D02*
X130913346Y-133819456D01*
X131755139Y-134661249D02*
X131805647Y-134375039D01*
X131553109Y-134459218D02*
X131906662Y-134105665D01*
X131906662Y-134105665D02*
X132041349Y-134240352D01*
X132041349Y-134240352D02*
X132058185Y-134290859D01*
X132058185Y-134290859D02*
X132058185Y-134324531D01*
X132058185Y-134324531D02*
X132041349Y-134375039D01*
X132041349Y-134375039D02*
X131990841Y-134425546D01*
X131990841Y-134425546D02*
X131940334Y-134442382D01*
X131940334Y-134442382D02*
X131906662Y-134442382D01*
X131906662Y-134442382D02*
X131856154Y-134425546D01*
X131856154Y-134425546D02*
X131721467Y-134290859D01*
X132226544Y-134425546D02*
X132108692Y-135014802D01*
X132462246Y-134661249D02*
X131872990Y-134779100D01*
X133034665Y-135267340D02*
X133017829Y-135216832D01*
X133017829Y-135216832D02*
X132967322Y-135166324D01*
X132967322Y-135166324D02*
X132899978Y-135132653D01*
X132899978Y-135132653D02*
X132832634Y-135132653D01*
X132832634Y-135132653D02*
X132782127Y-135149489D01*
X132782127Y-135149489D02*
X132697947Y-135199996D01*
X132697947Y-135199996D02*
X132647440Y-135250504D01*
X132647440Y-135250504D02*
X132596932Y-135334683D01*
X132596932Y-135334683D02*
X132580096Y-135385191D01*
X132580096Y-135385191D02*
X132580096Y-135452534D01*
X132580096Y-135452534D02*
X132613768Y-135519878D01*
X132613768Y-135519878D02*
X132647440Y-135553550D01*
X132647440Y-135553550D02*
X132714783Y-135587221D01*
X132714783Y-135587221D02*
X132748455Y-135587221D01*
X132748455Y-135587221D02*
X132866306Y-135469370D01*
X132866306Y-135469370D02*
X132798963Y-135402027D01*
X132866306Y-135772416D02*
X133219860Y-135418863D01*
X133219860Y-135418863D02*
X133068337Y-135974446D01*
X133068337Y-135974446D02*
X133421890Y-135620893D01*
X133236696Y-136142806D02*
X133590249Y-135789252D01*
X133590249Y-135789252D02*
X133674429Y-135873432D01*
X133674429Y-135873432D02*
X133708100Y-135940775D01*
X133708100Y-135940775D02*
X133708100Y-136008119D01*
X133708100Y-136008119D02*
X133691264Y-136058626D01*
X133691264Y-136058626D02*
X133640757Y-136142806D01*
X133640757Y-136142806D02*
X133590249Y-136193313D01*
X133590249Y-136193313D02*
X133506070Y-136243821D01*
X133506070Y-136243821D02*
X133455562Y-136260657D01*
X133455562Y-136260657D02*
X133388219Y-136260657D01*
X133388219Y-136260657D02*
X133320875Y-136226985D01*
X133320875Y-136226985D02*
X133236696Y-136142806D01*
X139946741Y-141957419D02*
X139899122Y-141933609D01*
X139899122Y-141933609D02*
X139827693Y-141933609D01*
X139827693Y-141933609D02*
X139756265Y-141957419D01*
X139756265Y-141957419D02*
X139708646Y-142005038D01*
X139708646Y-142005038D02*
X139684836Y-142052657D01*
X139684836Y-142052657D02*
X139661027Y-142147895D01*
X139661027Y-142147895D02*
X139661027Y-142219323D01*
X139661027Y-142219323D02*
X139684836Y-142314561D01*
X139684836Y-142314561D02*
X139708646Y-142362180D01*
X139708646Y-142362180D02*
X139756265Y-142409800D01*
X139756265Y-142409800D02*
X139827693Y-142433609D01*
X139827693Y-142433609D02*
X139875312Y-142433609D01*
X139875312Y-142433609D02*
X139946741Y-142409800D01*
X139946741Y-142409800D02*
X139970550Y-142385990D01*
X139970550Y-142385990D02*
X139970550Y-142219323D01*
X139970550Y-142219323D02*
X139875312Y-142219323D01*
X140184836Y-142433609D02*
X140184836Y-141933609D01*
X140184836Y-141933609D02*
X140470550Y-142433609D01*
X140470550Y-142433609D02*
X140470550Y-141933609D01*
X140708646Y-142433609D02*
X140708646Y-141933609D01*
X140708646Y-141933609D02*
X140827694Y-141933609D01*
X140827694Y-141933609D02*
X140899122Y-141957419D01*
X140899122Y-141957419D02*
X140946741Y-142005038D01*
X140946741Y-142005038D02*
X140970551Y-142052657D01*
X140970551Y-142052657D02*
X140994360Y-142147895D01*
X140994360Y-142147895D02*
X140994360Y-142219323D01*
X140994360Y-142219323D02*
X140970551Y-142314561D01*
X140970551Y-142314561D02*
X140946741Y-142362180D01*
X140946741Y-142362180D02*
X140899122Y-142409800D01*
X140899122Y-142409800D02*
X140827694Y-142433609D01*
X140827694Y-142433609D02*
X140708646Y-142433609D01*
X141280075Y-141933609D02*
X141280075Y-142052657D01*
X141161027Y-142005038D02*
X141280075Y-142052657D01*
X141280075Y-142052657D02*
X141399122Y-142005038D01*
X141208646Y-142147895D02*
X141280075Y-142052657D01*
X141280075Y-142052657D02*
X141351503Y-142147895D01*
X141899122Y-141933609D02*
X142065788Y-142433609D01*
X142065788Y-142433609D02*
X142232455Y-141933609D01*
X142684835Y-142385990D02*
X142661026Y-142409800D01*
X142661026Y-142409800D02*
X142589597Y-142433609D01*
X142589597Y-142433609D02*
X142541978Y-142433609D01*
X142541978Y-142433609D02*
X142470550Y-142409800D01*
X142470550Y-142409800D02*
X142422931Y-142362180D01*
X142422931Y-142362180D02*
X142399121Y-142314561D01*
X142399121Y-142314561D02*
X142375312Y-142219323D01*
X142375312Y-142219323D02*
X142375312Y-142147895D01*
X142375312Y-142147895D02*
X142399121Y-142052657D01*
X142399121Y-142052657D02*
X142422931Y-142005038D01*
X142422931Y-142005038D02*
X142470550Y-141957419D01*
X142470550Y-141957419D02*
X142541978Y-141933609D01*
X142541978Y-141933609D02*
X142589597Y-141933609D01*
X142589597Y-141933609D02*
X142661026Y-141957419D01*
X142661026Y-141957419D02*
X142684835Y-141981228D01*
X143184835Y-142385990D02*
X143161026Y-142409800D01*
X143161026Y-142409800D02*
X143089597Y-142433609D01*
X143089597Y-142433609D02*
X143041978Y-142433609D01*
X143041978Y-142433609D02*
X142970550Y-142409800D01*
X142970550Y-142409800D02*
X142922931Y-142362180D01*
X142922931Y-142362180D02*
X142899121Y-142314561D01*
X142899121Y-142314561D02*
X142875312Y-142219323D01*
X142875312Y-142219323D02*
X142875312Y-142147895D01*
X142875312Y-142147895D02*
X142899121Y-142052657D01*
X142899121Y-142052657D02*
X142922931Y-142005038D01*
X142922931Y-142005038D02*
X142970550Y-141957419D01*
X142970550Y-141957419D02*
X143041978Y-141933609D01*
X143041978Y-141933609D02*
X143089597Y-141933609D01*
X143089597Y-141933609D02*
X143161026Y-141957419D01*
X143161026Y-141957419D02*
X143184835Y-141981228D01*
X143756264Y-142290752D02*
X143994359Y-142290752D01*
X143708645Y-142433609D02*
X143875311Y-141933609D01*
X143875311Y-141933609D02*
X144041978Y-142433609D01*
X144208644Y-142433609D02*
X144208644Y-141933609D01*
X144208644Y-141933609D02*
X144327692Y-141933609D01*
X144327692Y-141933609D02*
X144399120Y-141957419D01*
X144399120Y-141957419D02*
X144446739Y-142005038D01*
X144446739Y-142005038D02*
X144470549Y-142052657D01*
X144470549Y-142052657D02*
X144494358Y-142147895D01*
X144494358Y-142147895D02*
X144494358Y-142219323D01*
X144494358Y-142219323D02*
X144470549Y-142314561D01*
X144470549Y-142314561D02*
X144446739Y-142362180D01*
X144446739Y-142362180D02*
X144399120Y-142409800D01*
X144399120Y-142409800D02*
X144327692Y-142433609D01*
X144327692Y-142433609D02*
X144208644Y-142433609D01*
X144994358Y-142385990D02*
X144970549Y-142409800D01*
X144970549Y-142409800D02*
X144899120Y-142433609D01*
X144899120Y-142433609D02*
X144851501Y-142433609D01*
X144851501Y-142433609D02*
X144780073Y-142409800D01*
X144780073Y-142409800D02*
X144732454Y-142362180D01*
X144732454Y-142362180D02*
X144708644Y-142314561D01*
X144708644Y-142314561D02*
X144684835Y-142219323D01*
X144684835Y-142219323D02*
X144684835Y-142147895D01*
X144684835Y-142147895D02*
X144708644Y-142052657D01*
X144708644Y-142052657D02*
X144732454Y-142005038D01*
X144732454Y-142005038D02*
X144780073Y-141957419D01*
X144780073Y-141957419D02*
X144851501Y-141933609D01*
X144851501Y-141933609D02*
X144899120Y-141933609D01*
X144899120Y-141933609D02*
X144970549Y-141957419D01*
X144970549Y-141957419D02*
X144994358Y-141981228D01*
X145089597Y-142481228D02*
X145470549Y-142481228D01*
X145589596Y-142433609D02*
X145589596Y-141933609D01*
X145827691Y-142433609D02*
X145827691Y-141933609D01*
X145827691Y-141933609D02*
X146113405Y-142433609D01*
X146113405Y-142433609D02*
X146113405Y-141933609D01*
X146661025Y-141933609D02*
X146827691Y-142433609D01*
X146827691Y-142433609D02*
X146994358Y-141933609D01*
X147446738Y-142385990D02*
X147422929Y-142409800D01*
X147422929Y-142409800D02*
X147351500Y-142433609D01*
X147351500Y-142433609D02*
X147303881Y-142433609D01*
X147303881Y-142433609D02*
X147232453Y-142409800D01*
X147232453Y-142409800D02*
X147184834Y-142362180D01*
X147184834Y-142362180D02*
X147161024Y-142314561D01*
X147161024Y-142314561D02*
X147137215Y-142219323D01*
X147137215Y-142219323D02*
X147137215Y-142147895D01*
X147137215Y-142147895D02*
X147161024Y-142052657D01*
X147161024Y-142052657D02*
X147184834Y-142005038D01*
X147184834Y-142005038D02*
X147232453Y-141957419D01*
X147232453Y-141957419D02*
X147303881Y-141933609D01*
X147303881Y-141933609D02*
X147351500Y-141933609D01*
X147351500Y-141933609D02*
X147422929Y-141957419D01*
X147422929Y-141957419D02*
X147446738Y-141981228D01*
X147946738Y-142385990D02*
X147922929Y-142409800D01*
X147922929Y-142409800D02*
X147851500Y-142433609D01*
X147851500Y-142433609D02*
X147803881Y-142433609D01*
X147803881Y-142433609D02*
X147732453Y-142409800D01*
X147732453Y-142409800D02*
X147684834Y-142362180D01*
X147684834Y-142362180D02*
X147661024Y-142314561D01*
X147661024Y-142314561D02*
X147637215Y-142219323D01*
X147637215Y-142219323D02*
X147637215Y-142147895D01*
X147637215Y-142147895D02*
X147661024Y-142052657D01*
X147661024Y-142052657D02*
X147684834Y-142005038D01*
X147684834Y-142005038D02*
X147732453Y-141957419D01*
X147732453Y-141957419D02*
X147803881Y-141933609D01*
X147803881Y-141933609D02*
X147851500Y-141933609D01*
X147851500Y-141933609D02*
X147922929Y-141957419D01*
X147922929Y-141957419D02*
X147946738Y-141981228D01*
X148803881Y-141957419D02*
X148756262Y-141933609D01*
X148756262Y-141933609D02*
X148684833Y-141933609D01*
X148684833Y-141933609D02*
X148613405Y-141957419D01*
X148613405Y-141957419D02*
X148565786Y-142005038D01*
X148565786Y-142005038D02*
X148541976Y-142052657D01*
X148541976Y-142052657D02*
X148518167Y-142147895D01*
X148518167Y-142147895D02*
X148518167Y-142219323D01*
X148518167Y-142219323D02*
X148541976Y-142314561D01*
X148541976Y-142314561D02*
X148565786Y-142362180D01*
X148565786Y-142362180D02*
X148613405Y-142409800D01*
X148613405Y-142409800D02*
X148684833Y-142433609D01*
X148684833Y-142433609D02*
X148732452Y-142433609D01*
X148732452Y-142433609D02*
X148803881Y-142409800D01*
X148803881Y-142409800D02*
X148827690Y-142385990D01*
X148827690Y-142385990D02*
X148827690Y-142219323D01*
X148827690Y-142219323D02*
X148732452Y-142219323D01*
X149041976Y-142433609D02*
X149041976Y-141933609D01*
X149041976Y-141933609D02*
X149327690Y-142433609D01*
X149327690Y-142433609D02*
X149327690Y-141933609D01*
X149565786Y-142433609D02*
X149565786Y-141933609D01*
X149565786Y-141933609D02*
X149684834Y-141933609D01*
X149684834Y-141933609D02*
X149756262Y-141957419D01*
X149756262Y-141957419D02*
X149803881Y-142005038D01*
X149803881Y-142005038D02*
X149827691Y-142052657D01*
X149827691Y-142052657D02*
X149851500Y-142147895D01*
X149851500Y-142147895D02*
X149851500Y-142219323D01*
X149851500Y-142219323D02*
X149827691Y-142314561D01*
X149827691Y-142314561D02*
X149803881Y-142362180D01*
X149803881Y-142362180D02*
X149756262Y-142409800D01*
X149756262Y-142409800D02*
X149684834Y-142433609D01*
X149684834Y-142433609D02*
X149565786Y-142433609D01*
X154613408Y-141933609D02*
X154780074Y-142433609D01*
X154780074Y-142433609D02*
X154946741Y-141933609D01*
X155399121Y-142385990D02*
X155375312Y-142409800D01*
X155375312Y-142409800D02*
X155303883Y-142433609D01*
X155303883Y-142433609D02*
X155256264Y-142433609D01*
X155256264Y-142433609D02*
X155184836Y-142409800D01*
X155184836Y-142409800D02*
X155137217Y-142362180D01*
X155137217Y-142362180D02*
X155113407Y-142314561D01*
X155113407Y-142314561D02*
X155089598Y-142219323D01*
X155089598Y-142219323D02*
X155089598Y-142147895D01*
X155089598Y-142147895D02*
X155113407Y-142052657D01*
X155113407Y-142052657D02*
X155137217Y-142005038D01*
X155137217Y-142005038D02*
X155184836Y-141957419D01*
X155184836Y-141957419D02*
X155256264Y-141933609D01*
X155256264Y-141933609D02*
X155303883Y-141933609D01*
X155303883Y-141933609D02*
X155375312Y-141957419D01*
X155375312Y-141957419D02*
X155399121Y-141981228D01*
X155899121Y-142385990D02*
X155875312Y-142409800D01*
X155875312Y-142409800D02*
X155803883Y-142433609D01*
X155803883Y-142433609D02*
X155756264Y-142433609D01*
X155756264Y-142433609D02*
X155684836Y-142409800D01*
X155684836Y-142409800D02*
X155637217Y-142362180D01*
X155637217Y-142362180D02*
X155613407Y-142314561D01*
X155613407Y-142314561D02*
X155589598Y-142219323D01*
X155589598Y-142219323D02*
X155589598Y-142147895D01*
X155589598Y-142147895D02*
X155613407Y-142052657D01*
X155613407Y-142052657D02*
X155637217Y-142005038D01*
X155637217Y-142005038D02*
X155684836Y-141957419D01*
X155684836Y-141957419D02*
X155756264Y-141933609D01*
X155756264Y-141933609D02*
X155803883Y-141933609D01*
X155803883Y-141933609D02*
X155875312Y-141957419D01*
X155875312Y-141957419D02*
X155899121Y-141981228D01*
X156756264Y-141957419D02*
X156708645Y-141933609D01*
X156708645Y-141933609D02*
X156637216Y-141933609D01*
X156637216Y-141933609D02*
X156565788Y-141957419D01*
X156565788Y-141957419D02*
X156518169Y-142005038D01*
X156518169Y-142005038D02*
X156494359Y-142052657D01*
X156494359Y-142052657D02*
X156470550Y-142147895D01*
X156470550Y-142147895D02*
X156470550Y-142219323D01*
X156470550Y-142219323D02*
X156494359Y-142314561D01*
X156494359Y-142314561D02*
X156518169Y-142362180D01*
X156518169Y-142362180D02*
X156565788Y-142409800D01*
X156565788Y-142409800D02*
X156637216Y-142433609D01*
X156637216Y-142433609D02*
X156684835Y-142433609D01*
X156684835Y-142433609D02*
X156756264Y-142409800D01*
X156756264Y-142409800D02*
X156780073Y-142385990D01*
X156780073Y-142385990D02*
X156780073Y-142219323D01*
X156780073Y-142219323D02*
X156684835Y-142219323D01*
X156994359Y-142433609D02*
X156994359Y-141933609D01*
X156994359Y-141933609D02*
X157280073Y-142433609D01*
X157280073Y-142433609D02*
X157280073Y-141933609D01*
X157518169Y-142433609D02*
X157518169Y-141933609D01*
X157518169Y-141933609D02*
X157637217Y-141933609D01*
X157637217Y-141933609D02*
X157708645Y-141957419D01*
X157708645Y-141957419D02*
X157756264Y-142005038D01*
X157756264Y-142005038D02*
X157780074Y-142052657D01*
X157780074Y-142052657D02*
X157803883Y-142147895D01*
X157803883Y-142147895D02*
X157803883Y-142219323D01*
X157803883Y-142219323D02*
X157780074Y-142314561D01*
X157780074Y-142314561D02*
X157756264Y-142362180D01*
X157756264Y-142362180D02*
X157708645Y-142409800D01*
X157708645Y-142409800D02*
X157637217Y-142433609D01*
X157637217Y-142433609D02*
X157518169Y-142433609D01*
X158375312Y-142409800D02*
X158446740Y-142433609D01*
X158446740Y-142433609D02*
X158565788Y-142433609D01*
X158565788Y-142433609D02*
X158613407Y-142409800D01*
X158613407Y-142409800D02*
X158637216Y-142385990D01*
X158637216Y-142385990D02*
X158661026Y-142338371D01*
X158661026Y-142338371D02*
X158661026Y-142290752D01*
X158661026Y-142290752D02*
X158637216Y-142243133D01*
X158637216Y-142243133D02*
X158613407Y-142219323D01*
X158613407Y-142219323D02*
X158565788Y-142195514D01*
X158565788Y-142195514D02*
X158470550Y-142171704D01*
X158470550Y-142171704D02*
X158422931Y-142147895D01*
X158422931Y-142147895D02*
X158399121Y-142124085D01*
X158399121Y-142124085D02*
X158375312Y-142076466D01*
X158375312Y-142076466D02*
X158375312Y-142028847D01*
X158375312Y-142028847D02*
X158399121Y-141981228D01*
X158399121Y-141981228D02*
X158422931Y-141957419D01*
X158422931Y-141957419D02*
X158470550Y-141933609D01*
X158470550Y-141933609D02*
X158589597Y-141933609D01*
X158589597Y-141933609D02*
X158661026Y-141957419D01*
X158875311Y-142171704D02*
X159041978Y-142171704D01*
X159113406Y-142433609D02*
X158875311Y-142433609D01*
X158875311Y-142433609D02*
X158875311Y-141933609D01*
X158875311Y-141933609D02*
X159113406Y-141933609D01*
X159565787Y-142433609D02*
X159327692Y-142433609D01*
X159327692Y-142433609D02*
X159327692Y-141933609D01*
X160089597Y-142409800D02*
X160161025Y-142433609D01*
X160161025Y-142433609D02*
X160280073Y-142433609D01*
X160280073Y-142433609D02*
X160327692Y-142409800D01*
X160327692Y-142409800D02*
X160351501Y-142385990D01*
X160351501Y-142385990D02*
X160375311Y-142338371D01*
X160375311Y-142338371D02*
X160375311Y-142290752D01*
X160375311Y-142290752D02*
X160351501Y-142243133D01*
X160351501Y-142243133D02*
X160327692Y-142219323D01*
X160327692Y-142219323D02*
X160280073Y-142195514D01*
X160280073Y-142195514D02*
X160184835Y-142171704D01*
X160184835Y-142171704D02*
X160137216Y-142147895D01*
X160137216Y-142147895D02*
X160113406Y-142124085D01*
X160113406Y-142124085D02*
X160089597Y-142076466D01*
X160089597Y-142076466D02*
X160089597Y-142028847D01*
X160089597Y-142028847D02*
X160113406Y-141981228D01*
X160113406Y-141981228D02*
X160137216Y-141957419D01*
X160137216Y-141957419D02*
X160184835Y-141933609D01*
X160184835Y-141933609D02*
X160303882Y-141933609D01*
X160303882Y-141933609D02*
X160375311Y-141957419D01*
X160589596Y-142433609D02*
X160589596Y-141933609D01*
X160589596Y-141933609D02*
X160708644Y-141933609D01*
X160708644Y-141933609D02*
X160780072Y-141957419D01*
X160780072Y-141957419D02*
X160827691Y-142005038D01*
X160827691Y-142005038D02*
X160851501Y-142052657D01*
X160851501Y-142052657D02*
X160875310Y-142147895D01*
X160875310Y-142147895D02*
X160875310Y-142219323D01*
X160875310Y-142219323D02*
X160851501Y-142314561D01*
X160851501Y-142314561D02*
X160827691Y-142362180D01*
X160827691Y-142362180D02*
X160780072Y-142409800D01*
X160780072Y-142409800D02*
X160708644Y-142433609D01*
X160708644Y-142433609D02*
X160589596Y-142433609D01*
X161756262Y-142385990D02*
X161732453Y-142409800D01*
X161732453Y-142409800D02*
X161661024Y-142433609D01*
X161661024Y-142433609D02*
X161613405Y-142433609D01*
X161613405Y-142433609D02*
X161541977Y-142409800D01*
X161541977Y-142409800D02*
X161494358Y-142362180D01*
X161494358Y-142362180D02*
X161470548Y-142314561D01*
X161470548Y-142314561D02*
X161446739Y-142219323D01*
X161446739Y-142219323D02*
X161446739Y-142147895D01*
X161446739Y-142147895D02*
X161470548Y-142052657D01*
X161470548Y-142052657D02*
X161494358Y-142005038D01*
X161494358Y-142005038D02*
X161541977Y-141957419D01*
X161541977Y-141957419D02*
X161613405Y-141933609D01*
X161613405Y-141933609D02*
X161661024Y-141933609D01*
X161661024Y-141933609D02*
X161732453Y-141957419D01*
X161732453Y-141957419D02*
X161756262Y-141981228D01*
X161970548Y-142433609D02*
X161970548Y-141933609D01*
X162256262Y-142433609D02*
X162041977Y-142147895D01*
X162256262Y-141933609D02*
X161970548Y-142219323D01*
X169613408Y-141933609D02*
X169780074Y-142433609D01*
X169780074Y-142433609D02*
X169946741Y-141933609D01*
X170399121Y-142385990D02*
X170375312Y-142409800D01*
X170375312Y-142409800D02*
X170303883Y-142433609D01*
X170303883Y-142433609D02*
X170256264Y-142433609D01*
X170256264Y-142433609D02*
X170184836Y-142409800D01*
X170184836Y-142409800D02*
X170137217Y-142362180D01*
X170137217Y-142362180D02*
X170113407Y-142314561D01*
X170113407Y-142314561D02*
X170089598Y-142219323D01*
X170089598Y-142219323D02*
X170089598Y-142147895D01*
X170089598Y-142147895D02*
X170113407Y-142052657D01*
X170113407Y-142052657D02*
X170137217Y-142005038D01*
X170137217Y-142005038D02*
X170184836Y-141957419D01*
X170184836Y-141957419D02*
X170256264Y-141933609D01*
X170256264Y-141933609D02*
X170303883Y-141933609D01*
X170303883Y-141933609D02*
X170375312Y-141957419D01*
X170375312Y-141957419D02*
X170399121Y-141981228D01*
X170899121Y-142385990D02*
X170875312Y-142409800D01*
X170875312Y-142409800D02*
X170803883Y-142433609D01*
X170803883Y-142433609D02*
X170756264Y-142433609D01*
X170756264Y-142433609D02*
X170684836Y-142409800D01*
X170684836Y-142409800D02*
X170637217Y-142362180D01*
X170637217Y-142362180D02*
X170613407Y-142314561D01*
X170613407Y-142314561D02*
X170589598Y-142219323D01*
X170589598Y-142219323D02*
X170589598Y-142147895D01*
X170589598Y-142147895D02*
X170613407Y-142052657D01*
X170613407Y-142052657D02*
X170637217Y-142005038D01*
X170637217Y-142005038D02*
X170684836Y-141957419D01*
X170684836Y-141957419D02*
X170756264Y-141933609D01*
X170756264Y-141933609D02*
X170803883Y-141933609D01*
X170803883Y-141933609D02*
X170875312Y-141957419D01*
X170875312Y-141957419D02*
X170899121Y-141981228D01*
X171756264Y-141957419D02*
X171708645Y-141933609D01*
X171708645Y-141933609D02*
X171637216Y-141933609D01*
X171637216Y-141933609D02*
X171565788Y-141957419D01*
X171565788Y-141957419D02*
X171518169Y-142005038D01*
X171518169Y-142005038D02*
X171494359Y-142052657D01*
X171494359Y-142052657D02*
X171470550Y-142147895D01*
X171470550Y-142147895D02*
X171470550Y-142219323D01*
X171470550Y-142219323D02*
X171494359Y-142314561D01*
X171494359Y-142314561D02*
X171518169Y-142362180D01*
X171518169Y-142362180D02*
X171565788Y-142409800D01*
X171565788Y-142409800D02*
X171637216Y-142433609D01*
X171637216Y-142433609D02*
X171684835Y-142433609D01*
X171684835Y-142433609D02*
X171756264Y-142409800D01*
X171756264Y-142409800D02*
X171780073Y-142385990D01*
X171780073Y-142385990D02*
X171780073Y-142219323D01*
X171780073Y-142219323D02*
X171684835Y-142219323D01*
X171994359Y-142433609D02*
X171994359Y-141933609D01*
X171994359Y-141933609D02*
X172280073Y-142433609D01*
X172280073Y-142433609D02*
X172280073Y-141933609D01*
X172518169Y-142433609D02*
X172518169Y-141933609D01*
X172518169Y-141933609D02*
X172637217Y-141933609D01*
X172637217Y-141933609D02*
X172708645Y-141957419D01*
X172708645Y-141957419D02*
X172756264Y-142005038D01*
X172756264Y-142005038D02*
X172780074Y-142052657D01*
X172780074Y-142052657D02*
X172803883Y-142147895D01*
X172803883Y-142147895D02*
X172803883Y-142219323D01*
X172803883Y-142219323D02*
X172780074Y-142314561D01*
X172780074Y-142314561D02*
X172756264Y-142362180D01*
X172756264Y-142362180D02*
X172708645Y-142409800D01*
X172708645Y-142409800D02*
X172637217Y-142433609D01*
X172637217Y-142433609D02*
X172518169Y-142433609D01*
X173375312Y-142409800D02*
X173446740Y-142433609D01*
X173446740Y-142433609D02*
X173565788Y-142433609D01*
X173565788Y-142433609D02*
X173613407Y-142409800D01*
X173613407Y-142409800D02*
X173637216Y-142385990D01*
X173637216Y-142385990D02*
X173661026Y-142338371D01*
X173661026Y-142338371D02*
X173661026Y-142290752D01*
X173661026Y-142290752D02*
X173637216Y-142243133D01*
X173637216Y-142243133D02*
X173613407Y-142219323D01*
X173613407Y-142219323D02*
X173565788Y-142195514D01*
X173565788Y-142195514D02*
X173470550Y-142171704D01*
X173470550Y-142171704D02*
X173422931Y-142147895D01*
X173422931Y-142147895D02*
X173399121Y-142124085D01*
X173399121Y-142124085D02*
X173375312Y-142076466D01*
X173375312Y-142076466D02*
X173375312Y-142028847D01*
X173375312Y-142028847D02*
X173399121Y-141981228D01*
X173399121Y-141981228D02*
X173422931Y-141957419D01*
X173422931Y-141957419D02*
X173470550Y-141933609D01*
X173470550Y-141933609D02*
X173589597Y-141933609D01*
X173589597Y-141933609D02*
X173661026Y-141957419D01*
X174161025Y-142385990D02*
X174137216Y-142409800D01*
X174137216Y-142409800D02*
X174065787Y-142433609D01*
X174065787Y-142433609D02*
X174018168Y-142433609D01*
X174018168Y-142433609D02*
X173946740Y-142409800D01*
X173946740Y-142409800D02*
X173899121Y-142362180D01*
X173899121Y-142362180D02*
X173875311Y-142314561D01*
X173875311Y-142314561D02*
X173851502Y-142219323D01*
X173851502Y-142219323D02*
X173851502Y-142147895D01*
X173851502Y-142147895D02*
X173875311Y-142052657D01*
X173875311Y-142052657D02*
X173899121Y-142005038D01*
X173899121Y-142005038D02*
X173946740Y-141957419D01*
X173946740Y-141957419D02*
X174018168Y-141933609D01*
X174018168Y-141933609D02*
X174065787Y-141933609D01*
X174065787Y-141933609D02*
X174137216Y-141957419D01*
X174137216Y-141957419D02*
X174161025Y-141981228D01*
X174375311Y-142433609D02*
X174375311Y-141933609D01*
X174661025Y-142433609D02*
X174446740Y-142147895D01*
X174661025Y-141933609D02*
X174375311Y-142219323D01*
X175256263Y-142433609D02*
X175256263Y-141933609D01*
X175256263Y-141933609D02*
X175422930Y-142290752D01*
X175422930Y-142290752D02*
X175589596Y-141933609D01*
X175589596Y-141933609D02*
X175589596Y-142433609D01*
X175922930Y-141933609D02*
X176018168Y-141933609D01*
X176018168Y-141933609D02*
X176065787Y-141957419D01*
X176065787Y-141957419D02*
X176113406Y-142005038D01*
X176113406Y-142005038D02*
X176137216Y-142100276D01*
X176137216Y-142100276D02*
X176137216Y-142266942D01*
X176137216Y-142266942D02*
X176113406Y-142362180D01*
X176113406Y-142362180D02*
X176065787Y-142409800D01*
X176065787Y-142409800D02*
X176018168Y-142433609D01*
X176018168Y-142433609D02*
X175922930Y-142433609D01*
X175922930Y-142433609D02*
X175875311Y-142409800D01*
X175875311Y-142409800D02*
X175827692Y-142362180D01*
X175827692Y-142362180D02*
X175803883Y-142266942D01*
X175803883Y-142266942D02*
X175803883Y-142100276D01*
X175803883Y-142100276D02*
X175827692Y-142005038D01*
X175827692Y-142005038D02*
X175875311Y-141957419D01*
X175875311Y-141957419D02*
X175922930Y-141933609D01*
X176327693Y-142409800D02*
X176399121Y-142433609D01*
X176399121Y-142433609D02*
X176518169Y-142433609D01*
X176518169Y-142433609D02*
X176565788Y-142409800D01*
X176565788Y-142409800D02*
X176589597Y-142385990D01*
X176589597Y-142385990D02*
X176613407Y-142338371D01*
X176613407Y-142338371D02*
X176613407Y-142290752D01*
X176613407Y-142290752D02*
X176589597Y-142243133D01*
X176589597Y-142243133D02*
X176565788Y-142219323D01*
X176565788Y-142219323D02*
X176518169Y-142195514D01*
X176518169Y-142195514D02*
X176422931Y-142171704D01*
X176422931Y-142171704D02*
X176375312Y-142147895D01*
X176375312Y-142147895D02*
X176351502Y-142124085D01*
X176351502Y-142124085D02*
X176327693Y-142076466D01*
X176327693Y-142076466D02*
X176327693Y-142028847D01*
X176327693Y-142028847D02*
X176351502Y-141981228D01*
X176351502Y-141981228D02*
X176375312Y-141957419D01*
X176375312Y-141957419D02*
X176422931Y-141933609D01*
X176422931Y-141933609D02*
X176541978Y-141933609D01*
X176541978Y-141933609D02*
X176613407Y-141957419D01*
X176827692Y-142433609D02*
X176827692Y-141933609D01*
X177732453Y-142385990D02*
X177708644Y-142409800D01*
X177708644Y-142409800D02*
X177637215Y-142433609D01*
X177637215Y-142433609D02*
X177589596Y-142433609D01*
X177589596Y-142433609D02*
X177518168Y-142409800D01*
X177518168Y-142409800D02*
X177470549Y-142362180D01*
X177470549Y-142362180D02*
X177446739Y-142314561D01*
X177446739Y-142314561D02*
X177422930Y-142219323D01*
X177422930Y-142219323D02*
X177422930Y-142147895D01*
X177422930Y-142147895D02*
X177446739Y-142052657D01*
X177446739Y-142052657D02*
X177470549Y-142005038D01*
X177470549Y-142005038D02*
X177518168Y-141957419D01*
X177518168Y-141957419D02*
X177589596Y-141933609D01*
X177589596Y-141933609D02*
X177637215Y-141933609D01*
X177637215Y-141933609D02*
X177708644Y-141957419D01*
X177708644Y-141957419D02*
X177732453Y-141981228D01*
X177922930Y-142409800D02*
X177994358Y-142433609D01*
X177994358Y-142433609D02*
X178113406Y-142433609D01*
X178113406Y-142433609D02*
X178161025Y-142409800D01*
X178161025Y-142409800D02*
X178184834Y-142385990D01*
X178184834Y-142385990D02*
X178208644Y-142338371D01*
X178208644Y-142338371D02*
X178208644Y-142290752D01*
X178208644Y-142290752D02*
X178184834Y-142243133D01*
X178184834Y-142243133D02*
X178161025Y-142219323D01*
X178161025Y-142219323D02*
X178113406Y-142195514D01*
X178113406Y-142195514D02*
X178018168Y-142171704D01*
X178018168Y-142171704D02*
X177970549Y-142147895D01*
X177970549Y-142147895D02*
X177946739Y-142124085D01*
X177946739Y-142124085D02*
X177922930Y-142076466D01*
X177922930Y-142076466D02*
X177922930Y-142028847D01*
X177922930Y-142028847D02*
X177946739Y-141981228D01*
X177946739Y-141981228D02*
X177970549Y-141957419D01*
X177970549Y-141957419D02*
X178018168Y-141933609D01*
X178018168Y-141933609D02*
X178137215Y-141933609D01*
X178137215Y-141933609D02*
X178208644Y-141957419D01*
X178803881Y-142433609D02*
X178803881Y-141933609D01*
X178803881Y-141933609D02*
X178922929Y-141933609D01*
X178922929Y-141933609D02*
X178994357Y-141957419D01*
X178994357Y-141957419D02*
X179041976Y-142005038D01*
X179041976Y-142005038D02*
X179065786Y-142052657D01*
X179065786Y-142052657D02*
X179089595Y-142147895D01*
X179089595Y-142147895D02*
X179089595Y-142219323D01*
X179089595Y-142219323D02*
X179065786Y-142314561D01*
X179065786Y-142314561D02*
X179041976Y-142362180D01*
X179041976Y-142362180D02*
X178994357Y-142409800D01*
X178994357Y-142409800D02*
X178922929Y-142433609D01*
X178922929Y-142433609D02*
X178803881Y-142433609D01*
X179589595Y-142385990D02*
X179565786Y-142409800D01*
X179565786Y-142409800D02*
X179494357Y-142433609D01*
X179494357Y-142433609D02*
X179446738Y-142433609D01*
X179446738Y-142433609D02*
X179375310Y-142409800D01*
X179375310Y-142409800D02*
X179327691Y-142362180D01*
X179327691Y-142362180D02*
X179303881Y-142314561D01*
X179303881Y-142314561D02*
X179280072Y-142219323D01*
X179280072Y-142219323D02*
X179280072Y-142147895D01*
X179280072Y-142147895D02*
X179303881Y-142052657D01*
X179303881Y-142052657D02*
X179327691Y-142005038D01*
X179327691Y-142005038D02*
X179375310Y-141957419D01*
X179375310Y-141957419D02*
X179446738Y-141933609D01*
X179446738Y-141933609D02*
X179494357Y-141933609D01*
X179494357Y-141933609D02*
X179565786Y-141957419D01*
X179565786Y-141957419D02*
X179589595Y-141981228D01*
X180470547Y-142433609D02*
X180303881Y-142195514D01*
X180184833Y-142433609D02*
X180184833Y-141933609D01*
X180184833Y-141933609D02*
X180375309Y-141933609D01*
X180375309Y-141933609D02*
X180422928Y-141957419D01*
X180422928Y-141957419D02*
X180446738Y-141981228D01*
X180446738Y-141981228D02*
X180470547Y-142028847D01*
X180470547Y-142028847D02*
X180470547Y-142100276D01*
X180470547Y-142100276D02*
X180446738Y-142147895D01*
X180446738Y-142147895D02*
X180422928Y-142171704D01*
X180422928Y-142171704D02*
X180375309Y-142195514D01*
X180375309Y-142195514D02*
X180184833Y-142195514D01*
X180661024Y-142409800D02*
X180732452Y-142433609D01*
X180732452Y-142433609D02*
X180851500Y-142433609D01*
X180851500Y-142433609D02*
X180899119Y-142409800D01*
X180899119Y-142409800D02*
X180922928Y-142385990D01*
X180922928Y-142385990D02*
X180946738Y-142338371D01*
X180946738Y-142338371D02*
X180946738Y-142290752D01*
X180946738Y-142290752D02*
X180922928Y-142243133D01*
X180922928Y-142243133D02*
X180899119Y-142219323D01*
X180899119Y-142219323D02*
X180851500Y-142195514D01*
X180851500Y-142195514D02*
X180756262Y-142171704D01*
X180756262Y-142171704D02*
X180708643Y-142147895D01*
X180708643Y-142147895D02*
X180684833Y-142124085D01*
X180684833Y-142124085D02*
X180661024Y-142076466D01*
X180661024Y-142076466D02*
X180661024Y-142028847D01*
X180661024Y-142028847D02*
X180684833Y-141981228D01*
X180684833Y-141981228D02*
X180708643Y-141957419D01*
X180708643Y-141957419D02*
X180756262Y-141933609D01*
X180756262Y-141933609D02*
X180875309Y-141933609D01*
X180875309Y-141933609D02*
X180946738Y-141957419D01*
X181089595Y-141933609D02*
X181375309Y-141933609D01*
X181232452Y-142433609D02*
X181232452Y-141933609D01*
X182089594Y-142171704D02*
X182161022Y-142195514D01*
X182161022Y-142195514D02*
X182184832Y-142219323D01*
X182184832Y-142219323D02*
X182208641Y-142266942D01*
X182208641Y-142266942D02*
X182208641Y-142338371D01*
X182208641Y-142338371D02*
X182184832Y-142385990D01*
X182184832Y-142385990D02*
X182161022Y-142409800D01*
X182161022Y-142409800D02*
X182113403Y-142433609D01*
X182113403Y-142433609D02*
X181922927Y-142433609D01*
X181922927Y-142433609D02*
X181922927Y-141933609D01*
X181922927Y-141933609D02*
X182089594Y-141933609D01*
X182089594Y-141933609D02*
X182137213Y-141957419D01*
X182137213Y-141957419D02*
X182161022Y-141981228D01*
X182161022Y-141981228D02*
X182184832Y-142028847D01*
X182184832Y-142028847D02*
X182184832Y-142076466D01*
X182184832Y-142076466D02*
X182161022Y-142124085D01*
X182161022Y-142124085D02*
X182137213Y-142147895D01*
X182137213Y-142147895D02*
X182089594Y-142171704D01*
X182089594Y-142171704D02*
X181922927Y-142171704D01*
X182661022Y-142433609D02*
X182422927Y-142433609D01*
X182422927Y-142433609D02*
X182422927Y-141933609D01*
X162699556Y-99932231D02*
X162682720Y-99881723D01*
X162682720Y-99881723D02*
X162632213Y-99831215D01*
X162632213Y-99831215D02*
X162564869Y-99797544D01*
X162564869Y-99797544D02*
X162497526Y-99797544D01*
X162497526Y-99797544D02*
X162447018Y-99814380D01*
X162447018Y-99814380D02*
X162362839Y-99864887D01*
X162362839Y-99864887D02*
X162312331Y-99915395D01*
X162312331Y-99915395D02*
X162261823Y-99999574D01*
X162261823Y-99999574D02*
X162244987Y-100050082D01*
X162244987Y-100050082D02*
X162244987Y-100117425D01*
X162244987Y-100117425D02*
X162278659Y-100184769D01*
X162278659Y-100184769D02*
X162312331Y-100218441D01*
X162312331Y-100218441D02*
X162379674Y-100252112D01*
X162379674Y-100252112D02*
X162413346Y-100252112D01*
X162413346Y-100252112D02*
X162531197Y-100134261D01*
X162531197Y-100134261D02*
X162463854Y-100066918D01*
X162531197Y-100437307D02*
X162884751Y-100083754D01*
X162884751Y-100083754D02*
X162733228Y-100639337D01*
X162733228Y-100639337D02*
X163086781Y-100285784D01*
X162901587Y-100807697D02*
X163255140Y-100454143D01*
X163255140Y-100454143D02*
X163339320Y-100538323D01*
X163339320Y-100538323D02*
X163372991Y-100605666D01*
X163372991Y-100605666D02*
X163372991Y-100673010D01*
X163372991Y-100673010D02*
X163356156Y-100723517D01*
X163356156Y-100723517D02*
X163305648Y-100807697D01*
X163305648Y-100807697D02*
X163255140Y-100858204D01*
X163255140Y-100858204D02*
X163170961Y-100908712D01*
X163170961Y-100908712D02*
X163120453Y-100925548D01*
X163120453Y-100925548D02*
X163053110Y-100925548D01*
X163053110Y-100925548D02*
X162985766Y-100891876D01*
X162985766Y-100891876D02*
X162901587Y-100807697D01*
X163726545Y-101632654D02*
X163777052Y-101346444D01*
X163524514Y-101430624D02*
X163878067Y-101077070D01*
X163878067Y-101077070D02*
X164012754Y-101211757D01*
X164012754Y-101211757D02*
X164029590Y-101262265D01*
X164029590Y-101262265D02*
X164029590Y-101295937D01*
X164029590Y-101295937D02*
X164012754Y-101346444D01*
X164012754Y-101346444D02*
X163962247Y-101396952D01*
X163962247Y-101396952D02*
X163911739Y-101413788D01*
X163911739Y-101413788D02*
X163878067Y-101413788D01*
X163878067Y-101413788D02*
X163827560Y-101396952D01*
X163827560Y-101396952D02*
X163692873Y-101262265D01*
X164197949Y-101396952D02*
X164080098Y-101986208D01*
X164433651Y-101632654D02*
X163844396Y-101750505D01*
X164787204Y-101986207D02*
X164989235Y-102188237D01*
X164534666Y-102440776D02*
X164888219Y-102087222D01*
X165073414Y-102272417D02*
X164955563Y-102861672D01*
X165309116Y-102508119D02*
X164719860Y-102625970D01*
D11*
X119369819Y-112091792D02*
X118893628Y-112425125D01*
X119369819Y-112663220D02*
X118369819Y-112663220D01*
X118369819Y-112663220D02*
X118369819Y-112282268D01*
X118369819Y-112282268D02*
X118417438Y-112187030D01*
X118417438Y-112187030D02*
X118465057Y-112139411D01*
X118465057Y-112139411D02*
X118560295Y-112091792D01*
X118560295Y-112091792D02*
X118703152Y-112091792D01*
X118703152Y-112091792D02*
X118798390Y-112139411D01*
X118798390Y-112139411D02*
X118846009Y-112187030D01*
X118846009Y-112187030D02*
X118893628Y-112282268D01*
X118893628Y-112282268D02*
X118893628Y-112663220D01*
X119322200Y-111282268D02*
X119369819Y-111377506D01*
X119369819Y-111377506D02*
X119369819Y-111567982D01*
X119369819Y-111567982D02*
X119322200Y-111663220D01*
X119322200Y-111663220D02*
X119226961Y-111710839D01*
X119226961Y-111710839D02*
X118846009Y-111710839D01*
X118846009Y-111710839D02*
X118750771Y-111663220D01*
X118750771Y-111663220D02*
X118703152Y-111567982D01*
X118703152Y-111567982D02*
X118703152Y-111377506D01*
X118703152Y-111377506D02*
X118750771Y-111282268D01*
X118750771Y-111282268D02*
X118846009Y-111234649D01*
X118846009Y-111234649D02*
X118941247Y-111234649D01*
X118941247Y-111234649D02*
X119036485Y-111710839D01*
X119322200Y-110853696D02*
X119369819Y-110758458D01*
X119369819Y-110758458D02*
X119369819Y-110567982D01*
X119369819Y-110567982D02*
X119322200Y-110472744D01*
X119322200Y-110472744D02*
X119226961Y-110425125D01*
X119226961Y-110425125D02*
X119179342Y-110425125D01*
X119179342Y-110425125D02*
X119084104Y-110472744D01*
X119084104Y-110472744D02*
X119036485Y-110567982D01*
X119036485Y-110567982D02*
X119036485Y-110710839D01*
X119036485Y-110710839D02*
X118988866Y-110806077D01*
X118988866Y-110806077D02*
X118893628Y-110853696D01*
X118893628Y-110853696D02*
X118846009Y-110853696D01*
X118846009Y-110853696D02*
X118750771Y-110806077D01*
X118750771Y-110806077D02*
X118703152Y-110710839D01*
X118703152Y-110710839D02*
X118703152Y-110567982D01*
X118703152Y-110567982D02*
X118750771Y-110472744D01*
X119322200Y-109615601D02*
X119369819Y-109710839D01*
X119369819Y-109710839D02*
X119369819Y-109901315D01*
X119369819Y-109901315D02*
X119322200Y-109996553D01*
X119322200Y-109996553D02*
X119226961Y-110044172D01*
X119226961Y-110044172D02*
X118846009Y-110044172D01*
X118846009Y-110044172D02*
X118750771Y-109996553D01*
X118750771Y-109996553D02*
X118703152Y-109901315D01*
X118703152Y-109901315D02*
X118703152Y-109710839D01*
X118703152Y-109710839D02*
X118750771Y-109615601D01*
X118750771Y-109615601D02*
X118846009Y-109567982D01*
X118846009Y-109567982D02*
X118941247Y-109567982D01*
X118941247Y-109567982D02*
X119036485Y-110044172D01*
X118703152Y-109282267D02*
X118703152Y-108901315D01*
X118369819Y-109139410D02*
X119226961Y-109139410D01*
X119226961Y-109139410D02*
X119322200Y-109091791D01*
X119322200Y-109091791D02*
X119369819Y-108996553D01*
X119369819Y-108996553D02*
X119369819Y-108901315D01*
X118846009Y-98829887D02*
X118893628Y-98687030D01*
X118893628Y-98687030D02*
X118941247Y-98639411D01*
X118941247Y-98639411D02*
X119036485Y-98591792D01*
X119036485Y-98591792D02*
X119179342Y-98591792D01*
X119179342Y-98591792D02*
X119274580Y-98639411D01*
X119274580Y-98639411D02*
X119322200Y-98687030D01*
X119322200Y-98687030D02*
X119369819Y-98782268D01*
X119369819Y-98782268D02*
X119369819Y-99163220D01*
X119369819Y-99163220D02*
X118369819Y-99163220D01*
X118369819Y-99163220D02*
X118369819Y-98829887D01*
X118369819Y-98829887D02*
X118417438Y-98734649D01*
X118417438Y-98734649D02*
X118465057Y-98687030D01*
X118465057Y-98687030D02*
X118560295Y-98639411D01*
X118560295Y-98639411D02*
X118655533Y-98639411D01*
X118655533Y-98639411D02*
X118750771Y-98687030D01*
X118750771Y-98687030D02*
X118798390Y-98734649D01*
X118798390Y-98734649D02*
X118846009Y-98829887D01*
X118846009Y-98829887D02*
X118846009Y-99163220D01*
X118369819Y-97972744D02*
X118369819Y-97782268D01*
X118369819Y-97782268D02*
X118417438Y-97687030D01*
X118417438Y-97687030D02*
X118512676Y-97591792D01*
X118512676Y-97591792D02*
X118703152Y-97544173D01*
X118703152Y-97544173D02*
X119036485Y-97544173D01*
X119036485Y-97544173D02*
X119226961Y-97591792D01*
X119226961Y-97591792D02*
X119322200Y-97687030D01*
X119322200Y-97687030D02*
X119369819Y-97782268D01*
X119369819Y-97782268D02*
X119369819Y-97972744D01*
X119369819Y-97972744D02*
X119322200Y-98067982D01*
X119322200Y-98067982D02*
X119226961Y-98163220D01*
X119226961Y-98163220D02*
X119036485Y-98210839D01*
X119036485Y-98210839D02*
X118703152Y-98210839D01*
X118703152Y-98210839D02*
X118512676Y-98163220D01*
X118512676Y-98163220D02*
X118417438Y-98067982D01*
X118417438Y-98067982D02*
X118369819Y-97972744D01*
X118369819Y-96925125D02*
X118369819Y-96734649D01*
X118369819Y-96734649D02*
X118417438Y-96639411D01*
X118417438Y-96639411D02*
X118512676Y-96544173D01*
X118512676Y-96544173D02*
X118703152Y-96496554D01*
X118703152Y-96496554D02*
X119036485Y-96496554D01*
X119036485Y-96496554D02*
X119226961Y-96544173D01*
X119226961Y-96544173D02*
X119322200Y-96639411D01*
X119322200Y-96639411D02*
X119369819Y-96734649D01*
X119369819Y-96734649D02*
X119369819Y-96925125D01*
X119369819Y-96925125D02*
X119322200Y-97020363D01*
X119322200Y-97020363D02*
X119226961Y-97115601D01*
X119226961Y-97115601D02*
X119036485Y-97163220D01*
X119036485Y-97163220D02*
X118703152Y-97163220D01*
X118703152Y-97163220D02*
X118512676Y-97115601D01*
X118512676Y-97115601D02*
X118417438Y-97020363D01*
X118417438Y-97020363D02*
X118369819Y-96925125D01*
X118369819Y-96210839D02*
X118369819Y-95639411D01*
X119369819Y-95925125D02*
X118369819Y-95925125D01*
X171210517Y-147370427D02*
X171210517Y-146370427D01*
X171210517Y-146370427D02*
X171448612Y-146370427D01*
X171448612Y-146370427D02*
X171591469Y-146418046D01*
X171591469Y-146418046D02*
X171686707Y-146513284D01*
X171686707Y-146513284D02*
X171734326Y-146608522D01*
X171734326Y-146608522D02*
X171781945Y-146798998D01*
X171781945Y-146798998D02*
X171781945Y-146941855D01*
X171781945Y-146941855D02*
X171734326Y-147132331D01*
X171734326Y-147132331D02*
X171686707Y-147227569D01*
X171686707Y-147227569D02*
X171591469Y-147322808D01*
X171591469Y-147322808D02*
X171448612Y-147370427D01*
X171448612Y-147370427D02*
X171210517Y-147370427D01*
X172210517Y-147370427D02*
X172210517Y-146703760D01*
X172210517Y-146370427D02*
X172162898Y-146418046D01*
X172162898Y-146418046D02*
X172210517Y-146465665D01*
X172210517Y-146465665D02*
X172258136Y-146418046D01*
X172258136Y-146418046D02*
X172210517Y-146370427D01*
X172210517Y-146370427D02*
X172210517Y-146465665D01*
X172639088Y-147322808D02*
X172734326Y-147370427D01*
X172734326Y-147370427D02*
X172924802Y-147370427D01*
X172924802Y-147370427D02*
X173020040Y-147322808D01*
X173020040Y-147322808D02*
X173067659Y-147227569D01*
X173067659Y-147227569D02*
X173067659Y-147179950D01*
X173067659Y-147179950D02*
X173020040Y-147084712D01*
X173020040Y-147084712D02*
X172924802Y-147037093D01*
X172924802Y-147037093D02*
X172781945Y-147037093D01*
X172781945Y-147037093D02*
X172686707Y-146989474D01*
X172686707Y-146989474D02*
X172639088Y-146894236D01*
X172639088Y-146894236D02*
X172639088Y-146846617D01*
X172639088Y-146846617D02*
X172686707Y-146751379D01*
X172686707Y-146751379D02*
X172781945Y-146703760D01*
X172781945Y-146703760D02*
X172924802Y-146703760D01*
X172924802Y-146703760D02*
X173020040Y-146751379D01*
X173496231Y-146703760D02*
X173496231Y-147703760D01*
X173496231Y-146751379D02*
X173591469Y-146703760D01*
X173591469Y-146703760D02*
X173781945Y-146703760D01*
X173781945Y-146703760D02*
X173877183Y-146751379D01*
X173877183Y-146751379D02*
X173924802Y-146798998D01*
X173924802Y-146798998D02*
X173972421Y-146894236D01*
X173972421Y-146894236D02*
X173972421Y-147179950D01*
X173972421Y-147179950D02*
X173924802Y-147275188D01*
X173924802Y-147275188D02*
X173877183Y-147322808D01*
X173877183Y-147322808D02*
X173781945Y-147370427D01*
X173781945Y-147370427D02*
X173591469Y-147370427D01*
X173591469Y-147370427D02*
X173496231Y-147322808D01*
X174543850Y-147370427D02*
X174448612Y-147322808D01*
X174448612Y-147322808D02*
X174400993Y-147227569D01*
X174400993Y-147227569D02*
X174400993Y-146370427D01*
X175353374Y-147370427D02*
X175353374Y-146846617D01*
X175353374Y-146846617D02*
X175305755Y-146751379D01*
X175305755Y-146751379D02*
X175210517Y-146703760D01*
X175210517Y-146703760D02*
X175020041Y-146703760D01*
X175020041Y-146703760D02*
X174924803Y-146751379D01*
X175353374Y-147322808D02*
X175258136Y-147370427D01*
X175258136Y-147370427D02*
X175020041Y-147370427D01*
X175020041Y-147370427D02*
X174924803Y-147322808D01*
X174924803Y-147322808D02*
X174877184Y-147227569D01*
X174877184Y-147227569D02*
X174877184Y-147132331D01*
X174877184Y-147132331D02*
X174924803Y-147037093D01*
X174924803Y-147037093D02*
X175020041Y-146989474D01*
X175020041Y-146989474D02*
X175258136Y-146989474D01*
X175258136Y-146989474D02*
X175353374Y-146941855D01*
X175734327Y-146703760D02*
X175972422Y-147370427D01*
X176210517Y-146703760D02*
X175972422Y-147370427D01*
X175972422Y-147370427D02*
X175877184Y-147608522D01*
X175877184Y-147608522D02*
X175829565Y-147656141D01*
X175829565Y-147656141D02*
X175734327Y-147703760D01*
X177353375Y-146846617D02*
X177686708Y-146846617D01*
X177829565Y-147370427D02*
X177353375Y-147370427D01*
X177353375Y-147370427D02*
X177353375Y-146370427D01*
X177353375Y-146370427D02*
X177829565Y-146370427D01*
X178162899Y-146370427D02*
X178829565Y-147370427D01*
X178829565Y-146370427D02*
X178162899Y-147370427D01*
X179067661Y-146370427D02*
X179639089Y-146370427D01*
X179353375Y-147370427D02*
X179353375Y-146370427D01*
D10*
X182226109Y-119476189D02*
X182726109Y-119309523D01*
X182726109Y-119309523D02*
X182226109Y-119142856D01*
X182678490Y-118690476D02*
X182702300Y-118714285D01*
X182702300Y-118714285D02*
X182726109Y-118785714D01*
X182726109Y-118785714D02*
X182726109Y-118833333D01*
X182726109Y-118833333D02*
X182702300Y-118904761D01*
X182702300Y-118904761D02*
X182654680Y-118952380D01*
X182654680Y-118952380D02*
X182607061Y-118976190D01*
X182607061Y-118976190D02*
X182511823Y-118999999D01*
X182511823Y-118999999D02*
X182440395Y-118999999D01*
X182440395Y-118999999D02*
X182345157Y-118976190D01*
X182345157Y-118976190D02*
X182297538Y-118952380D01*
X182297538Y-118952380D02*
X182249919Y-118904761D01*
X182249919Y-118904761D02*
X182226109Y-118833333D01*
X182226109Y-118833333D02*
X182226109Y-118785714D01*
X182226109Y-118785714D02*
X182249919Y-118714285D01*
X182249919Y-118714285D02*
X182273728Y-118690476D01*
X182678490Y-118190476D02*
X182702300Y-118214285D01*
X182702300Y-118214285D02*
X182726109Y-118285714D01*
X182726109Y-118285714D02*
X182726109Y-118333333D01*
X182726109Y-118333333D02*
X182702300Y-118404761D01*
X182702300Y-118404761D02*
X182654680Y-118452380D01*
X182654680Y-118452380D02*
X182607061Y-118476190D01*
X182607061Y-118476190D02*
X182511823Y-118499999D01*
X182511823Y-118499999D02*
X182440395Y-118499999D01*
X182440395Y-118499999D02*
X182345157Y-118476190D01*
X182345157Y-118476190D02*
X182297538Y-118452380D01*
X182297538Y-118452380D02*
X182249919Y-118404761D01*
X182249919Y-118404761D02*
X182226109Y-118333333D01*
X182226109Y-118333333D02*
X182226109Y-118285714D01*
X182226109Y-118285714D02*
X182249919Y-118214285D01*
X182249919Y-118214285D02*
X182273728Y-118190476D01*
X182226109Y-117666666D02*
X182726109Y-117500000D01*
X182726109Y-117500000D02*
X182226109Y-117333333D01*
X182678490Y-116880953D02*
X182702300Y-116904762D01*
X182702300Y-116904762D02*
X182726109Y-116976191D01*
X182726109Y-116976191D02*
X182726109Y-117023810D01*
X182726109Y-117023810D02*
X182702300Y-117095238D01*
X182702300Y-117095238D02*
X182654680Y-117142857D01*
X182654680Y-117142857D02*
X182607061Y-117166667D01*
X182607061Y-117166667D02*
X182511823Y-117190476D01*
X182511823Y-117190476D02*
X182440395Y-117190476D01*
X182440395Y-117190476D02*
X182345157Y-117166667D01*
X182345157Y-117166667D02*
X182297538Y-117142857D01*
X182297538Y-117142857D02*
X182249919Y-117095238D01*
X182249919Y-117095238D02*
X182226109Y-117023810D01*
X182226109Y-117023810D02*
X182226109Y-116976191D01*
X182226109Y-116976191D02*
X182249919Y-116904762D01*
X182249919Y-116904762D02*
X182273728Y-116880953D01*
X182678490Y-116380953D02*
X182702300Y-116404762D01*
X182702300Y-116404762D02*
X182726109Y-116476191D01*
X182726109Y-116476191D02*
X182726109Y-116523810D01*
X182726109Y-116523810D02*
X182702300Y-116595238D01*
X182702300Y-116595238D02*
X182654680Y-116642857D01*
X182654680Y-116642857D02*
X182607061Y-116666667D01*
X182607061Y-116666667D02*
X182511823Y-116690476D01*
X182511823Y-116690476D02*
X182440395Y-116690476D01*
X182440395Y-116690476D02*
X182345157Y-116666667D01*
X182345157Y-116666667D02*
X182297538Y-116642857D01*
X182297538Y-116642857D02*
X182249919Y-116595238D01*
X182249919Y-116595238D02*
X182226109Y-116523810D01*
X182226109Y-116523810D02*
X182226109Y-116476191D01*
X182226109Y-116476191D02*
X182249919Y-116404762D01*
X182249919Y-116404762D02*
X182273728Y-116380953D01*
X182249919Y-115523810D02*
X182226109Y-115571429D01*
X182226109Y-115571429D02*
X182226109Y-115642858D01*
X182226109Y-115642858D02*
X182249919Y-115714286D01*
X182249919Y-115714286D02*
X182297538Y-115761905D01*
X182297538Y-115761905D02*
X182345157Y-115785715D01*
X182345157Y-115785715D02*
X182440395Y-115809524D01*
X182440395Y-115809524D02*
X182511823Y-115809524D01*
X182511823Y-115809524D02*
X182607061Y-115785715D01*
X182607061Y-115785715D02*
X182654680Y-115761905D01*
X182654680Y-115761905D02*
X182702300Y-115714286D01*
X182702300Y-115714286D02*
X182726109Y-115642858D01*
X182726109Y-115642858D02*
X182726109Y-115595239D01*
X182726109Y-115595239D02*
X182702300Y-115523810D01*
X182702300Y-115523810D02*
X182678490Y-115500001D01*
X182678490Y-115500001D02*
X182511823Y-115500001D01*
X182511823Y-115500001D02*
X182511823Y-115595239D01*
X182726109Y-115285715D02*
X182226109Y-115285715D01*
X182226109Y-115285715D02*
X182726109Y-115000001D01*
X182726109Y-115000001D02*
X182226109Y-115000001D01*
X182726109Y-114761905D02*
X182226109Y-114761905D01*
X182226109Y-114761905D02*
X182226109Y-114642857D01*
X182226109Y-114642857D02*
X182249919Y-114571429D01*
X182249919Y-114571429D02*
X182297538Y-114523810D01*
X182297538Y-114523810D02*
X182345157Y-114500000D01*
X182345157Y-114500000D02*
X182440395Y-114476191D01*
X182440395Y-114476191D02*
X182511823Y-114476191D01*
X182511823Y-114476191D02*
X182607061Y-114500000D01*
X182607061Y-114500000D02*
X182654680Y-114523810D01*
X182654680Y-114523810D02*
X182702300Y-114571429D01*
X182702300Y-114571429D02*
X182726109Y-114642857D01*
X182726109Y-114642857D02*
X182726109Y-114761905D01*
X182249919Y-113619048D02*
X182226109Y-113666667D01*
X182226109Y-113666667D02*
X182226109Y-113738096D01*
X182226109Y-113738096D02*
X182249919Y-113809524D01*
X182249919Y-113809524D02*
X182297538Y-113857143D01*
X182297538Y-113857143D02*
X182345157Y-113880953D01*
X182345157Y-113880953D02*
X182440395Y-113904762D01*
X182440395Y-113904762D02*
X182511823Y-113904762D01*
X182511823Y-113904762D02*
X182607061Y-113880953D01*
X182607061Y-113880953D02*
X182654680Y-113857143D01*
X182654680Y-113857143D02*
X182702300Y-113809524D01*
X182702300Y-113809524D02*
X182726109Y-113738096D01*
X182726109Y-113738096D02*
X182726109Y-113690477D01*
X182726109Y-113690477D02*
X182702300Y-113619048D01*
X182702300Y-113619048D02*
X182678490Y-113595239D01*
X182678490Y-113595239D02*
X182511823Y-113595239D01*
X182511823Y-113595239D02*
X182511823Y-113690477D01*
X182726109Y-113380953D02*
X182226109Y-113380953D01*
X182226109Y-113380953D02*
X182726109Y-113095239D01*
X182726109Y-113095239D02*
X182226109Y-113095239D01*
X182726109Y-112857143D02*
X182226109Y-112857143D01*
X182226109Y-112857143D02*
X182226109Y-112738095D01*
X182226109Y-112738095D02*
X182249919Y-112666667D01*
X182249919Y-112666667D02*
X182297538Y-112619048D01*
X182297538Y-112619048D02*
X182345157Y-112595238D01*
X182345157Y-112595238D02*
X182440395Y-112571429D01*
X182440395Y-112571429D02*
X182511823Y-112571429D01*
X182511823Y-112571429D02*
X182607061Y-112595238D01*
X182607061Y-112595238D02*
X182654680Y-112619048D01*
X182654680Y-112619048D02*
X182702300Y-112666667D01*
X182702300Y-112666667D02*
X182726109Y-112738095D01*
X182726109Y-112738095D02*
X182726109Y-112857143D01*
D11*
X154976191Y-137454819D02*
X154976191Y-136454819D01*
X154976191Y-136454819D02*
X155357143Y-136454819D01*
X155357143Y-136454819D02*
X155452381Y-136502438D01*
X155452381Y-136502438D02*
X155500000Y-136550057D01*
X155500000Y-136550057D02*
X155547619Y-136645295D01*
X155547619Y-136645295D02*
X155547619Y-136788152D01*
X155547619Y-136788152D02*
X155500000Y-136883390D01*
X155500000Y-136883390D02*
X155452381Y-136931009D01*
X155452381Y-136931009D02*
X155357143Y-136978628D01*
X155357143Y-136978628D02*
X154976191Y-136978628D01*
X155976191Y-137454819D02*
X155976191Y-136454819D01*
X155976191Y-136454819D02*
X156214286Y-136454819D01*
X156214286Y-136454819D02*
X156357143Y-136502438D01*
X156357143Y-136502438D02*
X156452381Y-136597676D01*
X156452381Y-136597676D02*
X156500000Y-136692914D01*
X156500000Y-136692914D02*
X156547619Y-136883390D01*
X156547619Y-136883390D02*
X156547619Y-137026247D01*
X156547619Y-137026247D02*
X156500000Y-137216723D01*
X156500000Y-137216723D02*
X156452381Y-137311961D01*
X156452381Y-137311961D02*
X156357143Y-137407200D01*
X156357143Y-137407200D02*
X156214286Y-137454819D01*
X156214286Y-137454819D02*
X155976191Y-137454819D01*
X156976191Y-137454819D02*
X156976191Y-136454819D01*
X156976191Y-136454819D02*
X157309524Y-137169104D01*
X157309524Y-137169104D02*
X157642857Y-136454819D01*
X157642857Y-136454819D02*
X157642857Y-137454819D01*
X158880953Y-137454819D02*
X158880953Y-136454819D01*
X158880953Y-136454819D02*
X159214286Y-137169104D01*
X159214286Y-137169104D02*
X159547619Y-136454819D01*
X159547619Y-136454819D02*
X159547619Y-137454819D01*
X160023810Y-137454819D02*
X160023810Y-136454819D01*
X161071428Y-137359580D02*
X161023809Y-137407200D01*
X161023809Y-137407200D02*
X160880952Y-137454819D01*
X160880952Y-137454819D02*
X160785714Y-137454819D01*
X160785714Y-137454819D02*
X160642857Y-137407200D01*
X160642857Y-137407200D02*
X160547619Y-137311961D01*
X160547619Y-137311961D02*
X160500000Y-137216723D01*
X160500000Y-137216723D02*
X160452381Y-137026247D01*
X160452381Y-137026247D02*
X160452381Y-136883390D01*
X160452381Y-136883390D02*
X160500000Y-136692914D01*
X160500000Y-136692914D02*
X160547619Y-136597676D01*
X160547619Y-136597676D02*
X160642857Y-136502438D01*
X160642857Y-136502438D02*
X160785714Y-136454819D01*
X160785714Y-136454819D02*
X160880952Y-136454819D01*
X160880952Y-136454819D02*
X161023809Y-136502438D01*
X161023809Y-136502438D02*
X161071428Y-136550057D01*
X173547619Y-137454819D02*
X173547619Y-136454819D01*
X173547619Y-136454819D02*
X173785714Y-136454819D01*
X173785714Y-136454819D02*
X173928571Y-136502438D01*
X173928571Y-136502438D02*
X174023809Y-136597676D01*
X174023809Y-136597676D02*
X174071428Y-136692914D01*
X174071428Y-136692914D02*
X174119047Y-136883390D01*
X174119047Y-136883390D02*
X174119047Y-137026247D01*
X174119047Y-137026247D02*
X174071428Y-137216723D01*
X174071428Y-137216723D02*
X174023809Y-137311961D01*
X174023809Y-137311961D02*
X173928571Y-137407200D01*
X173928571Y-137407200D02*
X173785714Y-137454819D01*
X173785714Y-137454819D02*
X173547619Y-137454819D01*
X174547619Y-137454819D02*
X174547619Y-136788152D01*
X174547619Y-136454819D02*
X174500000Y-136502438D01*
X174500000Y-136502438D02*
X174547619Y-136550057D01*
X174547619Y-136550057D02*
X174595238Y-136502438D01*
X174595238Y-136502438D02*
X174547619Y-136454819D01*
X174547619Y-136454819D02*
X174547619Y-136550057D01*
X174976190Y-137407200D02*
X175071428Y-137454819D01*
X175071428Y-137454819D02*
X175261904Y-137454819D01*
X175261904Y-137454819D02*
X175357142Y-137407200D01*
X175357142Y-137407200D02*
X175404761Y-137311961D01*
X175404761Y-137311961D02*
X175404761Y-137264342D01*
X175404761Y-137264342D02*
X175357142Y-137169104D01*
X175357142Y-137169104D02*
X175261904Y-137121485D01*
X175261904Y-137121485D02*
X175119047Y-137121485D01*
X175119047Y-137121485D02*
X175023809Y-137073866D01*
X175023809Y-137073866D02*
X174976190Y-136978628D01*
X174976190Y-136978628D02*
X174976190Y-136931009D01*
X174976190Y-136931009D02*
X175023809Y-136835771D01*
X175023809Y-136835771D02*
X175119047Y-136788152D01*
X175119047Y-136788152D02*
X175261904Y-136788152D01*
X175261904Y-136788152D02*
X175357142Y-136835771D01*
X175833333Y-136788152D02*
X175833333Y-137788152D01*
X175833333Y-136835771D02*
X175928571Y-136788152D01*
X175928571Y-136788152D02*
X176119047Y-136788152D01*
X176119047Y-136788152D02*
X176214285Y-136835771D01*
X176214285Y-136835771D02*
X176261904Y-136883390D01*
X176261904Y-136883390D02*
X176309523Y-136978628D01*
X176309523Y-136978628D02*
X176309523Y-137264342D01*
X176309523Y-137264342D02*
X176261904Y-137359580D01*
X176261904Y-137359580D02*
X176214285Y-137407200D01*
X176214285Y-137407200D02*
X176119047Y-137454819D01*
X176119047Y-137454819D02*
X175928571Y-137454819D01*
X175928571Y-137454819D02*
X175833333Y-137407200D01*
X176880952Y-137454819D02*
X176785714Y-137407200D01*
X176785714Y-137407200D02*
X176738095Y-137311961D01*
X176738095Y-137311961D02*
X176738095Y-136454819D01*
X177690476Y-137454819D02*
X177690476Y-136931009D01*
X177690476Y-136931009D02*
X177642857Y-136835771D01*
X177642857Y-136835771D02*
X177547619Y-136788152D01*
X177547619Y-136788152D02*
X177357143Y-136788152D01*
X177357143Y-136788152D02*
X177261905Y-136835771D01*
X177690476Y-137407200D02*
X177595238Y-137454819D01*
X177595238Y-137454819D02*
X177357143Y-137454819D01*
X177357143Y-137454819D02*
X177261905Y-137407200D01*
X177261905Y-137407200D02*
X177214286Y-137311961D01*
X177214286Y-137311961D02*
X177214286Y-137216723D01*
X177214286Y-137216723D02*
X177261905Y-137121485D01*
X177261905Y-137121485D02*
X177357143Y-137073866D01*
X177357143Y-137073866D02*
X177595238Y-137073866D01*
X177595238Y-137073866D02*
X177690476Y-137026247D01*
X178071429Y-136788152D02*
X178309524Y-137454819D01*
X178547619Y-136788152D02*
X178309524Y-137454819D01*
X178309524Y-137454819D02*
X178214286Y-137692914D01*
X178214286Y-137692914D02*
X178166667Y-137740533D01*
X178166667Y-137740533D02*
X178071429Y-137788152D01*
X124868643Y-134774567D02*
X124296223Y-134673552D01*
X124464582Y-135178628D02*
X123757475Y-134471521D01*
X123757475Y-134471521D02*
X124026849Y-134202147D01*
X124026849Y-134202147D02*
X124127865Y-134168475D01*
X124127865Y-134168475D02*
X124195208Y-134168475D01*
X124195208Y-134168475D02*
X124296223Y-134202147D01*
X124296223Y-134202147D02*
X124397239Y-134303163D01*
X124397239Y-134303163D02*
X124430910Y-134404178D01*
X124430910Y-134404178D02*
X124430910Y-134471521D01*
X124430910Y-134471521D02*
X124397239Y-134572537D01*
X124397239Y-134572537D02*
X124127865Y-134841911D01*
X125474735Y-134168475D02*
X125104346Y-133798086D01*
X125104346Y-133798086D02*
X125003330Y-133764414D01*
X125003330Y-133764414D02*
X124902315Y-133798086D01*
X124902315Y-133798086D02*
X124767628Y-133932773D01*
X124767628Y-133932773D02*
X124733956Y-134033788D01*
X125441063Y-134134804D02*
X125407391Y-134235819D01*
X125407391Y-134235819D02*
X125239033Y-134404178D01*
X125239033Y-134404178D02*
X125138017Y-134437850D01*
X125138017Y-134437850D02*
X125037002Y-134404178D01*
X125037002Y-134404178D02*
X124969658Y-134336834D01*
X124969658Y-134336834D02*
X124935987Y-134235819D01*
X124935987Y-134235819D02*
X124969658Y-134134804D01*
X124969658Y-134134804D02*
X125138017Y-133966445D01*
X125138017Y-133966445D02*
X125171689Y-133865430D01*
X125744109Y-133831758D02*
X125845124Y-133798086D01*
X125845124Y-133798086D02*
X125979811Y-133663399D01*
X125979811Y-133663399D02*
X126013483Y-133562384D01*
X126013483Y-133562384D02*
X125979811Y-133461369D01*
X125979811Y-133461369D02*
X125946139Y-133427697D01*
X125946139Y-133427697D02*
X125845124Y-133394025D01*
X125845124Y-133394025D02*
X125744109Y-133427697D01*
X125744109Y-133427697D02*
X125643094Y-133528712D01*
X125643094Y-133528712D02*
X125542078Y-133562384D01*
X125542078Y-133562384D02*
X125441063Y-133528712D01*
X125441063Y-133528712D02*
X125407391Y-133495040D01*
X125407391Y-133495040D02*
X125373720Y-133394025D01*
X125373720Y-133394025D02*
X125407391Y-133293010D01*
X125407391Y-133293010D02*
X125508407Y-133191995D01*
X125508407Y-133191995D02*
X125609422Y-133158323D01*
X126215514Y-132013483D02*
X126787933Y-132585903D01*
X126787933Y-132585903D02*
X126888949Y-132619575D01*
X126888949Y-132619575D02*
X126956292Y-132619575D01*
X126956292Y-132619575D02*
X127057307Y-132585903D01*
X127057307Y-132585903D02*
X127191994Y-132451216D01*
X127191994Y-132451216D02*
X127225666Y-132350201D01*
X127225666Y-132350201D02*
X127225666Y-132282857D01*
X127225666Y-132282857D02*
X127191994Y-132181842D01*
X127191994Y-132181842D02*
X126619575Y-131609422D01*
X127427697Y-131811453D02*
X127764414Y-131474735D01*
X127562384Y-132080827D02*
X127090979Y-131138018D01*
X127090979Y-131138018D02*
X128033788Y-131609422D01*
X128673552Y-130969659D02*
X128101132Y-130868643D01*
X128269491Y-131373720D02*
X127562384Y-130666613D01*
X127562384Y-130666613D02*
X127831758Y-130397239D01*
X127831758Y-130397239D02*
X127932773Y-130363567D01*
X127932773Y-130363567D02*
X128000117Y-130363567D01*
X128000117Y-130363567D02*
X128101132Y-130397239D01*
X128101132Y-130397239D02*
X128202147Y-130498254D01*
X128202147Y-130498254D02*
X128235819Y-130599269D01*
X128235819Y-130599269D02*
X128235819Y-130666613D01*
X128235819Y-130666613D02*
X128202147Y-130767628D01*
X128202147Y-130767628D02*
X127932773Y-131037002D01*
X128168475Y-130060521D02*
X128572536Y-129656460D01*
X129077613Y-130565598D02*
X128370506Y-129858491D01*
X141857143Y-137454819D02*
X141857143Y-136454819D01*
X141857143Y-136454819D02*
X142190476Y-137169104D01*
X142190476Y-137169104D02*
X142523809Y-136454819D01*
X142523809Y-136454819D02*
X142523809Y-137454819D01*
X142952381Y-137169104D02*
X143428571Y-137169104D01*
X142857143Y-137454819D02*
X143190476Y-136454819D01*
X143190476Y-136454819D02*
X143523809Y-137454819D01*
X143761905Y-136454819D02*
X144428571Y-137454819D01*
X144428571Y-136454819D02*
X143761905Y-137454819D01*
X144857143Y-137454819D02*
X145047619Y-137454819D01*
X145047619Y-137454819D02*
X145142857Y-137407200D01*
X145142857Y-137407200D02*
X145190476Y-137359580D01*
X145190476Y-137359580D02*
X145285714Y-137216723D01*
X145285714Y-137216723D02*
X145333333Y-137026247D01*
X145333333Y-137026247D02*
X145333333Y-136645295D01*
X145333333Y-136645295D02*
X145285714Y-136550057D01*
X145285714Y-136550057D02*
X145238095Y-136502438D01*
X145238095Y-136502438D02*
X145142857Y-136454819D01*
X145142857Y-136454819D02*
X144952381Y-136454819D01*
X144952381Y-136454819D02*
X144857143Y-136502438D01*
X144857143Y-136502438D02*
X144809524Y-136550057D01*
X144809524Y-136550057D02*
X144761905Y-136645295D01*
X144761905Y-136645295D02*
X144761905Y-136883390D01*
X144761905Y-136883390D02*
X144809524Y-136978628D01*
X144809524Y-136978628D02*
X144857143Y-137026247D01*
X144857143Y-137026247D02*
X144952381Y-137073866D01*
X144952381Y-137073866D02*
X145142857Y-137073866D01*
X145142857Y-137073866D02*
X145238095Y-137026247D01*
X145238095Y-137026247D02*
X145285714Y-136978628D01*
X145285714Y-136978628D02*
X145333333Y-136883390D01*
X145904762Y-136883390D02*
X145809524Y-136835771D01*
X145809524Y-136835771D02*
X145761905Y-136788152D01*
X145761905Y-136788152D02*
X145714286Y-136692914D01*
X145714286Y-136692914D02*
X145714286Y-136645295D01*
X145714286Y-136645295D02*
X145761905Y-136550057D01*
X145761905Y-136550057D02*
X145809524Y-136502438D01*
X145809524Y-136502438D02*
X145904762Y-136454819D01*
X145904762Y-136454819D02*
X146095238Y-136454819D01*
X146095238Y-136454819D02*
X146190476Y-136502438D01*
X146190476Y-136502438D02*
X146238095Y-136550057D01*
X146238095Y-136550057D02*
X146285714Y-136645295D01*
X146285714Y-136645295D02*
X146285714Y-136692914D01*
X146285714Y-136692914D02*
X146238095Y-136788152D01*
X146238095Y-136788152D02*
X146190476Y-136835771D01*
X146190476Y-136835771D02*
X146095238Y-136883390D01*
X146095238Y-136883390D02*
X145904762Y-136883390D01*
X145904762Y-136883390D02*
X145809524Y-136931009D01*
X145809524Y-136931009D02*
X145761905Y-136978628D01*
X145761905Y-136978628D02*
X145714286Y-137073866D01*
X145714286Y-137073866D02*
X145714286Y-137264342D01*
X145714286Y-137264342D02*
X145761905Y-137359580D01*
X145761905Y-137359580D02*
X145809524Y-137407200D01*
X145809524Y-137407200D02*
X145904762Y-137454819D01*
X145904762Y-137454819D02*
X146095238Y-137454819D01*
X146095238Y-137454819D02*
X146190476Y-137407200D01*
X146190476Y-137407200D02*
X146238095Y-137359580D01*
X146238095Y-137359580D02*
X146285714Y-137264342D01*
X146285714Y-137264342D02*
X146285714Y-137073866D01*
X146285714Y-137073866D02*
X146238095Y-136978628D01*
X146238095Y-136978628D02*
X146190476Y-136931009D01*
X146190476Y-136931009D02*
X146095238Y-136883390D01*
X147238095Y-137454819D02*
X146666667Y-137454819D01*
X146952381Y-137454819D02*
X146952381Y-136454819D01*
X146952381Y-136454819D02*
X146857143Y-136597676D01*
X146857143Y-136597676D02*
X146761905Y-136692914D01*
X146761905Y-136692914D02*
X146666667Y-136740533D01*
X148142857Y-136454819D02*
X147666667Y-136454819D01*
X147666667Y-136454819D02*
X147619048Y-136931009D01*
X147619048Y-136931009D02*
X147666667Y-136883390D01*
X147666667Y-136883390D02*
X147761905Y-136835771D01*
X147761905Y-136835771D02*
X148000000Y-136835771D01*
X148000000Y-136835771D02*
X148095238Y-136883390D01*
X148095238Y-136883390D02*
X148142857Y-136931009D01*
X148142857Y-136931009D02*
X148190476Y-137026247D01*
X148190476Y-137026247D02*
X148190476Y-137264342D01*
X148190476Y-137264342D02*
X148142857Y-137359580D01*
X148142857Y-137359580D02*
X148095238Y-137407200D01*
X148095238Y-137407200D02*
X148000000Y-137454819D01*
X148000000Y-137454819D02*
X147761905Y-137454819D01*
X147761905Y-137454819D02*
X147666667Y-137407200D01*
X147666667Y-137407200D02*
X147619048Y-137359580D01*
X134590575Y-90871321D02*
X134638194Y-90728464D01*
X134638194Y-90728464D02*
X134638194Y-90490369D01*
X134638194Y-90490369D02*
X134590575Y-90395131D01*
X134590575Y-90395131D02*
X134542955Y-90347512D01*
X134542955Y-90347512D02*
X134447717Y-90299893D01*
X134447717Y-90299893D02*
X134352479Y-90299893D01*
X134352479Y-90299893D02*
X134257241Y-90347512D01*
X134257241Y-90347512D02*
X134209622Y-90395131D01*
X134209622Y-90395131D02*
X134162003Y-90490369D01*
X134162003Y-90490369D02*
X134114384Y-90680845D01*
X134114384Y-90680845D02*
X134066765Y-90776083D01*
X134066765Y-90776083D02*
X134019146Y-90823702D01*
X134019146Y-90823702D02*
X133923908Y-90871321D01*
X133923908Y-90871321D02*
X133828670Y-90871321D01*
X133828670Y-90871321D02*
X133733432Y-90823702D01*
X133733432Y-90823702D02*
X133685813Y-90776083D01*
X133685813Y-90776083D02*
X133638194Y-90680845D01*
X133638194Y-90680845D02*
X133638194Y-90442750D01*
X133638194Y-90442750D02*
X133685813Y-90299893D01*
X133638194Y-90014178D02*
X133638194Y-89442750D01*
X134638194Y-89728464D02*
X133638194Y-89728464D01*
X134257241Y-89109416D02*
X134257241Y-88347512D01*
X134638194Y-87395131D02*
X134638194Y-87871321D01*
X134638194Y-87871321D02*
X133638194Y-87871321D01*
X134638194Y-87061797D02*
X133971527Y-87061797D01*
X133638194Y-87061797D02*
X133685813Y-87109416D01*
X133685813Y-87109416D02*
X133733432Y-87061797D01*
X133733432Y-87061797D02*
X133685813Y-87014178D01*
X133685813Y-87014178D02*
X133638194Y-87061797D01*
X133638194Y-87061797D02*
X133733432Y-87061797D01*
X133971527Y-86585607D02*
X134638194Y-86585607D01*
X134066765Y-86585607D02*
X134019146Y-86537988D01*
X134019146Y-86537988D02*
X133971527Y-86442750D01*
X133971527Y-86442750D02*
X133971527Y-86299893D01*
X133971527Y-86299893D02*
X134019146Y-86204655D01*
X134019146Y-86204655D02*
X134114384Y-86157036D01*
X134114384Y-86157036D02*
X134638194Y-86157036D01*
X134638194Y-85680845D02*
X133638194Y-85680845D01*
X134257241Y-85585607D02*
X134638194Y-85299893D01*
X133971527Y-85299893D02*
X134352479Y-85680845D01*
X156664772Y-102307983D02*
X157371879Y-101600877D01*
X157371879Y-101600877D02*
X157540238Y-101769235D01*
X157540238Y-101769235D02*
X157607581Y-101903922D01*
X157607581Y-101903922D02*
X157607581Y-102038609D01*
X157607581Y-102038609D02*
X157573909Y-102139625D01*
X157573909Y-102139625D02*
X157472894Y-102307983D01*
X157472894Y-102307983D02*
X157371879Y-102408999D01*
X157371879Y-102408999D02*
X157203520Y-102510014D01*
X157203520Y-102510014D02*
X157102505Y-102543686D01*
X157102505Y-102543686D02*
X156967818Y-102543686D01*
X156967818Y-102543686D02*
X156833131Y-102476342D01*
X156833131Y-102476342D02*
X156664772Y-102307983D01*
X157674925Y-103250792D02*
X157573909Y-103217121D01*
X157573909Y-103217121D02*
X157439222Y-103082434D01*
X157439222Y-103082434D02*
X157405551Y-102981418D01*
X157405551Y-102981418D02*
X157439222Y-102880403D01*
X157439222Y-102880403D02*
X157708596Y-102611029D01*
X157708596Y-102611029D02*
X157809612Y-102577357D01*
X157809612Y-102577357D02*
X157910627Y-102611029D01*
X157910627Y-102611029D02*
X158045314Y-102745716D01*
X158045314Y-102745716D02*
X158078986Y-102846731D01*
X158078986Y-102846731D02*
X158045314Y-102947747D01*
X158045314Y-102947747D02*
X157977970Y-103015090D01*
X157977970Y-103015090D02*
X157573909Y-102745716D01*
X157977971Y-103621182D02*
X158685077Y-102914075D01*
X158415703Y-103183449D02*
X158516719Y-103217121D01*
X158516719Y-103217121D02*
X158651406Y-103351808D01*
X158651406Y-103351808D02*
X158685077Y-103452823D01*
X158685077Y-103452823D02*
X158685077Y-103520167D01*
X158685077Y-103520167D02*
X158651406Y-103621182D01*
X158651406Y-103621182D02*
X158449375Y-103823212D01*
X158449375Y-103823212D02*
X158348360Y-103856884D01*
X158348360Y-103856884D02*
X158281016Y-103856884D01*
X158281016Y-103856884D02*
X158180001Y-103823212D01*
X158180001Y-103823212D02*
X158045314Y-103688525D01*
X158045314Y-103688525D02*
X158011642Y-103587510D01*
X159392184Y-104092586D02*
X158920780Y-104563991D01*
X159089138Y-103789541D02*
X158718749Y-104159930D01*
X158718749Y-104159930D02*
X158685077Y-104260945D01*
X158685077Y-104260945D02*
X158718749Y-104361960D01*
X158718749Y-104361960D02*
X158819764Y-104462976D01*
X158819764Y-104462976D02*
X158920780Y-104496647D01*
X158920780Y-104496647D02*
X158988123Y-104496647D01*
X160031947Y-104732350D02*
X159459528Y-105304769D01*
X159459528Y-105304769D02*
X159358512Y-105338441D01*
X159358512Y-105338441D02*
X159291169Y-105338441D01*
X159291169Y-105338441D02*
X159190154Y-105304769D01*
X159190154Y-105304769D02*
X159089138Y-105203754D01*
X159089138Y-105203754D02*
X159055467Y-105102739D01*
X159594215Y-105170082D02*
X159493199Y-105136411D01*
X159493199Y-105136411D02*
X159358512Y-105001724D01*
X159358512Y-105001724D02*
X159324841Y-104900708D01*
X159324841Y-104900708D02*
X159324841Y-104833365D01*
X159324841Y-104833365D02*
X159358512Y-104732350D01*
X159358512Y-104732350D02*
X159560543Y-104530319D01*
X159560543Y-104530319D02*
X159661558Y-104496647D01*
X159661558Y-104496647D02*
X159728902Y-104496647D01*
X159728902Y-104496647D02*
X159829917Y-104530319D01*
X159829917Y-104530319D02*
X159964604Y-104665006D01*
X159964604Y-104665006D02*
X159998276Y-104766021D01*
X161143116Y-105372113D02*
X160570696Y-105944533D01*
X160570696Y-105944533D02*
X160537024Y-106045548D01*
X160537024Y-106045548D02*
X160537024Y-106112892D01*
X160537024Y-106112892D02*
X160570696Y-106213907D01*
X160570696Y-106213907D02*
X160705383Y-106348594D01*
X160705383Y-106348594D02*
X160806398Y-106382266D01*
X160806398Y-106382266D02*
X160873742Y-106382266D01*
X160873742Y-106382266D02*
X160974757Y-106348594D01*
X160974757Y-106348594D02*
X161547177Y-105776174D01*
X161345146Y-106584296D02*
X161681864Y-106921014D01*
X161075772Y-106718983D02*
X162018581Y-106247579D01*
X162018581Y-106247579D02*
X161547177Y-107190388D01*
X162186940Y-107830151D02*
X162287955Y-107257731D01*
X161782879Y-107426090D02*
X162489986Y-106718983D01*
X162489986Y-106718983D02*
X162759360Y-106988357D01*
X162759360Y-106988357D02*
X162793031Y-107089373D01*
X162793031Y-107089373D02*
X162793031Y-107156716D01*
X162793031Y-107156716D02*
X162759360Y-107257731D01*
X162759360Y-107257731D02*
X162658344Y-107358747D01*
X162658344Y-107358747D02*
X162557329Y-107392418D01*
X162557329Y-107392418D02*
X162489986Y-107392418D01*
X162489986Y-107392418D02*
X162388970Y-107358747D01*
X162388970Y-107358747D02*
X162119596Y-107089373D01*
X163096077Y-107325075D02*
X163500138Y-107729136D01*
X162591001Y-108234212D02*
X163298108Y-107527105D01*
X154988102Y-130655108D02*
X154280995Y-129948001D01*
X154280995Y-129948001D02*
X154550369Y-129678627D01*
X154550369Y-129678627D02*
X154651384Y-129644955D01*
X154651384Y-129644955D02*
X154718728Y-129644955D01*
X154718728Y-129644955D02*
X154819743Y-129678627D01*
X154819743Y-129678627D02*
X154920758Y-129779642D01*
X154920758Y-129779642D02*
X154954430Y-129880657D01*
X154954430Y-129880657D02*
X154954430Y-129948001D01*
X154954430Y-129948001D02*
X154920758Y-130049016D01*
X154920758Y-130049016D02*
X154651384Y-130318390D01*
X155695208Y-129948001D02*
X154988102Y-129240894D01*
X154988102Y-129240894D02*
X155156460Y-129072535D01*
X155156460Y-129072535D02*
X155291147Y-129005192D01*
X155291147Y-129005192D02*
X155425834Y-129005192D01*
X155425834Y-129005192D02*
X155526850Y-129038863D01*
X155526850Y-129038863D02*
X155695208Y-129139879D01*
X155695208Y-129139879D02*
X155796224Y-129240894D01*
X155796224Y-129240894D02*
X155897239Y-129409253D01*
X155897239Y-129409253D02*
X155930911Y-129510268D01*
X155930911Y-129510268D02*
X155930911Y-129644955D01*
X155930911Y-129644955D02*
X155863567Y-129779642D01*
X155863567Y-129779642D02*
X155695208Y-129948001D01*
X156402315Y-129240894D02*
X155695208Y-128533787D01*
X155695208Y-128533787D02*
X156435987Y-128803161D01*
X156435987Y-128803161D02*
X156166613Y-128062383D01*
X156166613Y-128062383D02*
X156873720Y-128769489D01*
X157749185Y-127894024D02*
X157042079Y-127186917D01*
X157042079Y-127186917D02*
X157782857Y-127456291D01*
X157782857Y-127456291D02*
X157513483Y-126715513D01*
X157513483Y-126715513D02*
X158220590Y-127422619D01*
X158557307Y-127085902D02*
X157850201Y-126378795D01*
X159230742Y-126277780D02*
X159230742Y-126345124D01*
X159230742Y-126345124D02*
X159163399Y-126479811D01*
X159163399Y-126479811D02*
X159096055Y-126547154D01*
X159096055Y-126547154D02*
X158961368Y-126614498D01*
X158961368Y-126614498D02*
X158826681Y-126614498D01*
X158826681Y-126614498D02*
X158725666Y-126580826D01*
X158725666Y-126580826D02*
X158557307Y-126479811D01*
X158557307Y-126479811D02*
X158456292Y-126378795D01*
X158456292Y-126378795D02*
X158355276Y-126210437D01*
X158355276Y-126210437D02*
X158321605Y-126109421D01*
X158321605Y-126109421D02*
X158321605Y-125974734D01*
X158321605Y-125974734D02*
X158388948Y-125840047D01*
X158388948Y-125840047D02*
X158456292Y-125772704D01*
X158456292Y-125772704D02*
X158590979Y-125705360D01*
X158590979Y-125705360D02*
X158658322Y-125705360D01*
X159769490Y-125132941D02*
X160005192Y-124897238D01*
X160476597Y-125166612D02*
X160139879Y-125503330D01*
X160139879Y-125503330D02*
X159432773Y-124796223D01*
X159432773Y-124796223D02*
X159769490Y-124459505D01*
X160005193Y-124223803D02*
X161183704Y-124459505D01*
X160476597Y-123752399D02*
X160712299Y-124930910D01*
X160644956Y-123584040D02*
X161049017Y-123179979D01*
X161554093Y-124089116D02*
X160846986Y-123382009D01*
D12*
%TO.C,C2*%
X161343375Y-87439341D02*
X161343375Y-87731875D01*
X162363375Y-87439341D02*
X162363375Y-87731875D01*
%TO.C,C9*%
X122417000Y-115214438D02*
X122210147Y-115007585D01*
X123138249Y-114493189D02*
X122931396Y-114286336D01*
%TO.C,C13*%
X171343375Y-98076840D02*
X171343375Y-98369374D01*
X172363375Y-98076840D02*
X172363375Y-98369374D01*
%TO.C,R8*%
X111118375Y-88312672D02*
X111118375Y-87858544D01*
X112588375Y-88312672D02*
X112588375Y-87858544D01*
%TO.C,J7*%
X174023375Y-143255608D02*
X175353375Y-143255608D01*
X174023375Y-144585608D02*
X174023375Y-143255608D01*
X174023375Y-145855608D02*
X174023375Y-145915608D01*
X174023375Y-145855608D02*
X176683375Y-145855608D01*
X174023375Y-145915608D02*
X176683375Y-145915608D01*
X176683375Y-145855608D02*
X176683375Y-145915608D01*
%TO.C,J8*%
X183523375Y-111175608D02*
X184853375Y-111175608D01*
X183523375Y-112505608D02*
X183523375Y-111175608D01*
X183523375Y-113775608D02*
X183523375Y-121455608D01*
X183523375Y-113775608D02*
X186183375Y-113775608D01*
X183523375Y-121455608D02*
X186183375Y-121455608D01*
X186183375Y-113775608D02*
X186183375Y-121455608D01*
%TO.C,C4*%
X152343375Y-87439341D02*
X152343375Y-87731875D01*
X153363375Y-87439341D02*
X153363375Y-87731875D01*
%TO.C,R2*%
X121118375Y-98812672D02*
X121118375Y-98358544D01*
X122588375Y-98812672D02*
X122588375Y-98358544D01*
%TO.C,J4*%
X152148375Y-140915608D02*
X152148375Y-139585608D01*
X153478375Y-140915608D02*
X152148375Y-140915608D01*
X154748376Y-138255608D02*
X164968375Y-138255608D01*
X154748376Y-140915608D02*
X154748376Y-138255608D01*
X154748376Y-140915608D02*
X164968375Y-140915608D01*
X164968375Y-140915608D02*
X164968375Y-138255608D01*
%TO.C,J11*%
X182753375Y-87915608D02*
X181053375Y-87915608D01*
X182753375Y-97255608D02*
X181053375Y-97255608D01*
%TO.C,C15*%
X147707108Y-128575608D02*
X147999642Y-128575608D01*
X147707108Y-129595608D02*
X147999642Y-129595608D01*
D13*
%TO.C,SW2*%
X110775974Y-94283210D02*
X110775974Y-100938010D01*
X112886137Y-100938010D02*
X115320611Y-100938010D01*
X115320611Y-94283210D02*
X112886137Y-94283210D01*
X117430774Y-100938010D02*
X117430774Y-94283210D01*
X112056573Y-103249609D02*
G75*
G02*
X111650173Y-103249609I-203200J0D01*
G01*
X111650173Y-103249609D02*
G75*
G02*
X112056573Y-103249609I203200J0D01*
G01*
D12*
%TO.C,C20*%
X139618376Y-87594355D02*
X139618376Y-88116861D01*
X141088376Y-87594355D02*
X141088376Y-88116861D01*
%TO.C,C5*%
X155343375Y-87439341D02*
X155343375Y-87731875D01*
X156363375Y-87439341D02*
X156363375Y-87731875D01*
%TO.C,J6*%
X166148375Y-140915608D02*
X166148375Y-139585608D01*
X167478375Y-140915608D02*
X166148375Y-140915608D01*
X168748376Y-138255608D02*
X186588376Y-138255608D01*
X168748376Y-140915608D02*
X168748376Y-138255608D01*
X168748376Y-140915608D02*
X186588376Y-140915608D01*
X186588376Y-140915608D02*
X186588376Y-138255608D01*
%TO.C,R5*%
X173580439Y-89350608D02*
X173126311Y-89350608D01*
X173580439Y-90820608D02*
X173126311Y-90820608D01*
%TO.C,C1*%
X146343375Y-87439341D02*
X146343375Y-87731875D01*
X147363375Y-87439341D02*
X147363375Y-87731875D01*
D13*
%TO.C,CR5*%
X166560218Y-101747253D02*
X166764968Y-101952002D01*
X167486981Y-102674015D02*
X167691730Y-102878765D01*
X167691730Y-102878765D02*
X169146532Y-101423963D01*
X168015020Y-100292451D02*
X166560218Y-101747253D01*
X168219769Y-100497201D02*
X168015020Y-100292451D01*
X169146532Y-101423963D02*
X168941782Y-101219214D01*
%TO.C,U2*%
X155395382Y-92708734D02*
X153976501Y-94127615D01*
X156311368Y-96462482D02*
X157730249Y-95043601D01*
D12*
%TO.C,C14*%
X143118376Y-87594355D02*
X143118376Y-88116861D01*
X144588376Y-87594355D02*
X144588376Y-88116861D01*
%TO.C,C19*%
X152863375Y-144846861D02*
X152863375Y-144324355D01*
X154333375Y-144846861D02*
X154333375Y-144324355D01*
%TO.C,C10*%
X125889324Y-118842806D02*
X126096177Y-119049659D01*
X126610573Y-118121557D02*
X126817426Y-118328410D01*
D13*
%TO.C,CR16*%
X163298275Y-143556908D02*
X163298275Y-145614308D01*
X163298275Y-145614308D02*
X163587835Y-145614308D01*
X163587835Y-143556908D02*
X163298275Y-143556908D01*
X164608915Y-145614308D02*
X164898475Y-145614308D01*
X164898475Y-143556908D02*
X164608915Y-143556908D01*
X164898475Y-145614308D02*
X164898475Y-143556908D01*
%TO.C,CR1*%
X168373575Y-82604408D02*
X168373575Y-86566808D01*
X168373575Y-86566808D02*
X175333175Y-86566808D01*
X175333175Y-82604408D02*
X168373575Y-82604408D01*
X175333175Y-86566808D02*
X175333175Y-82604408D01*
X167357575Y-88230508D02*
G75*
G02*
X167103575Y-88230508I-127000J0D01*
G01*
X167103575Y-88230508D02*
G75*
G02*
X167357575Y-88230508I127000J0D01*
G01*
%TO.C,CR14*%
X128053275Y-81556908D02*
X128053275Y-83614308D01*
X128053275Y-83614308D02*
X128342835Y-83614308D01*
X128342835Y-81556908D02*
X128053275Y-81556908D01*
X129363915Y-83614308D02*
X129653475Y-83614308D01*
X129653475Y-81556908D02*
X129363915Y-81556908D01*
X129653475Y-83614308D02*
X129653475Y-81556908D01*
D12*
%TO.C,R6*%
X119118375Y-88312672D02*
X119118375Y-87858544D01*
X120588375Y-88312672D02*
X120588375Y-87858544D01*
%TO.C,J3*%
X126880369Y-134493506D02*
X127820821Y-133553054D01*
X127820821Y-135433958D02*
X126880369Y-134493506D01*
X128718847Y-136331984D02*
X130599751Y-134451080D01*
X128718847Y-136331984D02*
X132353375Y-139966512D01*
X130599751Y-134451080D02*
X134234279Y-138085608D01*
X132353375Y-139966512D02*
X134234279Y-138085608D01*
%TO.C,J2*%
X138263375Y-138255608D02*
X138263375Y-140915608D01*
X148483375Y-138255608D02*
X138263375Y-138255608D01*
X148483375Y-138255608D02*
X148483375Y-140915608D01*
X148483375Y-140915608D02*
X138263375Y-140915608D01*
X149753375Y-138255608D02*
X151083375Y-138255608D01*
X151083375Y-138255608D02*
X151083375Y-139585608D01*
D13*
%TO.C,XTAL1*%
X129163572Y-111481582D02*
X130232060Y-112550070D01*
X131543178Y-111238952D02*
X130474690Y-110170464D01*
X128633523Y-109564216D02*
G75*
G02*
X128481125Y-109564216I-76199J0D01*
G01*
X128481125Y-109564216D02*
G75*
G02*
X128633523Y-109564216I76199J0D01*
G01*
D14*
%TO.C,U1*%
X140347993Y-106085608D02*
X146853375Y-99580226D01*
X146853375Y-99580226D02*
X153358757Y-106085608D01*
X146853375Y-112590990D02*
X140347993Y-106085608D01*
X153358757Y-106085608D02*
X146853375Y-112590990D01*
X139528754Y-107004847D02*
G75*
G02*
X139328754Y-107004847I-100000J0D01*
G01*
X139328754Y-107004847D02*
G75*
G02*
X139528754Y-107004847I100000J0D01*
G01*
X139599464Y-106934136D02*
G75*
G02*
X139399464Y-106934136I-100000J0D01*
G01*
X139399464Y-106934136D02*
G75*
G02*
X139599464Y-106934136I100000J0D01*
G01*
X139640883Y-106934136D02*
G75*
G02*
X139358045Y-106934136I-141419J0D01*
G01*
X139358045Y-106934136D02*
G75*
G02*
X139640883Y-106934136I141419J0D01*
G01*
X139640883Y-106934136D02*
G75*
G02*
X139358045Y-106934136I-141419J0D01*
G01*
X139358045Y-106934136D02*
G75*
G02*
X139640883Y-106934136I141419J0D01*
G01*
X139723070Y-106934136D02*
G75*
G02*
X139275858Y-106934136I-223606J0D01*
G01*
X139275858Y-106934136D02*
G75*
G02*
X139723070Y-106934136I223606J0D01*
G01*
X139782305Y-106934136D02*
G75*
G02*
X139216623Y-106934136I-282841J0D01*
G01*
X139216623Y-106934136D02*
G75*
G02*
X139782305Y-106934136I282841J0D01*
G01*
X142286470Y-106227029D02*
G75*
G02*
X142086470Y-106227029I-100000J0D01*
G01*
X142086470Y-106227029D02*
G75*
G02*
X142286470Y-106227029I100000J0D01*
G01*
X142398600Y-106156319D02*
G75*
G02*
X142115762Y-106156319I-141419J0D01*
G01*
X142115762Y-106156319D02*
G75*
G02*
X142398600Y-106156319I141419J0D01*
G01*
X142480787Y-106156319D02*
G75*
G02*
X142033575Y-106156319I-223606J0D01*
G01*
X142033575Y-106156319D02*
G75*
G02*
X142480787Y-106156319I223606J0D01*
G01*
X142540022Y-106156319D02*
G75*
G02*
X141974340Y-106156319I-282841J0D01*
G01*
X141974340Y-106156319D02*
G75*
G02*
X142540022Y-106156319I282841J0D01*
G01*
X142617734Y-106156319D02*
G75*
G02*
X141896628Y-106156319I-360553J0D01*
G01*
X141896628Y-106156319D02*
G75*
G02*
X142617734Y-106156319I360553J0D01*
G01*
X142681443Y-106156319D02*
G75*
G02*
X141832919Y-106156319I-424262J0D01*
G01*
X141832919Y-106156319D02*
G75*
G02*
X142681443Y-106156319I424262J0D01*
G01*
X142757181Y-106156319D02*
G75*
G02*
X141757181Y-106156319I-500000J0D01*
G01*
X141757181Y-106156319D02*
G75*
G02*
X142757181Y-106156319I500000J0D01*
G01*
X142822865Y-106156319D02*
G75*
G02*
X141691497Y-106156319I-565684J0D01*
G01*
X141691497Y-106156319D02*
G75*
G02*
X142822865Y-106156319I565684J0D01*
G01*
X142840275Y-106156319D02*
G75*
G02*
X141674087Y-106156319I-583094J0D01*
G01*
X141674087Y-106156319D02*
G75*
G02*
X142840275Y-106156319I583094J0D01*
G01*
D12*
%TO.C,C6*%
X149343376Y-87439341D02*
X149343376Y-87731875D01*
X150363376Y-87439341D02*
X150363376Y-87731875D01*
D13*
%TO.C,SW1*%
X110775974Y-107783210D02*
X110775974Y-114438010D01*
X112886137Y-114438011D02*
X115320611Y-114438011D01*
X115320611Y-107783209D02*
X112886137Y-107783209D01*
X117430774Y-114438010D02*
X117430774Y-107783210D01*
X112056572Y-116749608D02*
G75*
G02*
X111650174Y-116749608I-203199J0D01*
G01*
X111650174Y-116749608D02*
G75*
G02*
X112056572Y-116749608I203199J0D01*
G01*
D12*
%TO.C,C16*%
X147569608Y-125575608D02*
X147862142Y-125575608D01*
X147569608Y-126595608D02*
X147862142Y-126595608D01*
%TO.C,J10*%
X122903375Y-89415608D02*
X122903375Y-88085608D01*
X124233375Y-89415608D02*
X122903375Y-89415608D01*
X125503375Y-86755608D02*
X133183375Y-86755608D01*
X125503375Y-89415608D02*
X125503375Y-86755608D01*
X125503375Y-89415608D02*
X133183375Y-89415608D01*
X133183375Y-89415608D02*
X133183375Y-86755608D01*
D13*
%TO.C,CR4*%
X125560218Y-139747253D02*
X125764968Y-139952002D01*
X126486981Y-140674015D02*
X126691730Y-140878765D01*
X126691730Y-140878765D02*
X128146532Y-139423963D01*
X127015020Y-138292451D02*
X125560218Y-139747253D01*
X127219769Y-138497201D02*
X127015020Y-138292451D01*
X128146532Y-139423963D02*
X127941782Y-139219214D01*
%TO.C,CR3*%
X123560218Y-137747253D02*
X123764968Y-137952002D01*
X124486981Y-138674015D02*
X124691730Y-138878765D01*
X124691730Y-138878765D02*
X126146532Y-137423963D01*
X125015020Y-136292451D02*
X123560218Y-137747253D01*
X125219769Y-136497201D02*
X125015020Y-136292451D01*
X126146532Y-137423963D02*
X125941782Y-137219214D01*
D12*
%TO.C,R7*%
X115118375Y-88312672D02*
X115118375Y-87858544D01*
X116588375Y-88312672D02*
X116588375Y-87858544D01*
%TO.C,J9*%
X160261273Y-99112602D02*
X158380369Y-100993506D01*
X162014897Y-104628034D02*
X158380369Y-100993506D01*
X163895801Y-102747130D02*
X160261273Y-99112602D01*
X163895801Y-102747130D02*
X162014897Y-104628034D01*
X164793827Y-103645156D02*
X165734279Y-104585608D01*
X165734279Y-104585608D02*
X164793827Y-105526060D01*
%TO.C,C11*%
X130210147Y-122617464D02*
X130417000Y-122824317D01*
X130931396Y-121896215D02*
X131138249Y-122103068D01*
D13*
%TO.C,CR6*%
X164560218Y-99747253D02*
X164764968Y-99952002D01*
X165486981Y-100674015D02*
X165691730Y-100878765D01*
X165691730Y-100878765D02*
X167146532Y-99423963D01*
X166015020Y-98292451D02*
X164560218Y-99747253D01*
X166219769Y-98497201D02*
X166015020Y-98292451D01*
X167146532Y-99423963D02*
X166941782Y-99219214D01*
D12*
%TO.C,R4*%
X173080439Y-93850608D02*
X172626311Y-93850608D01*
X173080439Y-95320608D02*
X172626311Y-95320608D01*
D13*
%TO.C,CR13*%
X125300675Y-81556908D02*
X125300675Y-83614308D01*
X125300675Y-83614308D02*
X125590235Y-83614308D01*
X125590235Y-81556908D02*
X125300675Y-81556908D01*
X126611315Y-83614308D02*
X126900875Y-83614308D01*
X126900875Y-81556908D02*
X126611315Y-81556908D01*
X126900875Y-83614308D02*
X126900875Y-81556908D01*
D12*
%TO.C,C3*%
X158343376Y-87439341D02*
X158343376Y-87731875D01*
X159363376Y-87439341D02*
X159363376Y-87731875D01*
%TO.C,C8*%
X120389324Y-127828410D02*
X120596177Y-127621557D01*
X121110573Y-128549659D02*
X121317426Y-128342806D01*
D13*
%TO.C,CR2*%
X136053276Y-86826908D02*
X136053276Y-88884308D01*
X136053276Y-88884308D02*
X136342836Y-88884308D01*
X136342836Y-86826908D02*
X136053276Y-86826908D01*
X137363916Y-88884308D02*
X137653476Y-88884308D01*
X137653476Y-86826908D02*
X137363916Y-86826908D01*
X137653476Y-88884308D02*
X137653476Y-86826908D01*
D12*
%TO.C,C17*%
X163693404Y-114146886D02*
X163486551Y-113940033D01*
X164414653Y-113425637D02*
X164207800Y-113218784D01*
%TO.C,C7*%
X164343375Y-87439341D02*
X164343375Y-87731875D01*
X165363375Y-87439341D02*
X165363375Y-87731875D01*
D13*
%TO.C,CR18*%
X160298275Y-143556908D02*
X160298275Y-145614308D01*
X160298275Y-145614308D02*
X160587835Y-145614308D01*
X160587835Y-143556908D02*
X160298275Y-143556908D01*
X161608915Y-145614308D02*
X161898475Y-145614308D01*
X161898475Y-143556908D02*
X161608915Y-143556908D01*
X161898475Y-145614308D02*
X161898475Y-143556908D01*
D12*
%TO.C,C18*%
X139088375Y-144301842D02*
X139088375Y-144594376D01*
X140108375Y-144301842D02*
X140108375Y-144594376D01*
%TO.C,C12*%
X134210146Y-126507585D02*
X134416999Y-126714438D01*
X134931395Y-125786336D02*
X135138248Y-125993189D01*
D14*
%TO.C,Y1*%
X132901025Y-115061614D02*
X134329381Y-113633258D01*
X136160787Y-113597903D02*
X142390398Y-119827514D01*
X139095281Y-123122631D02*
X132865670Y-116893020D01*
X142355043Y-121658920D02*
X140926687Y-123087276D01*
X132865670Y-116893020D02*
G75*
G02*
X132901026Y-115061615I933379J898025D01*
G01*
X134329381Y-113633258D02*
G75*
G02*
X136160788Y-113597902I933381J-898024D01*
G01*
X140926687Y-123087276D02*
G75*
G02*
X139095281Y-123122631I-933381J898026D01*
G01*
X142390398Y-119827514D02*
G75*
G02*
X142355043Y-121658920I-933381J-898025D01*
G01*
D12*
%TO.C,R3*%
X116637560Y-124190910D02*
X116958677Y-123869793D01*
X117677007Y-125230357D02*
X117998124Y-124909240D01*
%TO.C,J5*%
X152176420Y-123289557D02*
X153116872Y-122349105D01*
X153116872Y-124230009D02*
X152176420Y-123289557D01*
X154014898Y-125128035D02*
X155853375Y-126966512D01*
X154014898Y-125128035D02*
X155895802Y-123247131D01*
X155853375Y-126966512D02*
X157734279Y-125085608D01*
X155895802Y-123247131D02*
X157734279Y-125085608D01*
%TO.C,R1*%
X160880200Y-116651880D02*
X161201317Y-116972997D01*
X161919647Y-115612433D02*
X162240764Y-115933550D01*
%TD*%
M02*
