%TF.GenerationSoftware,KiCad,Pcbnew,9.0.0*%
%TF.CreationDate,2025-03-24T18:02:28-05:00*%
%TF.ProjectId,Project 2.0,50726f6a-6563-4742-9032-2e302e6b6963,rev?*%
%TF.SameCoordinates,Original*%
%TF.FileFunction,Soldermask,Top*%
%TF.FilePolarity,Negative*%
%FSLAX46Y46*%
G04 Gerber Fmt 4.6, Leading zero omitted, Abs format (unit mm)*
G04 Created by KiCad (PCBNEW 9.0.0) date 2025-03-24 18:02:28*
%MOMM*%
%LPD*%
G01*
G04 APERTURE LIST*
G04 Aperture macros list*
%AMRoundRect*
0 Rectangle with rounded corners*
0 $1 Rounding radius*
0 $2 $3 $4 $5 $6 $7 $8 $9 X,Y pos of 4 corners*
0 Add a 4 corners polygon primitive as box body*
4,1,4,$2,$3,$4,$5,$6,$7,$8,$9,$2,$3,0*
0 Add four circle primitives for the rounded corners*
1,1,$1+$1,$2,$3*
1,1,$1+$1,$4,$5*
1,1,$1+$1,$6,$7*
1,1,$1+$1,$8,$9*
0 Add four rect primitives between the rounded corners*
20,1,$1+$1,$2,$3,$4,$5,0*
20,1,$1+$1,$4,$5,$6,$7,0*
20,1,$1+$1,$6,$7,$8,$9,0*
20,1,$1+$1,$8,$9,$2,$3,0*%
%AMHorizOval*
0 Thick line with rounded ends*
0 $1 width*
0 $2 $3 position (X,Y) of the first rounded end (center of the circle)*
0 $4 $5 position (X,Y) of the second rounded end (center of the circle)*
0 Add line between two ends*
20,1,$1,$2,$3,$4,$5,0*
0 Add two circle primitives to create the rounded ends*
1,1,$1,$2,$3*
1,1,$1,$4,$5*%
%AMRotRect*
0 Rectangle, with rotation*
0 The origin of the aperture is its center*
0 $1 length*
0 $2 width*
0 $3 Rotation angle, in degrees counterclockwise*
0 Add horizontal line*
21,1,$1,$2,0,0,$3*%
G04 Aperture macros list end*
%ADD10C,0.000000*%
%ADD11RoundRect,0.237500X-0.237500X0.300000X-0.237500X-0.300000X0.237500X-0.300000X0.237500X0.300000X0*%
%ADD12RoundRect,0.237500X0.380070X-0.044194X-0.044194X0.380070X-0.380070X0.044194X0.044194X-0.380070X0*%
%ADD13RoundRect,0.250000X0.450000X-0.350000X0.450000X0.350000X-0.450000X0.350000X-0.450000X-0.350000X0*%
%ADD14R,1.700000X1.700000*%
%ADD15O,1.700000X1.700000*%
%ADD16C,0.650000*%
%ADD17RoundRect,0.150000X0.425000X-0.150000X0.425000X0.150000X-0.425000X0.150000X-0.425000X-0.150000X0*%
%ADD18RoundRect,0.075000X0.500000X-0.075000X0.500000X0.075000X-0.500000X0.075000X-0.500000X-0.075000X0*%
%ADD19O,2.100000X1.000000*%
%ADD20O,1.800000X1.000000*%
%ADD21RoundRect,0.237500X-0.300000X-0.237500X0.300000X-0.237500X0.300000X0.237500X-0.300000X0.237500X0*%
%ADD22R,1.400048X1.549908*%
%ADD23RoundRect,0.250000X-0.475000X0.337500X-0.475000X-0.337500X0.475000X-0.337500X0.475000X0.337500X0*%
%ADD24C,3.200000*%
%ADD25RoundRect,0.250000X0.350000X0.450000X-0.350000X0.450000X-0.350000X-0.450000X0.350000X-0.450000X0*%
%ADD26RotRect,0.600700X0.355600X45.000000*%
%ADD27RotRect,0.774700X0.508000X225.000000*%
%ADD28RoundRect,0.250000X0.475000X-0.337500X0.475000X0.337500X-0.475000X0.337500X-0.475000X-0.337500X0*%
%ADD29RoundRect,0.237500X-0.380070X0.044194X0.044194X-0.380070X0.380070X-0.044194X-0.044194X0.380070X0*%
%ADD30R,0.355600X0.600700*%
%ADD31R,0.863600X1.295400*%
%ADD32RotRect,1.700000X1.700000X45.000000*%
%ADD33HorizOval,1.700000X0.000000X0.000000X0.000000X0.000000X0*%
%ADD34RotRect,0.762000X1.244600X315.000000*%
%ADD35RoundRect,0.102000X-0.424264X-0.636396X0.636396X0.424264X0.424264X0.636396X-0.636396X-0.424264X0*%
%ADD36RoundRect,0.102000X0.424264X-0.636396X0.636396X-0.424264X-0.424264X0.636396X-0.636396X0.424264X0*%
%ADD37R,0.787400X0.787400*%
%ADD38RotRect,0.600700X0.355600X225.000000*%
%ADD39RotRect,1.700000X1.700000X225.000000*%
%ADD40HorizOval,1.700000X0.000000X0.000000X0.000000X0.000000X0*%
%ADD41RoundRect,0.237500X-0.044194X-0.380070X0.380070X0.044194X0.044194X0.380070X-0.380070X-0.044194X0*%
%ADD42C,1.234000*%
%ADD43RoundRect,0.250000X0.070711X-0.565685X0.565685X-0.070711X-0.070711X0.565685X-0.565685X0.070711X0*%
%ADD44RoundRect,0.250000X-0.565685X-0.070711X-0.070711X-0.565685X0.565685X0.070711X0.070711X0.565685X0*%
G04 APERTURE END LIST*
D10*
%TO.C,CR1*%
G36*
X173428175Y-82337708D02*
G01*
X170278575Y-82337708D01*
X170278575Y-80635908D01*
X173428175Y-80635908D01*
X173428175Y-82337708D01*
G37*
%TD*%
D11*
%TO.C,C2*%
X161853375Y-86723107D03*
X161853375Y-88448109D03*
%TD*%
D12*
%TO.C,C9*%
X123284078Y-115360267D03*
X122064318Y-114140507D03*
%TD*%
D11*
%TO.C,C13*%
X171853375Y-97360606D03*
X171853375Y-99085608D03*
%TD*%
D13*
%TO.C,R8*%
X111853375Y-89085608D03*
X111853375Y-87085608D03*
%TD*%
D14*
%TO.C,J7*%
X175353375Y-144585608D03*
%TD*%
%TO.C,J8*%
X184853375Y-112505608D03*
D15*
X184853375Y-115045608D03*
X184853375Y-117585608D03*
X184853375Y-120125608D03*
%TD*%
D11*
%TO.C,C4*%
X152853375Y-86723107D03*
X152853375Y-88448109D03*
%TD*%
D13*
%TO.C,R2*%
X121853375Y-99585608D03*
X121853375Y-97585608D03*
%TD*%
D14*
%TO.C,J4*%
X153478375Y-139585608D03*
D15*
X156018375Y-139585608D03*
X158558374Y-139585608D03*
X161098375Y-139585608D03*
X163638375Y-139585608D03*
%TD*%
D16*
%TO.C,J11*%
X180248375Y-95475608D03*
X180248375Y-89695608D03*
D17*
X179173375Y-95785608D03*
X179173375Y-94985608D03*
D18*
X179173376Y-93835608D03*
X179173375Y-92835608D03*
X179173375Y-92335608D03*
X179173376Y-91335608D03*
D17*
X179173375Y-90185608D03*
X179173375Y-89385608D03*
X179173375Y-89385608D03*
X179173375Y-90185608D03*
D18*
X179173375Y-90835608D03*
X179173375Y-91835608D03*
X179173375Y-93335608D03*
X179173375Y-94335608D03*
D17*
X179173375Y-94985608D03*
X179173375Y-95785608D03*
D19*
X179748375Y-96905608D03*
D20*
X183928375Y-96905608D03*
D19*
X179748375Y-88265608D03*
D20*
X183928375Y-88265608D03*
%TD*%
D21*
%TO.C,C15*%
X146990875Y-129085608D03*
X148715875Y-129085608D03*
%TD*%
D22*
%TO.C,SW2*%
X111853373Y-101585608D03*
X116353375Y-101585608D03*
X111853373Y-93635612D03*
X116353375Y-93635612D03*
%TD*%
D23*
%TO.C,C20*%
X140353376Y-86818108D03*
X140353376Y-88893108D03*
%TD*%
D24*
%TO.C,H4*%
X184000000Y-152000000D03*
%TD*%
D11*
%TO.C,C5*%
X155853375Y-86723107D03*
X155853375Y-88448109D03*
%TD*%
D14*
%TO.C,J6*%
X167478375Y-139585608D03*
D15*
X170018375Y-139585608D03*
X172558374Y-139585608D03*
X175098375Y-139585608D03*
X177638375Y-139585608D03*
X180178375Y-139585608D03*
X182718375Y-139585608D03*
X185258376Y-139585608D03*
%TD*%
D25*
%TO.C,R5*%
X174353375Y-90085608D03*
X172353375Y-90085608D03*
%TD*%
D24*
%TO.C,H1*%
X184000000Y-76000000D03*
%TD*%
D11*
%TO.C,C1*%
X146853375Y-86723107D03*
X146853375Y-88448109D03*
%TD*%
D26*
%TO.C,CR5*%
X167003397Y-102435586D03*
X168703353Y-100735630D03*
%TD*%
D27*
%TO.C,U2*%
X157418663Y-94363825D03*
X156746910Y-93692073D03*
X156075158Y-93020320D03*
X154288087Y-94807391D03*
X154959840Y-95479143D03*
X155631592Y-96150896D03*
%TD*%
D23*
%TO.C,C14*%
X143853376Y-86818108D03*
X143853376Y-88893108D03*
%TD*%
D28*
%TO.C,C19*%
X153598375Y-145623108D03*
X153598375Y-143548108D03*
%TD*%
D29*
%TO.C,C10*%
X125743495Y-117975728D03*
X126963255Y-119195488D03*
%TD*%
D30*
%TO.C,CR16*%
X164098375Y-143383558D03*
X164098375Y-145787658D03*
%TD*%
D31*
%TO.C,CR1*%
X169553375Y-87735208D03*
X171853375Y-87735209D03*
X174153375Y-87735208D03*
%TD*%
D30*
%TO.C,CR14*%
X128853375Y-83787658D03*
X128853375Y-81383558D03*
%TD*%
D13*
%TO.C,R6*%
X119853375Y-89085608D03*
X119853375Y-87085608D03*
%TD*%
D32*
%TO.C,J3*%
X128761273Y-134493506D03*
D33*
X130557324Y-136289557D03*
X132353375Y-138085608D03*
%TD*%
D14*
%TO.C,J2*%
X149753375Y-139585608D03*
D15*
X147213375Y-139585608D03*
X144673375Y-139585608D03*
X142133375Y-139585608D03*
X139593375Y-139585608D03*
%TD*%
D34*
%TO.C,XTAL1*%
X129455349Y-110462241D03*
X131251401Y-112258293D03*
%TD*%
D35*
%TO.C,U1*%
X140171216Y-107464466D03*
X140524769Y-107818020D03*
X140878323Y-108171573D03*
X141231876Y-108525126D03*
X141585429Y-108878680D03*
X141938983Y-109232233D03*
X142292536Y-109585787D03*
X142646090Y-109939340D03*
X142999643Y-110292893D03*
X143353196Y-110646447D03*
X143706750Y-111000000D03*
X144060303Y-111353554D03*
X144413857Y-111707107D03*
X144767410Y-112060660D03*
X145120963Y-112414214D03*
X145474517Y-112767767D03*
D36*
X148232233Y-112767767D03*
X148585787Y-112414214D03*
X148939340Y-112060660D03*
X149292893Y-111707107D03*
X149646447Y-111353554D03*
X150000000Y-111000000D03*
X150353554Y-110646447D03*
X150707107Y-110292893D03*
X151060660Y-109939340D03*
X151414214Y-109585787D03*
X151767767Y-109232233D03*
X152121321Y-108878680D03*
X152474874Y-108525126D03*
X152828427Y-108171573D03*
X153181981Y-107818020D03*
X153535534Y-107464466D03*
D35*
X153535534Y-104706750D03*
X153181981Y-104353196D03*
X152828427Y-103999643D03*
X152474874Y-103646090D03*
X152121321Y-103292536D03*
X151767767Y-102938983D03*
X151414214Y-102585429D03*
X151060660Y-102231876D03*
X150707107Y-101878323D03*
X150353554Y-101524769D03*
X150000000Y-101171216D03*
X149646447Y-100817662D03*
X149292893Y-100464109D03*
X148939340Y-100110556D03*
X148585787Y-99757002D03*
X148232233Y-99403449D03*
D36*
X145474517Y-99403449D03*
X145120963Y-99757002D03*
X144767410Y-100110556D03*
X144413857Y-100464109D03*
X144060303Y-100817662D03*
X143706750Y-101171216D03*
X143353196Y-101524769D03*
X142999643Y-101878323D03*
X142646090Y-102231876D03*
X142292536Y-102585429D03*
X141938983Y-102938983D03*
X141585429Y-103292536D03*
X141231876Y-103646090D03*
X140878323Y-103999643D03*
X140524769Y-104353196D03*
X140171216Y-104706750D03*
%TD*%
D11*
%TO.C,C6*%
X149853376Y-86723107D03*
X149853376Y-88448109D03*
%TD*%
D22*
%TO.C,SW1*%
X111853373Y-115085608D03*
X116353375Y-115085608D03*
X111853373Y-107135612D03*
X116353375Y-107135612D03*
%TD*%
D21*
%TO.C,C16*%
X146853375Y-126085608D03*
X148578375Y-126085608D03*
%TD*%
D14*
%TO.C,J10*%
X124233375Y-88085608D03*
D15*
X126773375Y-88085608D03*
X129313375Y-88085608D03*
X131853375Y-88085608D03*
%TD*%
D37*
%TO.C,LED2*%
X115853375Y-81836308D03*
X115853375Y-83334908D03*
%TD*%
D38*
%TO.C,CR4*%
X127703353Y-138735630D03*
X126003397Y-140435586D03*
%TD*%
%TO.C,CR3*%
X125703353Y-136735630D03*
X124003397Y-138435586D03*
%TD*%
D13*
%TO.C,R7*%
X115853375Y-89085608D03*
X115853375Y-87085608D03*
%TD*%
D39*
%TO.C,J9*%
X163853375Y-104585608D03*
D40*
X162057324Y-102789557D03*
X160261273Y-100993506D03*
%TD*%
D29*
%TO.C,C11*%
X130064318Y-121750386D03*
X131284078Y-122970146D03*
%TD*%
D26*
%TO.C,CR6*%
X165003397Y-100435586D03*
X166703353Y-98735630D03*
%TD*%
D24*
%TO.C,H3*%
X113500000Y-152000000D03*
%TD*%
D25*
%TO.C,R4*%
X173853375Y-94585608D03*
X171853375Y-94585608D03*
%TD*%
D30*
%TO.C,CR13*%
X126100775Y-83787658D03*
X126100775Y-81383558D03*
%TD*%
D11*
%TO.C,C3*%
X158853376Y-86723107D03*
X158853376Y-88448109D03*
%TD*%
D41*
%TO.C,C8*%
X120243495Y-128695488D03*
X121463255Y-127475728D03*
%TD*%
D30*
%TO.C,CR2*%
X136853376Y-86653558D03*
X136853376Y-89057658D03*
%TD*%
D12*
%TO.C,C17*%
X164560482Y-114292715D03*
X163340722Y-113072955D03*
%TD*%
D24*
%TO.C,H2*%
X113500000Y-76000000D03*
%TD*%
D37*
%TO.C,LED1*%
X119853375Y-81836308D03*
X119853375Y-83334908D03*
%TD*%
D11*
%TO.C,C7*%
X164853375Y-86723107D03*
X164853375Y-88448109D03*
%TD*%
D30*
%TO.C,CR18*%
X161098375Y-143383558D03*
X161098375Y-145787658D03*
%TD*%
D11*
%TO.C,C18*%
X139598375Y-143585608D03*
X139598375Y-145310610D03*
%TD*%
D29*
%TO.C,C12*%
X134064317Y-125640507D03*
X135284077Y-126860267D03*
%TD*%
D42*
%TO.C,Y1*%
X135902693Y-116634926D03*
X139353375Y-120085608D03*
%TD*%
D43*
%TO.C,R3*%
X116610735Y-125257182D03*
X118024949Y-123842968D03*
%TD*%
D37*
%TO.C,LED3*%
X111853375Y-81836308D03*
X111853375Y-83334908D03*
%TD*%
D32*
%TO.C,J5*%
X154057324Y-123289557D03*
D33*
X155853375Y-125085608D03*
%TD*%
D44*
%TO.C,R1*%
X160853375Y-115585608D03*
X162267589Y-116999822D03*
%TD*%
M02*
