M48
; DRILL file {KiCad 9.0.0} date 2025-03-24T18:32:07-0500
; FORMAT={-:-/ absolute / metric / decimal}
; #@! TF.CreationDate,2025-03-24T18:32:07-05:00
; #@! TF.GenerationSoftware,Kicad,Pcbnew,9.0.0
; #@! TF.FileFunction,Plated,1,2,PTH
FMAT,2
METRIC
; #@! TA.AperFunction,Plated,PTH,ViaDrill
T1C0.300
; #@! TA.AperFunction,Plated,PTH,ComponentDrill
T2C0.600
; #@! TA.AperFunction,Plated,PTH,ComponentDrill
T3C0.630
; #@! TA.AperFunction,Plated,PTH,ComponentDrill
T4C1.000
%
G90
G05
T1
X119.853Y-102.586
X126.343Y-123.843
X127.0Y-98.0
X127.5Y-105.0
X128.0Y-94.0
X136.5Y-128.0
X137.353Y-103.586
X138.353Y-114.086
X140.413Y-111.645
X140.853Y-126.086
X142.853Y-137.586
X144.047Y-116.892
X144.853Y-120.586
X145.047Y-115.892
X145.329Y-110.671
X145.353Y-121.586
X145.353Y-123.586
X145.853Y-117.586
X148.0Y-131.0
X150.226Y-95.586
X151.853Y-116.086
X151.853Y-137.586
X153.853Y-96.586
X154.353Y-120.586
X158.853Y-114.586
X159.078Y-97.361
X159.353Y-109.086
X164.353Y-128.586
X167.353Y-89.586
X170.0Y-91.0
X170.0Y-94.0
X170.0Y-126.0
X172.5Y-89.0
X174.853Y-131.086
X176.5Y-88.5
X176.5Y-90.0
X177.012Y-96.512
T3
X135.903Y-116.635
X139.353Y-120.086
T4
X124.233Y-88.086
X126.773Y-88.086
X128.761Y-134.494
X129.313Y-88.086
X130.557Y-136.29
X131.853Y-88.086
X132.353Y-138.086
X139.593Y-139.586
X142.133Y-139.586
X144.673Y-139.586
X147.213Y-139.586
X149.753Y-139.586
X153.478Y-139.586
X154.057Y-123.29
X155.853Y-125.086
X156.018Y-139.586
X158.558Y-139.586
X160.261Y-100.994
X161.098Y-139.586
X162.057Y-102.79
X163.638Y-139.586
X163.853Y-104.586
X167.478Y-139.586
X170.018Y-139.586
X172.558Y-139.586
X175.098Y-139.586
X175.353Y-144.586
X177.638Y-139.586
X180.178Y-139.586
X182.718Y-139.586
X184.853Y-112.506
X184.853Y-115.046
X184.853Y-117.586
X184.853Y-120.126
X185.258Y-139.586
T2
G00X179.198Y-88.266
M15
G01X180.298Y-88.266
M16
G05
G00X179.198Y-96.906
M15
G01X180.298Y-96.906
M16
G05
G00X183.528Y-88.266
M15
G01X184.328Y-88.266
M16
G05
G00X183.528Y-96.906
M15
G01X184.328Y-96.906
M16
G05
M30
