M48
; DRILL file {KiCad 9.0.0} date 2025-04-07T16:42:44-0500
; FORMAT={-:-/ absolute / metric / decimal}
; #@! TF.CreationDate,2025-04-07T16:42:44-05:00
; #@! TF.GenerationSoftware,Kicad,Pcbnew,9.0.0
; #@! TF.FileFunction,Plated,1,2,PTH
FMAT,2
METRIC
; #@! TA.AperFunction,Plated,PTH,ViaDrill
T1C0.300
; #@! TA.AperFunction,Plated,PTH,ComponentDrill
T2C0.600
; #@! TA.AperFunction,Plated,PTH,ComponentDrill
T3C0.630
; #@! TA.AperFunction,Plated,PTH,ComponentDrill
T4C1.000
%
G90
G05
T1
X170.3Y-64.75
X170.332Y-63.832
X170.525Y-62.75
X171.25Y-64.75
X171.3Y-72.25
X171.673Y-92.25
X171.8Y-60.75
X172.0Y-85.5
X173.0Y-70.0
X173.5Y-66.0
X173.8Y-70.25
X175.0Y-75.0
X175.3Y-60.75
X175.3Y-71.75
X176.8Y-80.25
X177.3Y-59.75
X177.5Y-67.727
X178.8Y-60.75
X179.679Y-75.752
X180.479Y-75.741
X180.8Y-79.75
X181.3Y-75.75
X183.3Y-81.25
X183.8Y-60.25
X186.275Y-62.775
X186.3Y-64.25
X187.933Y-73.933
X188.0Y-90.5
X188.3Y-60.75
X188.3Y-79.75
X188.935Y-88.435
X190.0Y-94.806
X190.8Y-63.75
X192.0Y-62.0
X192.0Y-66.5
X194.8Y-88.25
X195.0Y-97.5
T3
X167.8Y-87.81
X167.8Y-92.69
T4
X163.708Y-97.658
X165.504Y-99.454
X167.3Y-101.25
X173.8Y-103.75
X176.34Y-103.75
X178.88Y-103.75
X179.3Y-95.75
X181.42Y-103.75
X183.96Y-103.75
X186.5Y-103.75
X189.04Y-103.75
X191.58Y-103.75
X192.3Y-77.45
X192.3Y-79.99
X192.3Y-82.53
X192.3Y-85.07
X192.3Y-89.67
X192.3Y-92.21
X192.3Y-94.75
X197.8Y-93.17
X197.8Y-95.71
X197.8Y-98.25
X197.8Y-100.79
T2
G00X181.98Y-54.575
M15
G01X181.98Y-53.775
M16
G05
G00X181.98Y-58.905
M15
G01X181.98Y-57.805
M16
G05
G00X190.62Y-54.575
M15
G01X190.62Y-53.775
M16
G05
G00X190.62Y-58.905
M15
G01X190.62Y-57.805
M16
G05
M30
