%TF.GenerationSoftware,KiCad,Pcbnew,9.0.0*%
%TF.CreationDate,2025-04-07T16:42:38-05:00*%
%TF.ProjectId,Project 2.0,50726f6a-6563-4742-9032-2e302e6b6963,rev?*%
%TF.SameCoordinates,Original*%
%TF.FileFunction,Paste,Top*%
%TF.FilePolarity,Positive*%
%FSLAX46Y46*%
G04 Gerber Fmt 4.6, Leading zero omitted, Abs format (unit mm)*
G04 Created by KiCad (PCBNEW 9.0.0) date 2025-04-07 16:42:38*
%MOMM*%
%LPD*%
G01*
G04 APERTURE LIST*
G04 Aperture macros list*
%AMRoundRect*
0 Rectangle with rounded corners*
0 $1 Rounding radius*
0 $2 $3 $4 $5 $6 $7 $8 $9 X,Y pos of 4 corners*
0 Add a 4 corners polygon primitive as box body*
4,1,4,$2,$3,$4,$5,$6,$7,$8,$9,$2,$3,0*
0 Add four circle primitives for the rounded corners*
1,1,$1+$1,$2,$3*
1,1,$1+$1,$4,$5*
1,1,$1+$1,$6,$7*
1,1,$1+$1,$8,$9*
0 Add four rect primitives between the rounded corners*
20,1,$1+$1,$2,$3,$4,$5,0*
20,1,$1+$1,$4,$5,$6,$7,0*
20,1,$1+$1,$6,$7,$8,$9,0*
20,1,$1+$1,$8,$9,$2,$3,0*%
%AMRotRect*
0 Rectangle, with rotation*
0 The origin of the aperture is its center*
0 $1 length*
0 $2 width*
0 $3 Rotation angle, in degrees counterclockwise*
0 Add horizontal line*
21,1,$1,$2,0,0,$3*%
G04 Aperture macros list end*
%ADD10C,0.000000*%
%ADD11RoundRect,0.237500X0.300000X0.237500X-0.300000X0.237500X-0.300000X-0.237500X0.300000X-0.237500X0*%
%ADD12R,0.787400X0.787400*%
%ADD13RoundRect,0.250000X-0.450000X0.350000X-0.450000X-0.350000X0.450000X-0.350000X0.450000X0.350000X0*%
%ADD14RoundRect,0.250000X0.450000X-0.350000X0.450000X0.350000X-0.450000X0.350000X-0.450000X-0.350000X0*%
%ADD15RoundRect,0.237500X-0.300000X-0.237500X0.300000X-0.237500X0.300000X0.237500X-0.300000X0.237500X0*%
%ADD16R,0.600700X0.355600*%
%ADD17R,1.549908X1.400048*%
%ADD18RoundRect,0.237500X-0.237500X0.300000X-0.237500X-0.300000X0.237500X-0.300000X0.237500X0.300000X0*%
%ADD19R,1.500000X0.300000*%
%ADD20R,0.300000X1.500000*%
%ADD21RotRect,0.600700X0.355600X315.000000*%
%ADD22RoundRect,0.250000X0.097227X-0.574524X0.574524X-0.097227X-0.097227X0.574524X-0.574524X0.097227X0*%
%ADD23RoundRect,0.237500X0.237500X-0.300000X0.237500X0.300000X-0.237500X0.300000X-0.237500X-0.300000X0*%
%ADD24R,1.244600X0.762000*%
%ADD25RoundRect,0.150000X0.150000X0.425000X-0.150000X0.425000X-0.150000X-0.425000X0.150000X-0.425000X0*%
%ADD26RoundRect,0.075000X0.075000X0.500000X-0.075000X0.500000X-0.075000X-0.500000X0.075000X-0.500000X0*%
%ADD27O,1.000000X2.100000*%
%ADD28O,1.000000X1.800000*%
%ADD29RotRect,0.774700X0.508000X225.000000*%
%ADD30R,0.863600X1.295400*%
%ADD31RotRect,0.600700X0.355600X135.000000*%
G04 APERTURE END LIST*
D10*
%TO.C,CR1*%
G36*
X186374800Y-74047300D02*
G01*
X183225200Y-74047300D01*
X183225200Y-72751900D01*
X186374800Y-72751900D01*
X186374800Y-74047300D01*
G37*
%TD*%
D11*
%TO.C,C10*%
X161662501Y-83750000D03*
X159937499Y-83750000D03*
%TD*%
D12*
%TO.C,LED3*%
X171800000Y-53251400D03*
X171800000Y-54750000D03*
%TD*%
D13*
%TO.C,R5*%
X177300000Y-62750000D03*
X177300000Y-64750000D03*
%TD*%
D11*
%TO.C,C9*%
X161662501Y-79250000D03*
X159937499Y-79250000D03*
%TD*%
D14*
%TO.C,R7*%
X175300000Y-59750000D03*
X175300000Y-57750000D03*
%TD*%
D15*
%TO.C,C7*%
X196575000Y-69750000D03*
X198300000Y-69750000D03*
%TD*%
%TO.C,C3*%
X196437500Y-57750000D03*
X198162500Y-57750000D03*
%TD*%
D16*
%TO.C,CR6*%
X196395900Y-85750000D03*
X198800000Y-85750000D03*
%TD*%
D17*
%TO.C,SW1*%
X168274998Y-57500001D03*
X168274998Y-52999999D03*
X160325002Y-57500001D03*
X160325002Y-52999999D03*
%TD*%
D18*
%TO.C,C13*%
X190800000Y-65887499D03*
X190800000Y-67612501D03*
%TD*%
%TO.C,C8*%
X168300000Y-60524998D03*
X168300000Y-62250000D03*
%TD*%
D19*
%TO.C,U1*%
X174600000Y-79500000D03*
X174600000Y-80000000D03*
X174600000Y-80500000D03*
X174600000Y-81000000D03*
X174600000Y-81500000D03*
X174600000Y-82000000D03*
X174600000Y-82500000D03*
X174600000Y-83000000D03*
X174600000Y-83500000D03*
X174600000Y-84000000D03*
X174600000Y-84500000D03*
X174600000Y-85000000D03*
X174600000Y-85500000D03*
X174600000Y-86000000D03*
X174600000Y-86500000D03*
X174600000Y-87000000D03*
D20*
X176550000Y-88950000D03*
X177050000Y-88950000D03*
X177550000Y-88950000D03*
X178050000Y-88950000D03*
X178550000Y-88950000D03*
X179050000Y-88950000D03*
X179550000Y-88950000D03*
X180050000Y-88950000D03*
X180550000Y-88950000D03*
X181050000Y-88950000D03*
X181550000Y-88950000D03*
X182050000Y-88950000D03*
X182550000Y-88950000D03*
X183050000Y-88950000D03*
X183550000Y-88950000D03*
X184050000Y-88950000D03*
D19*
X186000000Y-87000000D03*
X186000000Y-86500000D03*
X186000000Y-86000000D03*
X186000000Y-85500000D03*
X186000000Y-85000000D03*
X186000000Y-84500000D03*
X186000000Y-84000000D03*
X186000000Y-83500000D03*
X186000000Y-83000000D03*
X186000000Y-82500000D03*
X186000000Y-82000000D03*
X186000000Y-81500000D03*
X186000000Y-81000000D03*
X186000000Y-80500000D03*
X186000000Y-80000000D03*
X186000000Y-79500000D03*
D20*
X184050000Y-77550000D03*
X183550000Y-77550000D03*
X183050000Y-77550000D03*
X182550000Y-77550000D03*
X182050000Y-77550000D03*
X181550000Y-77550000D03*
X181050000Y-77550000D03*
X180550000Y-77550000D03*
X180050000Y-77550000D03*
X179550000Y-77550000D03*
X179050000Y-77550000D03*
X178550000Y-77550000D03*
X178050000Y-77550000D03*
X177550000Y-77550000D03*
X177050000Y-77550000D03*
X176550000Y-77550000D03*
%TD*%
D15*
%TO.C,C4*%
X196575000Y-60750000D03*
X198300000Y-60750000D03*
%TD*%
D17*
%TO.C,SW2*%
X160350004Y-66749998D03*
X160350004Y-71250000D03*
X168300000Y-66749998D03*
X168300000Y-71250000D03*
%TD*%
D15*
%TO.C,C16*%
X196574998Y-75750000D03*
X198300000Y-75750000D03*
%TD*%
%TO.C,C15*%
X196574998Y-72750000D03*
X198300000Y-72750000D03*
%TD*%
D11*
%TO.C,C11*%
X161662501Y-87750000D03*
X159937499Y-87750000D03*
%TD*%
D21*
%TO.C,CR4*%
X163950022Y-103400022D03*
X165649978Y-105099978D03*
%TD*%
D16*
%TO.C,CR13*%
X196597950Y-79750000D03*
X199002050Y-79750000D03*
%TD*%
D22*
%TO.C,C14*%
X192266377Y-70233623D03*
X193733623Y-68766377D03*
%TD*%
D15*
%TO.C,C5*%
X196575000Y-63750000D03*
X198300000Y-63750000D03*
%TD*%
D12*
%TO.C,LED1*%
X178800000Y-53251400D03*
X178800000Y-54750000D03*
%TD*%
D23*
%TO.C,C17*%
X188300000Y-93750000D03*
X188300000Y-92024998D03*
%TD*%
D14*
%TO.C,R6*%
X178800000Y-59750000D03*
X178800000Y-57750000D03*
%TD*%
D16*
%TO.C,CR14*%
X196597950Y-82750000D03*
X199002050Y-82750000D03*
%TD*%
D15*
%TO.C,C1*%
X196437500Y-51750000D03*
X198162500Y-51750000D03*
%TD*%
%TO.C,C6*%
X196575000Y-66750000D03*
X198300000Y-66750000D03*
%TD*%
D24*
%TO.C,XTAL1*%
X167800000Y-79479999D03*
X167800000Y-82020001D03*
%TD*%
D25*
%TO.C,J11*%
X189500000Y-58930000D03*
X188700000Y-58930000D03*
D26*
X187550000Y-58929999D03*
X186550000Y-58930000D03*
X186050000Y-58930000D03*
X185050000Y-58929999D03*
D25*
X183900000Y-58930000D03*
X183100000Y-58930000D03*
X183100000Y-58930000D03*
X183900000Y-58930000D03*
D26*
X184550000Y-58930000D03*
X185550000Y-58930000D03*
X187050000Y-58930000D03*
X188050000Y-58930000D03*
D25*
X188700000Y-58930000D03*
X189500000Y-58930000D03*
D27*
X190620000Y-58355000D03*
D28*
X190620000Y-54175000D03*
D27*
X181980000Y-58355000D03*
D28*
X181980000Y-54175000D03*
%TD*%
D13*
%TO.C,R2*%
X167800000Y-74750000D03*
X167800000Y-76750000D03*
%TD*%
D16*
%TO.C,CR5*%
X196597950Y-88750000D03*
X199002050Y-88750000D03*
%TD*%
D11*
%TO.C,C12*%
X161662501Y-92250000D03*
X159937499Y-92250000D03*
%TD*%
D13*
%TO.C,R4*%
X193800000Y-62750000D03*
X193800000Y-64750000D03*
%TD*%
D29*
%TO.C,U2*%
X177865288Y-69028217D03*
X177193535Y-68356465D03*
X176521783Y-67684712D03*
X174734712Y-69471783D03*
X175406465Y-70143535D03*
X176078217Y-70815288D03*
%TD*%
D12*
%TO.C,LED2*%
X175300000Y-53251401D03*
X175300000Y-54750001D03*
%TD*%
D13*
%TO.C,R3*%
X162800000Y-61750000D03*
X162800000Y-63750000D03*
%TD*%
D14*
%TO.C,R8*%
X171800000Y-59750000D03*
X171800000Y-57750000D03*
%TD*%
D30*
%TO.C,CR1*%
X187100000Y-67100400D03*
X184800000Y-67100399D03*
X182500000Y-67100400D03*
%TD*%
D31*
%TO.C,CR3*%
X161649978Y-101599978D03*
X159950022Y-99900022D03*
%TD*%
D13*
%TO.C,R1*%
X188300000Y-96250000D03*
X188300000Y-98250000D03*
%TD*%
D15*
%TO.C,C2*%
X196437500Y-54750000D03*
X198162500Y-54750000D03*
%TD*%
M02*
