%TF.GenerationSoftware,KiCad,Pcbnew,9.0.0*%
%TF.CreationDate,2025-04-07T16:42:38-05:00*%
%TF.ProjectId,Project 2.0,50726f6a-6563-4742-9032-2e302e6b6963,rev?*%
%TF.SameCoordinates,Original*%
%TF.FileFunction,Legend,Top*%
%TF.FilePolarity,Positive*%
%FSLAX46Y46*%
G04 Gerber Fmt 4.6, Leading zero omitted, Abs format (unit mm)*
G04 Created by KiCad (PCBNEW 9.0.0) date 2025-04-07 16:42:38*
%MOMM*%
%LPD*%
G01*
G04 APERTURE LIST*
%ADD10C,0.150000*%
%ADD11C,0.120000*%
%ADD12C,0.152400*%
%ADD13C,0.127000*%
G04 APERTURE END LIST*
D10*
X171416553Y-88129491D02*
X171893129Y-88129491D01*
X170892318Y-88463094D02*
X171416553Y-88129491D01*
X171416553Y-88129491D02*
X170892318Y-87795887D01*
X171893129Y-86938049D02*
X171893129Y-87509941D01*
X171893129Y-87223995D02*
X170892318Y-87223995D01*
X170892318Y-87223995D02*
X171035291Y-87319310D01*
X171035291Y-87319310D02*
X171130607Y-87414626D01*
X171130607Y-87414626D02*
X171178264Y-87509941D01*
D11*
%TO.C,C10*%
X160946267Y-83240000D02*
X160653733Y-83240000D01*
X160946267Y-84260000D02*
X160653733Y-84260000D01*
%TO.C,R5*%
X176565000Y-63522936D02*
X176565000Y-63977064D01*
X178035000Y-63522936D02*
X178035000Y-63977064D01*
%TO.C,J8*%
X196470000Y-91840000D02*
X197800000Y-91840000D01*
X196470000Y-93170000D02*
X196470000Y-91840000D01*
X196470000Y-94440000D02*
X196470000Y-102120000D01*
X196470000Y-94440000D02*
X199130000Y-94440000D01*
X196470000Y-102120000D02*
X199130000Y-102120000D01*
X199130000Y-94440000D02*
X199130000Y-102120000D01*
%TO.C,C9*%
X160946267Y-78740000D02*
X160653733Y-78740000D01*
X160946267Y-79760000D02*
X160653733Y-79760000D01*
%TO.C,R7*%
X174565000Y-58977064D02*
X174565000Y-58522936D01*
X176035000Y-58977064D02*
X176035000Y-58522936D01*
%TO.C,J3*%
X163707898Y-95776994D02*
X161826994Y-97657898D01*
X165461522Y-101292426D02*
X161826994Y-97657898D01*
X167342426Y-99411522D02*
X163707898Y-95776994D01*
X167342426Y-99411522D02*
X165461522Y-101292426D01*
X168240452Y-100309548D02*
X169180904Y-101250000D01*
X169180904Y-101250000D02*
X168240452Y-102190452D01*
%TO.C,C7*%
X197291233Y-69240000D02*
X197583767Y-69240000D01*
X197291233Y-70260000D02*
X197583767Y-70260000D01*
%TO.C,C3*%
X197153733Y-57240000D02*
X197446267Y-57240000D01*
X197153733Y-58260000D02*
X197446267Y-58260000D01*
D12*
%TO.C,CR6*%
X196569250Y-84949900D02*
X196569250Y-85239460D01*
X196569250Y-86260540D02*
X196569250Y-86550100D01*
X196569250Y-86550100D02*
X198626650Y-86550100D01*
X198626650Y-84949900D02*
X196569250Y-84949900D01*
X198626650Y-85239460D02*
X198626650Y-84949900D01*
X198626650Y-86550100D02*
X198626650Y-86260540D01*
%TO.C,SW1*%
X160972599Y-54032763D02*
X160972599Y-56467237D01*
X160972600Y-58577400D02*
X167627400Y-58577400D01*
X167627400Y-51922600D02*
X160972600Y-51922600D01*
X167627401Y-56467237D02*
X167627401Y-54032763D01*
X170142197Y-57500001D02*
G75*
G02*
X169735799Y-57500001I-203199J0D01*
G01*
X169735799Y-57500001D02*
G75*
G02*
X170142197Y-57500001I203199J0D01*
G01*
D11*
%TO.C,C13*%
X190290000Y-66603733D02*
X190290000Y-66896267D01*
X191310000Y-66603733D02*
X191310000Y-66896267D01*
%TO.C,C8*%
X167790000Y-61241232D02*
X167790000Y-61533766D01*
X168810000Y-61241232D02*
X168810000Y-61533766D01*
D13*
%TO.C,U1*%
X175700000Y-78650000D02*
X184900000Y-78650000D01*
X175700000Y-87850000D02*
X175700000Y-78650000D01*
X184900000Y-78650000D02*
X184900000Y-87850000D01*
X184900000Y-87850000D02*
X175700000Y-87850000D01*
X174500000Y-78650000D02*
G75*
G02*
X174300000Y-78650000I-100000J0D01*
G01*
X174300000Y-78650000D02*
G75*
G02*
X174500000Y-78650000I100000J0D01*
G01*
X174600000Y-78650000D02*
G75*
G02*
X174400000Y-78650000I-100000J0D01*
G01*
X174400000Y-78650000D02*
G75*
G02*
X174600000Y-78650000I100000J0D01*
G01*
X174641419Y-78650000D02*
G75*
G02*
X174358581Y-78650000I-141419J0D01*
G01*
X174358581Y-78650000D02*
G75*
G02*
X174641419Y-78650000I141419J0D01*
G01*
X174641419Y-78650000D02*
G75*
G02*
X174358581Y-78650000I-141419J0D01*
G01*
X174358581Y-78650000D02*
G75*
G02*
X174641419Y-78650000I141419J0D01*
G01*
X174723606Y-78650000D02*
G75*
G02*
X174276394Y-78650000I-223606J0D01*
G01*
X174276394Y-78650000D02*
G75*
G02*
X174723606Y-78650000I223606J0D01*
G01*
X174782841Y-78650000D02*
G75*
G02*
X174217159Y-78650000I-282841J0D01*
G01*
X174217159Y-78650000D02*
G75*
G02*
X174782841Y-78650000I282841J0D01*
G01*
X177000000Y-80050000D02*
G75*
G02*
X176800000Y-80050000I-100000J0D01*
G01*
X176800000Y-80050000D02*
G75*
G02*
X177000000Y-80050000I100000J0D01*
G01*
X177141419Y-80050000D02*
G75*
G02*
X176858581Y-80050000I-141419J0D01*
G01*
X176858581Y-80050000D02*
G75*
G02*
X177141419Y-80050000I141419J0D01*
G01*
X177223606Y-80050000D02*
G75*
G02*
X176776394Y-80050000I-223606J0D01*
G01*
X176776394Y-80050000D02*
G75*
G02*
X177223606Y-80050000I223606J0D01*
G01*
X177282841Y-80050000D02*
G75*
G02*
X176717159Y-80050000I-282841J0D01*
G01*
X176717159Y-80050000D02*
G75*
G02*
X177282841Y-80050000I282841J0D01*
G01*
X177360553Y-80050000D02*
G75*
G02*
X176639447Y-80050000I-360553J0D01*
G01*
X176639447Y-80050000D02*
G75*
G02*
X177360553Y-80050000I360553J0D01*
G01*
X177424262Y-80050000D02*
G75*
G02*
X176575738Y-80050000I-424262J0D01*
G01*
X176575738Y-80050000D02*
G75*
G02*
X177424262Y-80050000I424262J0D01*
G01*
X177500000Y-80050000D02*
G75*
G02*
X176500000Y-80050000I-500000J0D01*
G01*
X176500000Y-80050000D02*
G75*
G02*
X177500000Y-80050000I500000J0D01*
G01*
X177565684Y-80050000D02*
G75*
G02*
X176434316Y-80050000I-565684J0D01*
G01*
X176434316Y-80050000D02*
G75*
G02*
X177565684Y-80050000I565684J0D01*
G01*
X177583094Y-80050000D02*
G75*
G02*
X176416906Y-80050000I-583094J0D01*
G01*
X176416906Y-80050000D02*
G75*
G02*
X177583094Y-80050000I583094J0D01*
G01*
D11*
%TO.C,C4*%
X197291233Y-60240000D02*
X197583767Y-60240000D01*
X197291233Y-61260000D02*
X197583767Y-61260000D01*
D13*
%TO.C,Y1*%
X165470000Y-94655000D02*
X165470000Y-85845000D01*
X166790000Y-84575000D02*
X168810000Y-84575000D01*
X168810000Y-95925000D02*
X166790000Y-95925000D01*
X170130000Y-85845000D02*
X170130000Y-94655000D01*
X165470000Y-85845000D02*
G75*
G02*
X166790000Y-84575000I1294999J-24999D01*
G01*
X166790000Y-95925000D02*
G75*
G02*
X165470000Y-94655000I-25000J1295000D01*
G01*
X168810000Y-84575000D02*
G75*
G02*
X170130000Y-85845000I25001J-1294999D01*
G01*
X170130000Y-94655000D02*
G75*
G02*
X168810000Y-95925000I-1295000J25000D01*
G01*
D12*
%TO.C,SW2*%
X160997602Y-67782762D02*
X160997602Y-70217236D01*
X160997602Y-72327399D02*
X167652402Y-72327399D01*
X167652402Y-65672599D02*
X160997602Y-65672599D01*
X167652402Y-70217236D02*
X167652402Y-67782762D01*
X158889203Y-66749998D02*
G75*
G02*
X158482803Y-66749998I-203200J0D01*
G01*
X158482803Y-66749998D02*
G75*
G02*
X158889203Y-66749998I203200J0D01*
G01*
D11*
%TO.C,C16*%
X197291232Y-75240000D02*
X197583766Y-75240000D01*
X197291232Y-76260000D02*
X197583766Y-76260000D01*
%TO.C,C15*%
X197291232Y-72240000D02*
X197583766Y-72240000D01*
X197291232Y-73260000D02*
X197583766Y-73260000D01*
%TO.C,J7*%
X177970000Y-94420000D02*
X179300000Y-94420000D01*
X177970000Y-95750000D02*
X177970000Y-94420000D01*
X177970000Y-97020000D02*
X177970000Y-97080000D01*
X177970000Y-97020000D02*
X180630000Y-97020000D01*
X177970000Y-97080000D02*
X180630000Y-97080000D01*
X180630000Y-97020000D02*
X180630000Y-97080000D01*
%TO.C,C11*%
X160946267Y-87240000D02*
X160653733Y-87240000D01*
X160946267Y-88260000D02*
X160653733Y-88260000D01*
D12*
%TO.C,CR4*%
X163506843Y-104088355D02*
X164961645Y-105543157D01*
X163711593Y-103883606D02*
X163506843Y-104088355D01*
X164638355Y-102956843D02*
X164433606Y-103161593D01*
X164961645Y-105543157D02*
X165166394Y-105338407D01*
X165888407Y-104616394D02*
X166093157Y-104411645D01*
X166093157Y-104411645D02*
X164638355Y-102956843D01*
%TO.C,CR13*%
X196771300Y-78949900D02*
X196771300Y-79239460D01*
X196771300Y-80260540D02*
X196771300Y-80550100D01*
X196771300Y-80550100D02*
X198828700Y-80550100D01*
X198828700Y-78949900D02*
X196771300Y-78949900D01*
X198828700Y-79239460D02*
X198828700Y-78949900D01*
X198828700Y-80550100D02*
X198828700Y-80260540D01*
D11*
%TO.C,C14*%
X192295543Y-69165010D02*
X192665010Y-68795543D01*
X193334990Y-70204457D02*
X193704457Y-69834990D01*
%TO.C,C5*%
X197291233Y-63240000D02*
X197583767Y-63240000D01*
X197291233Y-64260000D02*
X197583767Y-64260000D01*
%TO.C,J10*%
X190970000Y-76120000D02*
X192300000Y-76120000D01*
X190970000Y-77450000D02*
X190970000Y-76120000D01*
X190970000Y-78720000D02*
X190970000Y-86400000D01*
X190970000Y-78720000D02*
X193630000Y-78720000D01*
X190970000Y-86400000D02*
X193630000Y-86400000D01*
X193630000Y-78720000D02*
X193630000Y-86400000D01*
%TO.C,C17*%
X187790000Y-93033766D02*
X187790000Y-92741232D01*
X188810000Y-93033766D02*
X188810000Y-92741232D01*
%TO.C,R6*%
X178065000Y-58977064D02*
X178065000Y-58522936D01*
X179535000Y-58977064D02*
X179535000Y-58522936D01*
D12*
%TO.C,CR14*%
X196771300Y-81949900D02*
X196771300Y-82239460D01*
X196771300Y-83260540D02*
X196771300Y-83550100D01*
X196771300Y-83550100D02*
X198828700Y-83550100D01*
X198828700Y-81949900D02*
X196771300Y-81949900D01*
X198828700Y-82239460D02*
X198828700Y-81949900D01*
X198828700Y-83550100D02*
X198828700Y-83260540D01*
D11*
%TO.C,C1*%
X197153733Y-51240000D02*
X197446267Y-51240000D01*
X197153733Y-52260000D02*
X197446267Y-52260000D01*
%TO.C,C6*%
X197291233Y-66240000D02*
X197583767Y-66240000D01*
X197291233Y-67260000D02*
X197583767Y-67260000D01*
D12*
%TO.C,XTAL1*%
X166872900Y-79994465D02*
X166872900Y-81505535D01*
X168727100Y-81505535D02*
X168727100Y-79994465D01*
X167876200Y-78210000D02*
G75*
G02*
X167723800Y-78210000I-76200J0D01*
G01*
X167723800Y-78210000D02*
G75*
G02*
X167876200Y-78210000I76200J0D01*
G01*
D11*
%TO.C,J11*%
X181630000Y-55350000D02*
X181630000Y-57050000D01*
X190970000Y-55350000D02*
X190970000Y-57050000D01*
%TO.C,R2*%
X167065000Y-75522936D02*
X167065000Y-75977064D01*
X168535000Y-75522936D02*
X168535000Y-75977064D01*
D12*
%TO.C,CR5*%
X196771300Y-87949900D02*
X196771300Y-88239460D01*
X196771300Y-89260540D02*
X196771300Y-89550100D01*
X196771300Y-89550100D02*
X198828700Y-89550100D01*
X198828700Y-87949900D02*
X196771300Y-87949900D01*
X198828700Y-88239460D02*
X198828700Y-87949900D01*
X198828700Y-89550100D02*
X198828700Y-89260540D01*
D11*
%TO.C,C12*%
X160946267Y-91740000D02*
X160653733Y-91740000D01*
X160946267Y-92760000D02*
X160653733Y-92760000D01*
%TO.C,J9*%
X190970000Y-93479999D02*
X190970000Y-88340001D01*
X193630000Y-88340001D02*
X190970000Y-88340001D01*
X193630000Y-93479999D02*
X190970000Y-93479999D01*
X193630000Y-93479999D02*
X193630000Y-88340001D01*
X193630000Y-94750000D02*
X193630000Y-96080000D01*
X193630000Y-96080000D02*
X192300000Y-96080000D01*
%TO.C,R4*%
X193065000Y-63522936D02*
X193065000Y-63977064D01*
X194535000Y-63522936D02*
X194535000Y-63977064D01*
D12*
%TO.C,U2*%
X175842007Y-67373126D02*
X174423126Y-68792007D01*
X176757993Y-71126874D02*
X178176874Y-69707993D01*
D11*
%TO.C,R3*%
X162065000Y-62522936D02*
X162065000Y-62977064D01*
X163535000Y-62522936D02*
X163535000Y-62977064D01*
%TO.C,R8*%
X171065000Y-58977064D02*
X171065000Y-58522936D01*
X172535000Y-58977064D02*
X172535000Y-58522936D01*
D12*
%TO.C,CR1*%
X181320200Y-68268800D02*
X181320200Y-72231200D01*
X181320200Y-72231200D02*
X188279800Y-72231200D01*
X188279800Y-68268800D02*
X181320200Y-68268800D01*
X188279800Y-72231200D02*
X188279800Y-68268800D01*
X189549800Y-66605100D02*
G75*
G02*
X189295800Y-66605100I-127000J0D01*
G01*
X189295800Y-66605100D02*
G75*
G02*
X189549800Y-66605100I127000J0D01*
G01*
%TO.C,CR3*%
X159506843Y-100588355D02*
X160961645Y-102043157D01*
X159711593Y-100383606D02*
X159506843Y-100588355D01*
X160638355Y-99456843D02*
X160433606Y-99661593D01*
X160961645Y-102043157D02*
X161166394Y-101838407D01*
X161888407Y-101116394D02*
X162093157Y-100911645D01*
X162093157Y-100911645D02*
X160638355Y-99456843D01*
D11*
%TO.C,J6*%
X172470000Y-105080000D02*
X172470000Y-103750000D01*
X173800000Y-105080000D02*
X172470000Y-105080000D01*
X175070001Y-102420000D02*
X192910001Y-102420000D01*
X175070001Y-105080000D02*
X175070001Y-102420000D01*
X175070001Y-105080000D02*
X192910001Y-105080000D01*
X192910001Y-105080000D02*
X192910001Y-102420000D01*
%TO.C,R1*%
X187565000Y-97022936D02*
X187565000Y-97477064D01*
X189035000Y-97022936D02*
X189035000Y-97477064D01*
%TO.C,C2*%
X197153733Y-54240000D02*
X197446267Y-54240000D01*
X197153733Y-55260000D02*
X197446267Y-55260000D01*
%TD*%
M02*
