%TF.GenerationSoftware,KiCad,Pcbnew,9.0.0*%
%TF.CreationDate,2025-04-07T16:42:38-05:00*%
%TF.ProjectId,Project 2.0,50726f6a-6563-4742-9032-2e302e6b6963,rev?*%
%TF.SameCoordinates,Original*%
%TF.FileFunction,Copper,L2,Bot*%
%TF.FilePolarity,Positive*%
%FSLAX46Y46*%
G04 Gerber Fmt 4.6, Leading zero omitted, Abs format (unit mm)*
G04 Created by KiCad (PCBNEW 9.0.0) date 2025-04-07 16:42:38*
%MOMM*%
%LPD*%
G01*
G04 APERTURE LIST*
G04 Aperture macros list*
%AMHorizOval*
0 Thick line with rounded ends*
0 $1 width*
0 $2 $3 position (X,Y) of the first rounded end (center of the circle)*
0 $4 $5 position (X,Y) of the second rounded end (center of the circle)*
0 Add line between two ends*
20,1,$1,$2,$3,$4,$5,0*
0 Add two circle primitives to create the rounded ends*
1,1,$1,$2,$3*
1,1,$1,$4,$5*%
%AMRotRect*
0 Rectangle, with rotation*
0 The origin of the aperture is its center*
0 $1 length*
0 $2 width*
0 $3 Rotation angle, in degrees counterclockwise*
0 Add horizontal line*
21,1,$1,$2,0,0,$3*%
G04 Aperture macros list end*
%TA.AperFunction,ComponentPad*%
%ADD10R,1.700000X1.700000*%
%TD*%
%TA.AperFunction,ComponentPad*%
%ADD11O,1.700000X1.700000*%
%TD*%
%TA.AperFunction,ComponentPad*%
%ADD12RotRect,1.700000X1.700000X225.000000*%
%TD*%
%TA.AperFunction,ComponentPad*%
%ADD13HorizOval,1.700000X0.000000X0.000000X0.000000X0.000000X0*%
%TD*%
%TA.AperFunction,ComponentPad*%
%ADD14C,1.030000*%
%TD*%
%TA.AperFunction,HeatsinkPad*%
%ADD15O,1.000000X2.100000*%
%TD*%
%TA.AperFunction,HeatsinkPad*%
%ADD16O,1.000000X1.800000*%
%TD*%
%TA.AperFunction,ViaPad*%
%ADD17C,0.600000*%
%TD*%
%TA.AperFunction,Conductor*%
%ADD18C,0.254000*%
%TD*%
%TA.AperFunction,Conductor*%
%ADD19C,0.508000*%
%TD*%
G04 APERTURE END LIST*
D10*
%TO.P,J8,1,Pin_1*%
%TO.N,GND*%
X197800000Y-93170000D03*
D11*
%TO.P,J8,2,Pin_2*%
X197800000Y-95710000D03*
%TO.P,J8,3,Pin_3*%
%TO.N,VCC*%
X197800000Y-98250000D03*
%TO.P,J8,4,Pin_4*%
X197800000Y-100790000D03*
%TD*%
D12*
%TO.P,J3,1,Pin_1*%
%TO.N,/UART2_RX*%
X167300000Y-101250000D03*
D13*
%TO.P,J3,2,Pin_2*%
%TO.N,/UART2_TX*%
X165503949Y-99453949D03*
%TO.P,J3,3,Pin_3*%
%TO.N,GND*%
X163707898Y-97657898D03*
%TD*%
D14*
%TO.P,Y1,1*%
%TO.N,/OSC_IN*%
X167800000Y-87809999D03*
%TO.P,Y1,2*%
%TO.N,/OSC_OUT*%
X167800000Y-92690001D03*
%TD*%
D10*
%TO.P,J7,1,Pin_1*%
%TO.N,/SPI1_MISO*%
X179300000Y-95750000D03*
%TD*%
%TO.P,J10,1,Pin_1*%
%TO.N,GND*%
X192300000Y-77450000D03*
D11*
%TO.P,J10,2,Pin_2*%
%TO.N,/SWCLK*%
X192300000Y-79990000D03*
%TO.P,J10,3,Pin_3*%
%TO.N,/SWDIO*%
X192300000Y-82530000D03*
%TO.P,J10,4,Pin_4*%
%TO.N,VCC*%
X192300000Y-85070000D03*
%TD*%
D15*
%TO.P,J11,S1,SHIELD*%
%TO.N,GND*%
X190620000Y-58355000D03*
D16*
X190620000Y-54175000D03*
D15*
X181980000Y-58355000D03*
D16*
X181980000Y-54175000D03*
%TD*%
D10*
%TO.P,J9,1,Pin_1*%
%TO.N,/UART1_TX*%
X192300000Y-94750000D03*
D11*
%TO.P,J9,2,Pin_2*%
%TO.N,/UART1_RX*%
X192300000Y-92210000D03*
%TO.P,J9,3,Pin_3*%
%TO.N,GND*%
X192300000Y-89670001D03*
%TD*%
D10*
%TO.P,J6,1,Pin_1*%
%TO.N,VCC*%
X173800000Y-103750000D03*
D11*
%TO.P,J6,2,Pin_2*%
%TO.N,GND*%
X176340000Y-103750000D03*
%TO.P,J6,3,Pin_3*%
%TO.N,/SPI1_SCK*%
X178879999Y-103750000D03*
%TO.P,J6,4,Pin_4*%
%TO.N,/SPI1_MOSI*%
X181420000Y-103750000D03*
%TO.P,J6,5,Pin_5*%
%TO.N,/CS*%
X183960000Y-103750000D03*
%TO.P,J6,6,Pin_6*%
%TO.N,/DC*%
X186500000Y-103750000D03*
%TO.P,J6,7,Pin_7*%
%TO.N,/RST*%
X189040000Y-103750000D03*
%TO.P,J6,8,Pin_8*%
%TO.N,/BL*%
X191580001Y-103750000D03*
%TD*%
D17*
%TO.N,VCC*%
X187933224Y-73933224D03*
X188300000Y-79750000D03*
X170300000Y-64750000D03*
X177300000Y-59750000D03*
X186300000Y-64250000D03*
X188935000Y-88435000D03*
X171673000Y-92250000D03*
X171300000Y-72250000D03*
X194800000Y-88250000D03*
%TO.N,GND*%
X175000000Y-75000000D03*
X173000000Y-70000000D03*
X172000000Y-85500000D03*
X188000000Y-90500000D03*
X192000000Y-66500000D03*
X170331644Y-63831644D03*
X195000000Y-97500000D03*
X190000000Y-94806000D03*
X171250000Y-64750000D03*
X173500000Y-66000000D03*
X177500000Y-67727018D03*
X192000000Y-62000000D03*
%TO.N,/NRST*%
X176800000Y-80250000D03*
X170525002Y-62750000D03*
%TO.N,/VIN*%
X188300000Y-60750000D03*
X186275000Y-62775000D03*
X183800000Y-60250000D03*
X190800000Y-63750000D03*
%TO.N,/LED1*%
X178800000Y-60750000D03*
X181300000Y-75750000D03*
%TO.N,/LED2*%
X180479199Y-75740546D03*
X175300000Y-60750000D03*
%TO.N,/LED3*%
X179679274Y-75751680D03*
X171800000Y-60750000D03*
%TO.N,/USB_D-*%
X183300000Y-81250000D03*
X175300000Y-71750000D03*
%TO.N,/USB_D+*%
X180800000Y-79750000D03*
X173800000Y-70250000D03*
%TD*%
D18*
%TO.N,VCC*%
X187933224Y-73933224D02*
X188300000Y-79750000D01*
X188300000Y-81070000D02*
X192300000Y-85070000D01*
X188935000Y-88435000D02*
X192300000Y-85070000D01*
X181800000Y-59750000D02*
X177300000Y-59750000D01*
X194800000Y-95250000D02*
X197800000Y-98250000D01*
X171673000Y-92250000D02*
X171673000Y-92623000D01*
X188300000Y-79750000D02*
X188300000Y-81070000D01*
X170300000Y-64750000D02*
X170300000Y-71250000D01*
X197800000Y-98250000D02*
X197800000Y-100790000D01*
X170300000Y-71250000D02*
X171300000Y-72250000D01*
X173800000Y-94750000D02*
X173800000Y-103750000D01*
X194800000Y-88250000D02*
X194800000Y-95250000D01*
X186300000Y-64250000D02*
X181800000Y-59750000D01*
X171673000Y-92623000D02*
X173800000Y-94750000D01*
%TO.N,GND*%
X176340000Y-103750000D02*
X182590000Y-97500000D01*
X165417898Y-97657898D02*
X172688000Y-104928000D01*
X172000000Y-91000000D02*
X176340000Y-95340000D01*
X172000000Y-85500000D02*
X172000000Y-91000000D01*
X182590000Y-97500000D02*
X195000000Y-97500000D01*
X173000000Y-73000000D02*
X175000000Y-75000000D01*
X175162000Y-104928000D02*
X176340000Y-103750000D01*
X192000000Y-62000000D02*
X192000000Y-66500000D01*
X188000000Y-90500000D02*
X188829999Y-89670001D01*
X193478000Y-78628000D02*
X192300000Y-77450000D01*
X172688000Y-104928000D02*
X175162000Y-104928000D01*
X163707898Y-97657898D02*
X165417898Y-97657898D01*
X177500000Y-67727018D02*
X175772982Y-66000000D01*
X170331644Y-63831644D02*
X171250000Y-64750000D01*
X190000000Y-91970001D02*
X190000000Y-94806000D01*
X173000000Y-70000000D02*
X173000000Y-73000000D01*
X175772982Y-66000000D02*
X173500000Y-66000000D01*
X192300000Y-89670001D02*
X190000000Y-91970001D01*
X176340000Y-95340000D02*
X176340000Y-103750000D01*
X192300000Y-89670001D02*
X193478000Y-88492001D01*
X188829999Y-89670001D02*
X192300000Y-89670001D01*
X193478000Y-88492001D02*
X193478000Y-78628000D01*
%TO.N,/NRST*%
X170525002Y-62750000D02*
X172300000Y-64524998D01*
X172300000Y-74750000D02*
X176800000Y-80250000D01*
X172300000Y-64524998D02*
X172300000Y-74750000D01*
D19*
%TO.N,/VIN*%
X183800000Y-60250000D02*
X183800000Y-60300000D01*
X183800000Y-60250000D02*
X187800000Y-60250000D01*
X187800000Y-60250000D02*
X188300000Y-60750000D01*
X188300000Y-60750000D02*
X190800000Y-63250000D01*
X190800000Y-63250000D02*
X190800000Y-63750000D01*
X188300000Y-60750000D02*
X186275000Y-62775000D01*
D18*
%TO.N,/LED1*%
X181300000Y-75750000D02*
X181300000Y-63250000D01*
X181300000Y-63250000D02*
X178800000Y-60750000D01*
%TO.N,/LED2*%
X180479199Y-65929199D02*
X175300000Y-60750000D01*
X180479199Y-75740546D02*
X180479199Y-65929199D01*
%TO.N,/LED3*%
X179679274Y-75751680D02*
X179679274Y-68629274D01*
X179679274Y-68629274D02*
X171800000Y-60750000D01*
%TO.N,/USB_D-*%
X177953904Y-73726016D02*
X178075526Y-73847638D01*
X175300000Y-73250000D02*
X176378471Y-74328471D01*
X177821042Y-75771042D02*
X183300000Y-81250000D01*
X177473071Y-75423071D02*
X177594694Y-75544694D01*
X175300000Y-71750000D02*
X175300000Y-73250000D01*
X176864961Y-74328472D02*
X177467414Y-73726016D01*
X177594694Y-75544694D02*
X177821042Y-75771042D01*
X178075527Y-74334128D02*
X177473071Y-74936581D01*
X177467414Y-73726016D02*
G75*
G02*
X177953904Y-73726016I243245J-243246D01*
G01*
X176378471Y-74328471D02*
G75*
G03*
X176864945Y-74328456I243229J243271D01*
G01*
X178075526Y-73847638D02*
G75*
G02*
X178075544Y-74334145I-243226J-243262D01*
G01*
X177473071Y-74936581D02*
G75*
G03*
X177473097Y-75423045I243229J-243219D01*
G01*
%TO.N,/USB_D+*%
X173800000Y-70250000D02*
X173800000Y-72750000D01*
X180800000Y-79750000D02*
X173800000Y-72750000D01*
%TD*%
%TA.AperFunction,Conductor*%
%TO.N,GND*%
G36*
X198050000Y-95276988D02*
G01*
X197992993Y-95244075D01*
X197865826Y-95210000D01*
X197734174Y-95210000D01*
X197607007Y-95244075D01*
X197550000Y-95276988D01*
X197550000Y-93603012D01*
X197607007Y-93635925D01*
X197734174Y-93670000D01*
X197865826Y-93670000D01*
X197992993Y-93635925D01*
X198050000Y-93603012D01*
X198050000Y-95276988D01*
G37*
%TD.AperFunction*%
%TA.AperFunction,Conductor*%
G36*
X171225587Y-64356559D02*
G01*
X171274119Y-64386536D01*
X171636181Y-64748598D01*
X171669666Y-64809921D01*
X171672500Y-64836279D01*
X171672500Y-71356817D01*
X171666564Y-71377031D01*
X171665437Y-71398069D01*
X171656917Y-71409883D01*
X171652815Y-71423856D01*
X171636895Y-71437650D01*
X171624571Y-71454742D01*
X171611015Y-71460075D01*
X171600011Y-71469611D01*
X171579158Y-71472609D01*
X171559553Y-71480323D01*
X171534755Y-71478993D01*
X171530853Y-71479555D01*
X171524309Y-71478434D01*
X171425816Y-71458843D01*
X171363905Y-71426459D01*
X171362326Y-71424907D01*
X170963819Y-71026400D01*
X170930334Y-70965077D01*
X170927500Y-70938719D01*
X170927500Y-65289356D01*
X170947185Y-65222317D01*
X170948398Y-65220465D01*
X171009394Y-65129179D01*
X171069737Y-64983497D01*
X171100500Y-64828842D01*
X171100500Y-64671158D01*
X171100500Y-64671155D01*
X171100499Y-64671153D01*
X171069738Y-64516510D01*
X171069737Y-64516503D01*
X171069732Y-64516492D01*
X171067969Y-64510676D01*
X171070610Y-64509874D01*
X171064406Y-64452211D01*
X171095676Y-64389729D01*
X171155761Y-64354071D01*
X171225587Y-64356559D01*
G37*
%TD.AperFunction*%
%TA.AperFunction,Conductor*%
G36*
X200943039Y-50520185D02*
G01*
X200988794Y-50572989D01*
X201000000Y-50624500D01*
X201000000Y-105375500D01*
X200980315Y-105442539D01*
X200927511Y-105488294D01*
X200876000Y-105499500D01*
X158124000Y-105499500D01*
X158056961Y-105479815D01*
X158011206Y-105427011D01*
X158000000Y-105375500D01*
X158000000Y-97551651D01*
X162357898Y-97551651D01*
X162357898Y-97764144D01*
X162391140Y-97974025D01*
X162391140Y-97974028D01*
X162456802Y-98176115D01*
X162553273Y-98365448D01*
X162592626Y-98419614D01*
X163224935Y-97787306D01*
X163241973Y-97850891D01*
X163307799Y-97964905D01*
X163400891Y-98057997D01*
X163514905Y-98123823D01*
X163578488Y-98140860D01*
X162946180Y-98773167D01*
X162946180Y-98773168D01*
X163000347Y-98812522D01*
X163189680Y-98908993D01*
X163391768Y-98974655D01*
X163601652Y-99007898D01*
X163814144Y-99007898D01*
X164024025Y-98974655D01*
X164033674Y-98971520D01*
X164103515Y-98969519D01*
X164163350Y-99005595D01*
X164194183Y-99068294D01*
X164189935Y-99127758D01*
X164186702Y-99137709D01*
X164164149Y-99280103D01*
X164153449Y-99347662D01*
X164153449Y-99560236D01*
X164153848Y-99562753D01*
X164169275Y-99660160D01*
X164186703Y-99770192D01*
X164232197Y-99910208D01*
X164252393Y-99972363D01*
X164348900Y-100161769D01*
X164473839Y-100333735D01*
X164624162Y-100484058D01*
X164796128Y-100608997D01*
X164796130Y-100608998D01*
X164796133Y-100609000D01*
X164985537Y-100705506D01*
X165187706Y-100771195D01*
X165397662Y-100804449D01*
X165397663Y-100804449D01*
X165558224Y-100804449D01*
X165625263Y-100824134D01*
X165671018Y-100876938D01*
X165680962Y-100946096D01*
X165671018Y-100979961D01*
X165612753Y-101107540D01*
X165612752Y-101107544D01*
X165592272Y-101250000D01*
X165612752Y-101392455D01*
X165612753Y-101392459D01*
X165672539Y-101523370D01*
X165672540Y-101523371D01*
X165672541Y-101523373D01*
X165710160Y-101570056D01*
X165710163Y-101570059D01*
X165710168Y-101570065D01*
X166797770Y-102657664D01*
X166979944Y-102839838D01*
X166979948Y-102839841D01*
X166979950Y-102839843D01*
X167026626Y-102877459D01*
X167157540Y-102937246D01*
X167157541Y-102937246D01*
X167157543Y-102937247D01*
X167300000Y-102957728D01*
X167442457Y-102937247D01*
X167573373Y-102877459D01*
X167620056Y-102839840D01*
X168889838Y-101570056D01*
X168927459Y-101523373D01*
X168987247Y-101392457D01*
X169007728Y-101250000D01*
X168987247Y-101107543D01*
X168986653Y-101106243D01*
X168927460Y-100976629D01*
X168927459Y-100976628D01*
X168927459Y-100976627D01*
X168889840Y-100929944D01*
X168889835Y-100929939D01*
X168889831Y-100929934D01*
X167620059Y-99660165D01*
X167620053Y-99660160D01*
X167620049Y-99660156D01*
X167573373Y-99622540D01*
X167442459Y-99562753D01*
X167442455Y-99562752D01*
X167300000Y-99542272D01*
X167157544Y-99562752D01*
X167157536Y-99562754D01*
X167029960Y-99621017D01*
X166960802Y-99630961D01*
X166897246Y-99601936D01*
X166859472Y-99543158D01*
X166854449Y-99508223D01*
X166854449Y-99347662D01*
X166843749Y-99280104D01*
X166821195Y-99137706D01*
X166755506Y-98935537D01*
X166659000Y-98746133D01*
X166658998Y-98746130D01*
X166658997Y-98746128D01*
X166534058Y-98574162D01*
X166383735Y-98423839D01*
X166211769Y-98298900D01*
X166022363Y-98202393D01*
X166022362Y-98202392D01*
X166022361Y-98202392D01*
X165820192Y-98136703D01*
X165820190Y-98136702D01*
X165820189Y-98136702D01*
X165625338Y-98105841D01*
X165610236Y-98103449D01*
X165397662Y-98103449D01*
X165382560Y-98105841D01*
X165187709Y-98136702D01*
X165177758Y-98139935D01*
X165107917Y-98141925D01*
X165048087Y-98105841D01*
X165017263Y-98043138D01*
X165021520Y-97983674D01*
X165024655Y-97974025D01*
X165057898Y-97764144D01*
X165057898Y-97551651D01*
X165024655Y-97341770D01*
X165024655Y-97341767D01*
X164958993Y-97139680D01*
X164862522Y-96950347D01*
X164823168Y-96896180D01*
X164823167Y-96896180D01*
X164190860Y-97528488D01*
X164173823Y-97464905D01*
X164107997Y-97350891D01*
X164014905Y-97257799D01*
X163900891Y-97191973D01*
X163837307Y-97174935D01*
X164469614Y-96542626D01*
X164415448Y-96503273D01*
X164226115Y-96406802D01*
X164024027Y-96341140D01*
X163814144Y-96307898D01*
X163601652Y-96307898D01*
X163391770Y-96341140D01*
X163391767Y-96341140D01*
X163189680Y-96406802D01*
X163000337Y-96503278D01*
X162946180Y-96542625D01*
X162946180Y-96542626D01*
X163578489Y-97174935D01*
X163514905Y-97191973D01*
X163400891Y-97257799D01*
X163307799Y-97350891D01*
X163241973Y-97464905D01*
X163224935Y-97528489D01*
X162592626Y-96896180D01*
X162592625Y-96896180D01*
X162553278Y-96950337D01*
X162456802Y-97139680D01*
X162391140Y-97341767D01*
X162391140Y-97341770D01*
X162357898Y-97551651D01*
X158000000Y-97551651D01*
X158000000Y-92589978D01*
X166784500Y-92589978D01*
X166784500Y-92790023D01*
X166823523Y-92986204D01*
X166823526Y-92986216D01*
X166900071Y-93171014D01*
X166900078Y-93171027D01*
X167011208Y-93337344D01*
X167011211Y-93337348D01*
X167152652Y-93478789D01*
X167152656Y-93478792D01*
X167318973Y-93589922D01*
X167318986Y-93589929D01*
X167503784Y-93666474D01*
X167503789Y-93666476D01*
X167699977Y-93705500D01*
X167699981Y-93705501D01*
X167699982Y-93705501D01*
X167900019Y-93705501D01*
X167900020Y-93705500D01*
X168096211Y-93666476D01*
X168281020Y-93589926D01*
X168447344Y-93478792D01*
X168588791Y-93337345D01*
X168699925Y-93171021D01*
X168776475Y-92986212D01*
X168815500Y-92790019D01*
X168815500Y-92589983D01*
X168776475Y-92393790D01*
X168776473Y-92393785D01*
X168701405Y-92212552D01*
X168701392Y-92212522D01*
X168699926Y-92208983D01*
X168699921Y-92208974D01*
X168674650Y-92171153D01*
X170872500Y-92171153D01*
X170872500Y-92328846D01*
X170903261Y-92483489D01*
X170903264Y-92483501D01*
X170963602Y-92629172D01*
X170963609Y-92629185D01*
X171050754Y-92759606D01*
X171061832Y-92780136D01*
X171066791Y-92791844D01*
X171069614Y-92806035D01*
X171103062Y-92886784D01*
X171116917Y-92920233D01*
X171122023Y-92927874D01*
X171160998Y-92986204D01*
X171185590Y-93023010D01*
X171185591Y-93023011D01*
X173136181Y-94973600D01*
X173169666Y-95034923D01*
X173172500Y-95061281D01*
X173172500Y-102275500D01*
X173152815Y-102342539D01*
X173100011Y-102388294D01*
X173048501Y-102399500D01*
X172902130Y-102399500D01*
X172902123Y-102399501D01*
X172842516Y-102405908D01*
X172707671Y-102456202D01*
X172707664Y-102456206D01*
X172592455Y-102542452D01*
X172592452Y-102542455D01*
X172506206Y-102657664D01*
X172506202Y-102657671D01*
X172455908Y-102792517D01*
X172449501Y-102852116D01*
X172449500Y-102852135D01*
X172449500Y-104647870D01*
X172449501Y-104647876D01*
X172455908Y-104707483D01*
X172506202Y-104842328D01*
X172506206Y-104842335D01*
X172592452Y-104957544D01*
X172592455Y-104957547D01*
X172707664Y-105043793D01*
X172707671Y-105043797D01*
X172842517Y-105094091D01*
X172842516Y-105094091D01*
X172849444Y-105094835D01*
X172902127Y-105100500D01*
X174697872Y-105100499D01*
X174757483Y-105094091D01*
X174892331Y-105043796D01*
X175007546Y-104957546D01*
X175093796Y-104842331D01*
X175143002Y-104710401D01*
X175184872Y-104654468D01*
X175250337Y-104630050D01*
X175318610Y-104644901D01*
X175346865Y-104666053D01*
X175460535Y-104779723D01*
X175460540Y-104779727D01*
X175632442Y-104904620D01*
X175821782Y-105001095D01*
X176023871Y-105066757D01*
X176090000Y-105077231D01*
X176090000Y-104183012D01*
X176147007Y-104215925D01*
X176274174Y-104250000D01*
X176405826Y-104250000D01*
X176532993Y-104215925D01*
X176590000Y-104183012D01*
X176590000Y-105077230D01*
X176656126Y-105066757D01*
X176656129Y-105066757D01*
X176858217Y-105001095D01*
X177047557Y-104904620D01*
X177219459Y-104779727D01*
X177219464Y-104779723D01*
X177369723Y-104629464D01*
X177369727Y-104629459D01*
X177494621Y-104457556D01*
X177499230Y-104448511D01*
X177547201Y-104397712D01*
X177615021Y-104380912D01*
X177681157Y-104403446D01*
X177720201Y-104448501D01*
X177724948Y-104457817D01*
X177849889Y-104629786D01*
X178000212Y-104780109D01*
X178172178Y-104905048D01*
X178172180Y-104905049D01*
X178172183Y-104905051D01*
X178361587Y-105001557D01*
X178563756Y-105067246D01*
X178773712Y-105100500D01*
X178773713Y-105100500D01*
X178986285Y-105100500D01*
X178986286Y-105100500D01*
X179196242Y-105067246D01*
X179398411Y-105001557D01*
X179587815Y-104905051D01*
X179674137Y-104842335D01*
X179759785Y-104780109D01*
X179759787Y-104780106D01*
X179759791Y-104780104D01*
X179910103Y-104629792D01*
X179910105Y-104629788D01*
X179910108Y-104629786D01*
X180035047Y-104457821D01*
X180035182Y-104457556D01*
X180039512Y-104449056D01*
X180087483Y-104398260D01*
X180155303Y-104381462D01*
X180221439Y-104403996D01*
X180260483Y-104449052D01*
X180264949Y-104457817D01*
X180389890Y-104629786D01*
X180540213Y-104780109D01*
X180712179Y-104905048D01*
X180712181Y-104905049D01*
X180712184Y-104905051D01*
X180901588Y-105001557D01*
X181103757Y-105067246D01*
X181313713Y-105100500D01*
X181313714Y-105100500D01*
X181526286Y-105100500D01*
X181526287Y-105100500D01*
X181736243Y-105067246D01*
X181938412Y-105001557D01*
X182127816Y-104905051D01*
X182214138Y-104842335D01*
X182299786Y-104780109D01*
X182299788Y-104780106D01*
X182299792Y-104780104D01*
X182450104Y-104629792D01*
X182450106Y-104629788D01*
X182450109Y-104629786D01*
X182575048Y-104457820D01*
X182575050Y-104457817D01*
X182575051Y-104457816D01*
X182579514Y-104449054D01*
X182627488Y-104398259D01*
X182695308Y-104381463D01*
X182761444Y-104403999D01*
X182800484Y-104449054D01*
X182804591Y-104457115D01*
X182804951Y-104457820D01*
X182929890Y-104629786D01*
X183080213Y-104780109D01*
X183252179Y-104905048D01*
X183252181Y-104905049D01*
X183252184Y-104905051D01*
X183441588Y-105001557D01*
X183643757Y-105067246D01*
X183853713Y-105100500D01*
X183853714Y-105100500D01*
X184066286Y-105100500D01*
X184066287Y-105100500D01*
X184276243Y-105067246D01*
X184478412Y-105001557D01*
X184667816Y-104905051D01*
X184754138Y-104842335D01*
X184839786Y-104780109D01*
X184839788Y-104780106D01*
X184839792Y-104780104D01*
X184990104Y-104629792D01*
X184990106Y-104629788D01*
X184990109Y-104629786D01*
X185115048Y-104457820D01*
X185115050Y-104457817D01*
X185115051Y-104457816D01*
X185119514Y-104449054D01*
X185167488Y-104398259D01*
X185235308Y-104381463D01*
X185301444Y-104403999D01*
X185340484Y-104449054D01*
X185344591Y-104457115D01*
X185344951Y-104457820D01*
X185469890Y-104629786D01*
X185620213Y-104780109D01*
X185792179Y-104905048D01*
X185792181Y-104905049D01*
X185792184Y-104905051D01*
X185981588Y-105001557D01*
X186183757Y-105067246D01*
X186393713Y-105100500D01*
X186393714Y-105100500D01*
X186606286Y-105100500D01*
X186606287Y-105100500D01*
X186816243Y-105067246D01*
X187018412Y-105001557D01*
X187207816Y-104905051D01*
X187294138Y-104842335D01*
X187379786Y-104780109D01*
X187379788Y-104780106D01*
X187379792Y-104780104D01*
X187530104Y-104629792D01*
X187530106Y-104629788D01*
X187530109Y-104629786D01*
X187655048Y-104457820D01*
X187655050Y-104457817D01*
X187655051Y-104457816D01*
X187659514Y-104449054D01*
X187707488Y-104398259D01*
X187775308Y-104381463D01*
X187841444Y-104403999D01*
X187880484Y-104449054D01*
X187884591Y-104457115D01*
X187884951Y-104457820D01*
X188009890Y-104629786D01*
X188160213Y-104780109D01*
X188332179Y-104905048D01*
X188332181Y-104905049D01*
X188332184Y-104905051D01*
X188521588Y-105001557D01*
X188723757Y-105067246D01*
X188933713Y-105100500D01*
X188933714Y-105100500D01*
X189146286Y-105100500D01*
X189146287Y-105100500D01*
X189356243Y-105067246D01*
X189558412Y-105001557D01*
X189747816Y-104905051D01*
X189834138Y-104842335D01*
X189919786Y-104780109D01*
X189919788Y-104780106D01*
X189919792Y-104780104D01*
X190070104Y-104629792D01*
X190070106Y-104629788D01*
X190070109Y-104629786D01*
X190195048Y-104457821D01*
X190195183Y-104457556D01*
X190199513Y-104449056D01*
X190247484Y-104398260D01*
X190315304Y-104381462D01*
X190381440Y-104403996D01*
X190420484Y-104449052D01*
X190424950Y-104457817D01*
X190549891Y-104629786D01*
X190700214Y-104780109D01*
X190872180Y-104905048D01*
X190872182Y-104905049D01*
X190872185Y-104905051D01*
X191061589Y-105001557D01*
X191263758Y-105067246D01*
X191473714Y-105100500D01*
X191473715Y-105100500D01*
X191686287Y-105100500D01*
X191686288Y-105100500D01*
X191896244Y-105067246D01*
X192098413Y-105001557D01*
X192287817Y-104905051D01*
X192374139Y-104842335D01*
X192459787Y-104780109D01*
X192459789Y-104780106D01*
X192459793Y-104780104D01*
X192610105Y-104629792D01*
X192610107Y-104629788D01*
X192610110Y-104629786D01*
X192735049Y-104457820D01*
X192735051Y-104457817D01*
X192735052Y-104457816D01*
X192831558Y-104268412D01*
X192897247Y-104066243D01*
X192930501Y-103856287D01*
X192930501Y-103643713D01*
X192897247Y-103433757D01*
X192831558Y-103231588D01*
X192735052Y-103042184D01*
X192735050Y-103042181D01*
X192735049Y-103042179D01*
X192610110Y-102870213D01*
X192459787Y-102719890D01*
X192287821Y-102594951D01*
X192098415Y-102498444D01*
X192098414Y-102498443D01*
X192098413Y-102498443D01*
X191896244Y-102432754D01*
X191896242Y-102432753D01*
X191896241Y-102432753D01*
X191734958Y-102407208D01*
X191686288Y-102399500D01*
X191473714Y-102399500D01*
X191425043Y-102407208D01*
X191263761Y-102432753D01*
X191061586Y-102498444D01*
X190872180Y-102594951D01*
X190700214Y-102719890D01*
X190549891Y-102870213D01*
X190424949Y-103042184D01*
X190424947Y-103042187D01*
X190420482Y-103050950D01*
X190372506Y-103101744D01*
X190304684Y-103118537D01*
X190238550Y-103095997D01*
X190199514Y-103050944D01*
X190195051Y-103042184D01*
X190195049Y-103042181D01*
X190195048Y-103042179D01*
X190070109Y-102870213D01*
X189919786Y-102719890D01*
X189747820Y-102594951D01*
X189558414Y-102498444D01*
X189558413Y-102498443D01*
X189558412Y-102498443D01*
X189356243Y-102432754D01*
X189356241Y-102432753D01*
X189356240Y-102432753D01*
X189194957Y-102407208D01*
X189146287Y-102399500D01*
X188933713Y-102399500D01*
X188885042Y-102407208D01*
X188723760Y-102432753D01*
X188521585Y-102498444D01*
X188332179Y-102594951D01*
X188160213Y-102719890D01*
X188009890Y-102870213D01*
X187884949Y-103042182D01*
X187880484Y-103050946D01*
X187832509Y-103101742D01*
X187764688Y-103118536D01*
X187698553Y-103095998D01*
X187659516Y-103050946D01*
X187655050Y-103042182D01*
X187530109Y-102870213D01*
X187379786Y-102719890D01*
X187207820Y-102594951D01*
X187018414Y-102498444D01*
X187018413Y-102498443D01*
X187018412Y-102498443D01*
X186816243Y-102432754D01*
X186816241Y-102432753D01*
X186816240Y-102432753D01*
X186654957Y-102407208D01*
X186606287Y-102399500D01*
X186393713Y-102399500D01*
X186345042Y-102407208D01*
X186183760Y-102432753D01*
X185981585Y-102498444D01*
X185792179Y-102594951D01*
X185620213Y-102719890D01*
X185469890Y-102870213D01*
X185344949Y-103042182D01*
X185340484Y-103050946D01*
X185292509Y-103101742D01*
X185224688Y-103118536D01*
X185158553Y-103095998D01*
X185119516Y-103050946D01*
X185115050Y-103042182D01*
X184990109Y-102870213D01*
X184839786Y-102719890D01*
X184667820Y-102594951D01*
X184478414Y-102498444D01*
X184478413Y-102498443D01*
X184478412Y-102498443D01*
X184276243Y-102432754D01*
X184276241Y-102432753D01*
X184276240Y-102432753D01*
X184114957Y-102407208D01*
X184066287Y-102399500D01*
X183853713Y-102399500D01*
X183805042Y-102407208D01*
X183643760Y-102432753D01*
X183441585Y-102498444D01*
X183252179Y-102594951D01*
X183080213Y-102719890D01*
X182929890Y-102870213D01*
X182804949Y-103042182D01*
X182800484Y-103050946D01*
X182752509Y-103101742D01*
X182684688Y-103118536D01*
X182618553Y-103095998D01*
X182579516Y-103050946D01*
X182575050Y-103042182D01*
X182450109Y-102870213D01*
X182299786Y-102719890D01*
X182127820Y-102594951D01*
X181938414Y-102498444D01*
X181938413Y-102498443D01*
X181938412Y-102498443D01*
X181736243Y-102432754D01*
X181736241Y-102432753D01*
X181736240Y-102432753D01*
X181574957Y-102407208D01*
X181526287Y-102399500D01*
X181313713Y-102399500D01*
X181265042Y-102407208D01*
X181103760Y-102432753D01*
X180901585Y-102498444D01*
X180712179Y-102594951D01*
X180540213Y-102719890D01*
X180389890Y-102870213D01*
X180264948Y-103042184D01*
X180264946Y-103042187D01*
X180260481Y-103050950D01*
X180212505Y-103101744D01*
X180144683Y-103118537D01*
X180078549Y-103095997D01*
X180039513Y-103050944D01*
X180035050Y-103042184D01*
X180035048Y-103042181D01*
X180035047Y-103042179D01*
X179910108Y-102870213D01*
X179759785Y-102719890D01*
X179587819Y-102594951D01*
X179398413Y-102498444D01*
X179398412Y-102498443D01*
X179398411Y-102498443D01*
X179196242Y-102432754D01*
X179196240Y-102432753D01*
X179196239Y-102432753D01*
X179034956Y-102407208D01*
X178986286Y-102399500D01*
X178773712Y-102399500D01*
X178725041Y-102407208D01*
X178563759Y-102432753D01*
X178361584Y-102498444D01*
X178172178Y-102594951D01*
X178000212Y-102719890D01*
X177849889Y-102870213D01*
X177724949Y-103042181D01*
X177720200Y-103051501D01*
X177672222Y-103102294D01*
X177604401Y-103119086D01*
X177538267Y-103096545D01*
X177499231Y-103051491D01*
X177494620Y-103042441D01*
X177369727Y-102870540D01*
X177369723Y-102870535D01*
X177219464Y-102720276D01*
X177219459Y-102720272D01*
X177047557Y-102595379D01*
X176858215Y-102498903D01*
X176656124Y-102433241D01*
X176590000Y-102422768D01*
X176590000Y-103316988D01*
X176532993Y-103284075D01*
X176405826Y-103250000D01*
X176274174Y-103250000D01*
X176147007Y-103284075D01*
X176090000Y-103316988D01*
X176090000Y-102422768D01*
X176089999Y-102422768D01*
X176023875Y-102433241D01*
X175821784Y-102498903D01*
X175632442Y-102595379D01*
X175460541Y-102720271D01*
X175346865Y-102833947D01*
X175285542Y-102867431D01*
X175215850Y-102862447D01*
X175159917Y-102820575D01*
X175143002Y-102789598D01*
X175093797Y-102657671D01*
X175093793Y-102657664D01*
X175007547Y-102542455D01*
X175007544Y-102542452D01*
X174892335Y-102456206D01*
X174892328Y-102456202D01*
X174757482Y-102405908D01*
X174757483Y-102405908D01*
X174697883Y-102399501D01*
X174697881Y-102399500D01*
X174697873Y-102399500D01*
X174697865Y-102399500D01*
X174551500Y-102399500D01*
X174484461Y-102379815D01*
X174438706Y-102327011D01*
X174427500Y-102275500D01*
X174427500Y-94852135D01*
X177949500Y-94852135D01*
X177949500Y-96647870D01*
X177949501Y-96647876D01*
X177955908Y-96707483D01*
X178006202Y-96842328D01*
X178006206Y-96842335D01*
X178092452Y-96957544D01*
X178092455Y-96957547D01*
X178207664Y-97043793D01*
X178207671Y-97043797D01*
X178342517Y-97094091D01*
X178342516Y-97094091D01*
X178349444Y-97094835D01*
X178402127Y-97100500D01*
X180197872Y-97100499D01*
X180257483Y-97094091D01*
X180392331Y-97043796D01*
X180507546Y-96957546D01*
X180593796Y-96842331D01*
X180644091Y-96707483D01*
X180650500Y-96647873D01*
X180650499Y-94852128D01*
X180644091Y-94792517D01*
X180593796Y-94657669D01*
X180593795Y-94657668D01*
X180593793Y-94657664D01*
X180507547Y-94542455D01*
X180507544Y-94542452D01*
X180392335Y-94456206D01*
X180392328Y-94456202D01*
X180257482Y-94405908D01*
X180257483Y-94405908D01*
X180197883Y-94399501D01*
X180197881Y-94399500D01*
X180197873Y-94399500D01*
X180197864Y-94399500D01*
X178402129Y-94399500D01*
X178402123Y-94399501D01*
X178342516Y-94405908D01*
X178207671Y-94456202D01*
X178207664Y-94456206D01*
X178092455Y-94542452D01*
X178092452Y-94542455D01*
X178006206Y-94657664D01*
X178006202Y-94657671D01*
X177955908Y-94792517D01*
X177949501Y-94852116D01*
X177949501Y-94852123D01*
X177949500Y-94852135D01*
X174427500Y-94852135D01*
X174427500Y-94688194D01*
X174403386Y-94566970D01*
X174403385Y-94566969D01*
X174403385Y-94566965D01*
X174393232Y-94542454D01*
X174356086Y-94452773D01*
X174356079Y-94452760D01*
X174287412Y-94349993D01*
X174287411Y-94349992D01*
X174200008Y-94262589D01*
X172485983Y-92548564D01*
X172452498Y-92487241D01*
X172452047Y-92436691D01*
X172473500Y-92328844D01*
X172473500Y-92171155D01*
X172473499Y-92171153D01*
X172463928Y-92123032D01*
X172460085Y-92103713D01*
X190949500Y-92103713D01*
X190949500Y-92316286D01*
X190976576Y-92487241D01*
X190982754Y-92526243D01*
X191040535Y-92704075D01*
X191048444Y-92728414D01*
X191144951Y-92917820D01*
X191269890Y-93089786D01*
X191383430Y-93203326D01*
X191416915Y-93264649D01*
X191411931Y-93334341D01*
X191370059Y-93390274D01*
X191339083Y-93407189D01*
X191207669Y-93456203D01*
X191207664Y-93456206D01*
X191092455Y-93542452D01*
X191092452Y-93542455D01*
X191006206Y-93657664D01*
X191006202Y-93657671D01*
X190955908Y-93792517D01*
X190949501Y-93852116D01*
X190949501Y-93852123D01*
X190949500Y-93852135D01*
X190949500Y-95647870D01*
X190949501Y-95647872D01*
X190955908Y-95707483D01*
X191006202Y-95842328D01*
X191006206Y-95842335D01*
X191092452Y-95957544D01*
X191092455Y-95957547D01*
X191207664Y-96043793D01*
X191207671Y-96043797D01*
X191342517Y-96094091D01*
X191342516Y-96094091D01*
X191349444Y-96094835D01*
X191402127Y-96100500D01*
X193197872Y-96100499D01*
X193257483Y-96094091D01*
X193392331Y-96043796D01*
X193507546Y-95957546D01*
X193593796Y-95842331D01*
X193644091Y-95707483D01*
X193650500Y-95647873D01*
X193650499Y-93852128D01*
X193644091Y-93792517D01*
X193593796Y-93657669D01*
X193593795Y-93657668D01*
X193593793Y-93657664D01*
X193507547Y-93542455D01*
X193507544Y-93542452D01*
X193392335Y-93456206D01*
X193392328Y-93456202D01*
X193260917Y-93407189D01*
X193204983Y-93365318D01*
X193180566Y-93299853D01*
X193195418Y-93231580D01*
X193216563Y-93203332D01*
X193330104Y-93089792D01*
X193455051Y-92917816D01*
X193551557Y-92728412D01*
X193617246Y-92526243D01*
X193650500Y-92316287D01*
X193650500Y-92103713D01*
X193617246Y-91893757D01*
X193551557Y-91691588D01*
X193455051Y-91502184D01*
X193455049Y-91502181D01*
X193455048Y-91502179D01*
X193330109Y-91330213D01*
X193179786Y-91179890D01*
X193007817Y-91054949D01*
X192998501Y-91050202D01*
X192947707Y-91002227D01*
X192930913Y-90934405D01*
X192953452Y-90868271D01*
X192998511Y-90829231D01*
X193007556Y-90824622D01*
X193179459Y-90699728D01*
X193179464Y-90699724D01*
X193329723Y-90549465D01*
X193329727Y-90549460D01*
X193454620Y-90377558D01*
X193551095Y-90188218D01*
X193616757Y-89986130D01*
X193616757Y-89986127D01*
X193627231Y-89920001D01*
X192733012Y-89920001D01*
X192765925Y-89862994D01*
X192800000Y-89735827D01*
X192800000Y-89604175D01*
X192765925Y-89477008D01*
X192733012Y-89420001D01*
X193627231Y-89420001D01*
X193616757Y-89353874D01*
X193616757Y-89353871D01*
X193551095Y-89151783D01*
X193454620Y-88962443D01*
X193329727Y-88790541D01*
X193329723Y-88790536D01*
X193179464Y-88640277D01*
X193179459Y-88640273D01*
X193007557Y-88515380D01*
X192818215Y-88418904D01*
X192616124Y-88353242D01*
X192550000Y-88342769D01*
X192550000Y-89236989D01*
X192492993Y-89204076D01*
X192365826Y-89170001D01*
X192234174Y-89170001D01*
X192107007Y-89204076D01*
X192050000Y-89236989D01*
X192050000Y-88342769D01*
X192049999Y-88342769D01*
X191983875Y-88353242D01*
X191781784Y-88418904D01*
X191592442Y-88515380D01*
X191420540Y-88640273D01*
X191420535Y-88640277D01*
X191270276Y-88790536D01*
X191270272Y-88790541D01*
X191145379Y-88962443D01*
X191048904Y-89151783D01*
X190983242Y-89353871D01*
X190983242Y-89353874D01*
X190972769Y-89420001D01*
X191866988Y-89420001D01*
X191834075Y-89477008D01*
X191800000Y-89604175D01*
X191800000Y-89735827D01*
X191834075Y-89862994D01*
X191866988Y-89920001D01*
X190972769Y-89920001D01*
X190983242Y-89986127D01*
X190983242Y-89986130D01*
X191048904Y-90188218D01*
X191145379Y-90377558D01*
X191270272Y-90549460D01*
X191270276Y-90549465D01*
X191420535Y-90699724D01*
X191420540Y-90699728D01*
X191592441Y-90824621D01*
X191601491Y-90829232D01*
X191652289Y-90877205D01*
X191669086Y-90945026D01*
X191646551Y-91011161D01*
X191601501Y-91050201D01*
X191592181Y-91054950D01*
X191420213Y-91179890D01*
X191269890Y-91330213D01*
X191144951Y-91502179D01*
X191048444Y-91691585D01*
X190982753Y-91893760D01*
X190949500Y-92103713D01*
X172460085Y-92103713D01*
X172442738Y-92016508D01*
X172442737Y-92016507D01*
X172442737Y-92016503D01*
X172420498Y-91962812D01*
X172382397Y-91870827D01*
X172382390Y-91870814D01*
X172294789Y-91739711D01*
X172294786Y-91739707D01*
X172183292Y-91628213D01*
X172183288Y-91628210D01*
X172052185Y-91540609D01*
X172052172Y-91540602D01*
X171906501Y-91480264D01*
X171906489Y-91480261D01*
X171751845Y-91449500D01*
X171751842Y-91449500D01*
X171594158Y-91449500D01*
X171594155Y-91449500D01*
X171439510Y-91480261D01*
X171439498Y-91480264D01*
X171293827Y-91540602D01*
X171293814Y-91540609D01*
X171162711Y-91628210D01*
X171162707Y-91628213D01*
X171051213Y-91739707D01*
X171051210Y-91739711D01*
X170963609Y-91870814D01*
X170963602Y-91870827D01*
X170903264Y-92016498D01*
X170903261Y-92016510D01*
X170872500Y-92171153D01*
X168674650Y-92171153D01*
X168588791Y-92042657D01*
X168588788Y-92042653D01*
X168447347Y-91901212D01*
X168447343Y-91901209D01*
X168281026Y-91790079D01*
X168281013Y-91790072D01*
X168096215Y-91713527D01*
X168096203Y-91713524D01*
X167900022Y-91674501D01*
X167900018Y-91674501D01*
X167699982Y-91674501D01*
X167699977Y-91674501D01*
X167503796Y-91713524D01*
X167503784Y-91713527D01*
X167318986Y-91790072D01*
X167318973Y-91790079D01*
X167152656Y-91901209D01*
X167152652Y-91901212D01*
X167011211Y-92042653D01*
X167011208Y-92042657D01*
X166900078Y-92208974D01*
X166900071Y-92208987D01*
X166823526Y-92393785D01*
X166823523Y-92393797D01*
X166784500Y-92589978D01*
X158000000Y-92589978D01*
X158000000Y-87709976D01*
X166784500Y-87709976D01*
X166784500Y-87910021D01*
X166823523Y-88106202D01*
X166823526Y-88106214D01*
X166900071Y-88291012D01*
X166900078Y-88291025D01*
X167011208Y-88457342D01*
X167011211Y-88457346D01*
X167152652Y-88598787D01*
X167152656Y-88598790D01*
X167318973Y-88709920D01*
X167318986Y-88709927D01*
X167503784Y-88786472D01*
X167503789Y-88786474D01*
X167699977Y-88825498D01*
X167699981Y-88825499D01*
X167699982Y-88825499D01*
X167900019Y-88825499D01*
X167900020Y-88825498D01*
X168096211Y-88786474D01*
X168239144Y-88727269D01*
X168281013Y-88709927D01*
X168281013Y-88709926D01*
X168281020Y-88709924D01*
X168447344Y-88598790D01*
X168588791Y-88457343D01*
X168699925Y-88291019D01*
X168776475Y-88106210D01*
X168815500Y-87910017D01*
X168815500Y-87709981D01*
X168776475Y-87513788D01*
X168749846Y-87449500D01*
X168699928Y-87328985D01*
X168699921Y-87328972D01*
X168588791Y-87162655D01*
X168588788Y-87162651D01*
X168447347Y-87021210D01*
X168447343Y-87021207D01*
X168281026Y-86910077D01*
X168281013Y-86910070D01*
X168096215Y-86833525D01*
X168096203Y-86833522D01*
X167900022Y-86794499D01*
X167900018Y-86794499D01*
X167699982Y-86794499D01*
X167699977Y-86794499D01*
X167503796Y-86833522D01*
X167503784Y-86833525D01*
X167318986Y-86910070D01*
X167318973Y-86910077D01*
X167152656Y-87021207D01*
X167152652Y-87021210D01*
X167011211Y-87162651D01*
X167011208Y-87162655D01*
X166900078Y-87328972D01*
X166900071Y-87328985D01*
X166823526Y-87513783D01*
X166823523Y-87513795D01*
X166784500Y-87709976D01*
X158000000Y-87709976D01*
X158000000Y-64671153D01*
X169499500Y-64671153D01*
X169499500Y-64828846D01*
X169530261Y-64983489D01*
X169530264Y-64983501D01*
X169590603Y-65129174D01*
X169590604Y-65129175D01*
X169590606Y-65129179D01*
X169651602Y-65220465D01*
X169672480Y-65287142D01*
X169672500Y-65289356D01*
X169672500Y-71311807D01*
X169696612Y-71433027D01*
X169696614Y-71433035D01*
X169716177Y-71480264D01*
X169743915Y-71547230D01*
X169743916Y-71547232D01*
X169743917Y-71547233D01*
X169798025Y-71628211D01*
X169812589Y-71650008D01*
X169812590Y-71650009D01*
X169812593Y-71650013D01*
X170474907Y-72312326D01*
X170508392Y-72373649D01*
X170508843Y-72375815D01*
X170530261Y-72483491D01*
X170530264Y-72483501D01*
X170590602Y-72629172D01*
X170590609Y-72629185D01*
X170678210Y-72760288D01*
X170678213Y-72760292D01*
X170789707Y-72871786D01*
X170789711Y-72871789D01*
X170920814Y-72959390D01*
X170920827Y-72959397D01*
X171021591Y-73001134D01*
X171066503Y-73019737D01*
X171204714Y-73047229D01*
X171221153Y-73050499D01*
X171221156Y-73050500D01*
X171221158Y-73050500D01*
X171378844Y-73050500D01*
X171524308Y-73021565D01*
X171593900Y-73027792D01*
X171649077Y-73070655D01*
X171672322Y-73136545D01*
X171672500Y-73143182D01*
X171672500Y-74718707D01*
X171669465Y-74749058D01*
X171672500Y-74780354D01*
X171672500Y-74811803D01*
X171676461Y-74831715D01*
X171677244Y-74835651D01*
X171679047Y-74847870D01*
X171681396Y-74872087D01*
X171684627Y-74882796D01*
X171688746Y-74896452D01*
X171690481Y-74902203D01*
X171696615Y-74933035D01*
X171708283Y-74961205D01*
X171710071Y-74967131D01*
X171717097Y-74990416D01*
X171717100Y-74990422D01*
X171717101Y-74990425D01*
X171731882Y-75018179D01*
X171743917Y-75047233D01*
X171760859Y-75072588D01*
X171763766Y-75078047D01*
X171763768Y-75078049D01*
X171771276Y-75092145D01*
X171775206Y-75099524D01*
X171795118Y-75123861D01*
X171812589Y-75150008D01*
X171834160Y-75171579D01*
X175924721Y-80171153D01*
X175971471Y-80228291D01*
X175998688Y-80292641D01*
X175999500Y-80306812D01*
X175999500Y-80328846D01*
X176030261Y-80483489D01*
X176030264Y-80483501D01*
X176090602Y-80629172D01*
X176090609Y-80629185D01*
X176178210Y-80760288D01*
X176178213Y-80760292D01*
X176289707Y-80871786D01*
X176289711Y-80871789D01*
X176420814Y-80959390D01*
X176420827Y-80959397D01*
X176558683Y-81016498D01*
X176566503Y-81019737D01*
X176721153Y-81050499D01*
X176721156Y-81050500D01*
X176721158Y-81050500D01*
X176878844Y-81050500D01*
X176878845Y-81050499D01*
X177033497Y-81019737D01*
X177179179Y-80959394D01*
X177310289Y-80871789D01*
X177421789Y-80760289D01*
X177509394Y-80629179D01*
X177569737Y-80483497D01*
X177600500Y-80328842D01*
X177600500Y-80171158D01*
X177600500Y-80171155D01*
X177600499Y-80171153D01*
X177569738Y-80016510D01*
X177569737Y-80016503D01*
X177511463Y-79875815D01*
X177509397Y-79870827D01*
X177509390Y-79870814D01*
X177421789Y-79739711D01*
X177421786Y-79739707D01*
X177310292Y-79628213D01*
X177310288Y-79628210D01*
X177179185Y-79540609D01*
X177179172Y-79540602D01*
X177033499Y-79480263D01*
X177033491Y-79480261D01*
X177014392Y-79476462D01*
X176952481Y-79444076D01*
X176942613Y-79433366D01*
X176561884Y-78968031D01*
X174938648Y-76984075D01*
X172955529Y-74560262D01*
X172928312Y-74495912D01*
X172927500Y-74481741D01*
X172927500Y-72839098D01*
X172932804Y-72821034D01*
X172933114Y-72802208D01*
X172942444Y-72788201D01*
X172947185Y-72772059D01*
X172961411Y-72759731D01*
X172971852Y-72744060D01*
X172987273Y-72737321D01*
X172999989Y-72726304D01*
X173018622Y-72723624D01*
X173035877Y-72716086D01*
X173052491Y-72718754D01*
X173069147Y-72716360D01*
X173086272Y-72724180D01*
X173104863Y-72727167D01*
X173117397Y-72738395D01*
X173132703Y-72745385D01*
X173142881Y-72761223D01*
X173156906Y-72773786D01*
X173166349Y-72797740D01*
X173170477Y-72804163D01*
X173171036Y-72806128D01*
X173172500Y-72811435D01*
X173172500Y-72811803D01*
X173196614Y-72933035D01*
X173221888Y-72994050D01*
X173224821Y-73001132D01*
X173224822Y-73001134D01*
X173243915Y-73047229D01*
X173243921Y-73047241D01*
X173294294Y-73122627D01*
X173294295Y-73122629D01*
X173312590Y-73150010D01*
X173312593Y-73150013D01*
X179974907Y-79812326D01*
X180008392Y-79873649D01*
X180008843Y-79875815D01*
X180030261Y-79983491D01*
X180030264Y-79983501D01*
X180090602Y-80129172D01*
X180090609Y-80129185D01*
X180178210Y-80260288D01*
X180178213Y-80260292D01*
X180289707Y-80371786D01*
X180289711Y-80371789D01*
X180420814Y-80459390D01*
X180420827Y-80459397D01*
X180566498Y-80519735D01*
X180566503Y-80519737D01*
X180721153Y-80550499D01*
X180721156Y-80550500D01*
X180721158Y-80550500D01*
X180878844Y-80550500D01*
X180878845Y-80550499D01*
X181033497Y-80519737D01*
X181179179Y-80459394D01*
X181310289Y-80371789D01*
X181334647Y-80347430D01*
X181395967Y-80313945D01*
X181465659Y-80318927D01*
X181510010Y-80347429D01*
X182474907Y-81312326D01*
X182508392Y-81373649D01*
X182508843Y-81375815D01*
X182530261Y-81483491D01*
X182530264Y-81483501D01*
X182590602Y-81629172D01*
X182590609Y-81629185D01*
X182678210Y-81760288D01*
X182678213Y-81760292D01*
X182789707Y-81871786D01*
X182789711Y-81871789D01*
X182920814Y-81959390D01*
X182920827Y-81959397D01*
X183046822Y-82011585D01*
X183066503Y-82019737D01*
X183221153Y-82050499D01*
X183221156Y-82050500D01*
X183221158Y-82050500D01*
X183378844Y-82050500D01*
X183378845Y-82050499D01*
X183533497Y-82019737D01*
X183679179Y-81959394D01*
X183810289Y-81871789D01*
X183921789Y-81760289D01*
X184009394Y-81629179D01*
X184069737Y-81483497D01*
X184100500Y-81328842D01*
X184100500Y-81171158D01*
X184100500Y-81171155D01*
X184100499Y-81171153D01*
X184095306Y-81145048D01*
X184069737Y-81016503D01*
X184009794Y-80871786D01*
X184009397Y-80870827D01*
X184009390Y-80870814D01*
X183921789Y-80739711D01*
X183921786Y-80739707D01*
X183810292Y-80628213D01*
X183810288Y-80628210D01*
X183679185Y-80540609D01*
X183679172Y-80540602D01*
X183533501Y-80480264D01*
X183533491Y-80480261D01*
X183425815Y-80458843D01*
X183363904Y-80426458D01*
X183362326Y-80424907D01*
X179698188Y-76760769D01*
X179664703Y-76699446D01*
X179669687Y-76629754D01*
X179711559Y-76573821D01*
X179761676Y-76551471D01*
X179912771Y-76521417D01*
X180045225Y-76466552D01*
X180114694Y-76459084D01*
X180140121Y-76466550D01*
X180245702Y-76510283D01*
X180400352Y-76541045D01*
X180400355Y-76541046D01*
X180400357Y-76541046D01*
X180558043Y-76541046D01*
X180558044Y-76541045D01*
X180712696Y-76510283D01*
X180830735Y-76461389D01*
X180900204Y-76453921D01*
X180925639Y-76461390D01*
X180938104Y-76466553D01*
X181066503Y-76519737D01*
X181173625Y-76541045D01*
X181221153Y-76550499D01*
X181221156Y-76550500D01*
X181221158Y-76550500D01*
X181378844Y-76550500D01*
X181378845Y-76550499D01*
X181533497Y-76519737D01*
X181679179Y-76459394D01*
X181810289Y-76371789D01*
X181921789Y-76260289D01*
X182009394Y-76129179D01*
X182069737Y-75983497D01*
X182100500Y-75828842D01*
X182100500Y-75671158D01*
X182100500Y-75671155D01*
X182100499Y-75671153D01*
X182069738Y-75516510D01*
X182069737Y-75516503D01*
X182069735Y-75516498D01*
X182009397Y-75370827D01*
X182009390Y-75370814D01*
X181948398Y-75279533D01*
X181927520Y-75212855D01*
X181927500Y-75210642D01*
X181927500Y-73854377D01*
X187132724Y-73854377D01*
X187132724Y-74012070D01*
X187163485Y-74166713D01*
X187163488Y-74166725D01*
X187223826Y-74312396D01*
X187223833Y-74312409D01*
X187311434Y-74443512D01*
X187313369Y-74445870D01*
X187313995Y-74447346D01*
X187314819Y-74448578D01*
X187314585Y-74448734D01*
X187340681Y-74510180D01*
X187341269Y-74516731D01*
X187639813Y-79251389D01*
X187624386Y-79319534D01*
X187619163Y-79328080D01*
X187590610Y-79370814D01*
X187590602Y-79370828D01*
X187530264Y-79516498D01*
X187530261Y-79516510D01*
X187499500Y-79671153D01*
X187499500Y-79828846D01*
X187530261Y-79983489D01*
X187530264Y-79983501D01*
X187590603Y-80129174D01*
X187590604Y-80129175D01*
X187590606Y-80129179D01*
X187618654Y-80171155D01*
X187651602Y-80220465D01*
X187672480Y-80287142D01*
X187672500Y-80289356D01*
X187672500Y-81131807D01*
X187696612Y-81253027D01*
X187696614Y-81253035D01*
X187720957Y-81311804D01*
X187743917Y-81367234D01*
X187792366Y-81439744D01*
X187792367Y-81439744D01*
X187812588Y-81470008D01*
X187812591Y-81470011D01*
X190956877Y-84614296D01*
X190990362Y-84675619D01*
X190987128Y-84740293D01*
X190982754Y-84753755D01*
X190949500Y-84963713D01*
X190949500Y-85176286D01*
X190982753Y-85386240D01*
X190982754Y-85386245D01*
X190987128Y-85399707D01*
X190989121Y-85469549D01*
X190956877Y-85525702D01*
X188872672Y-87609907D01*
X188811349Y-87643392D01*
X188809183Y-87643843D01*
X188701508Y-87665261D01*
X188701498Y-87665264D01*
X188555827Y-87725602D01*
X188555814Y-87725609D01*
X188424711Y-87813210D01*
X188424707Y-87813213D01*
X188313213Y-87924707D01*
X188313210Y-87924711D01*
X188225609Y-88055814D01*
X188225602Y-88055827D01*
X188165264Y-88201498D01*
X188165261Y-88201510D01*
X188134500Y-88356153D01*
X188134500Y-88513846D01*
X188165261Y-88668489D01*
X188165264Y-88668501D01*
X188225602Y-88814172D01*
X188225609Y-88814185D01*
X188313210Y-88945288D01*
X188313213Y-88945292D01*
X188424707Y-89056786D01*
X188424711Y-89056789D01*
X188555814Y-89144390D01*
X188555827Y-89144397D01*
X188699907Y-89204076D01*
X188701503Y-89204737D01*
X188856153Y-89235499D01*
X188856156Y-89235500D01*
X188856158Y-89235500D01*
X189013844Y-89235500D01*
X189013845Y-89235499D01*
X189168497Y-89204737D01*
X189314179Y-89144394D01*
X189445289Y-89056789D01*
X189556789Y-88945289D01*
X189644394Y-88814179D01*
X189704737Y-88668497D01*
X189726156Y-88560812D01*
X189758539Y-88498906D01*
X189760035Y-88497382D01*
X190086264Y-88171153D01*
X193999500Y-88171153D01*
X193999500Y-88328846D01*
X194030261Y-88483489D01*
X194030264Y-88483501D01*
X194090603Y-88629174D01*
X194090604Y-88629175D01*
X194090606Y-88629179D01*
X194144556Y-88709920D01*
X194151602Y-88720465D01*
X194172480Y-88787142D01*
X194172500Y-88789356D01*
X194172500Y-95311807D01*
X194196612Y-95433027D01*
X194196614Y-95433035D01*
X194230062Y-95513785D01*
X194243915Y-95547229D01*
X194243920Y-95547238D01*
X194311162Y-95647872D01*
X194311166Y-95647878D01*
X194312589Y-95650008D01*
X196456877Y-97794296D01*
X196490362Y-97855619D01*
X196487128Y-97920293D01*
X196482754Y-97933755D01*
X196463076Y-98057997D01*
X196449500Y-98143713D01*
X196449500Y-98356287D01*
X196482754Y-98566243D01*
X196541202Y-98746128D01*
X196548444Y-98768414D01*
X196644951Y-98957820D01*
X196769890Y-99129786D01*
X196769896Y-99129792D01*
X196920208Y-99280104D01*
X197092184Y-99405051D01*
X197092188Y-99405053D01*
X197092191Y-99405055D01*
X197100943Y-99409514D01*
X197151740Y-99457488D01*
X197168536Y-99525308D01*
X197146000Y-99591444D01*
X197100946Y-99630484D01*
X197092182Y-99634949D01*
X196920213Y-99759890D01*
X196769890Y-99910213D01*
X196644951Y-100082179D01*
X196548444Y-100271585D01*
X196482753Y-100473760D01*
X196481123Y-100484053D01*
X196449500Y-100683713D01*
X196449500Y-100896287D01*
X196482754Y-101106243D01*
X196483176Y-101107543D01*
X196548444Y-101308414D01*
X196644951Y-101497820D01*
X196769890Y-101669786D01*
X196920213Y-101820109D01*
X197092179Y-101945048D01*
X197092181Y-101945049D01*
X197092184Y-101945051D01*
X197281588Y-102041557D01*
X197483757Y-102107246D01*
X197693713Y-102140500D01*
X197693714Y-102140500D01*
X197906286Y-102140500D01*
X197906287Y-102140500D01*
X198116243Y-102107246D01*
X198318412Y-102041557D01*
X198507816Y-101945051D01*
X198529789Y-101929086D01*
X198679786Y-101820109D01*
X198679788Y-101820106D01*
X198679792Y-101820104D01*
X198830104Y-101669792D01*
X198830106Y-101669788D01*
X198830109Y-101669786D01*
X198955048Y-101497820D01*
X198955047Y-101497820D01*
X198955051Y-101497816D01*
X199051557Y-101308412D01*
X199117246Y-101106243D01*
X199150500Y-100896287D01*
X199150500Y-100683713D01*
X199117246Y-100473757D01*
X199051557Y-100271588D01*
X198955051Y-100082184D01*
X198955049Y-100082181D01*
X198955048Y-100082179D01*
X198830109Y-99910213D01*
X198679786Y-99759890D01*
X198507820Y-99634951D01*
X198507118Y-99634593D01*
X198499054Y-99630485D01*
X198448259Y-99582512D01*
X198431463Y-99514692D01*
X198453999Y-99448556D01*
X198499059Y-99409512D01*
X198507816Y-99405051D01*
X198679792Y-99280104D01*
X198830104Y-99129792D01*
X198830106Y-99129788D01*
X198830109Y-99129786D01*
X198942817Y-98974655D01*
X198955051Y-98957816D01*
X199051557Y-98768412D01*
X199117246Y-98566243D01*
X199150500Y-98356287D01*
X199150500Y-98143713D01*
X199117246Y-97933757D01*
X199051557Y-97731588D01*
X198955051Y-97542184D01*
X198955049Y-97542181D01*
X198955048Y-97542179D01*
X198830109Y-97370213D01*
X198679786Y-97219890D01*
X198507817Y-97094949D01*
X198498504Y-97090204D01*
X198447707Y-97042230D01*
X198430912Y-96974409D01*
X198453449Y-96908274D01*
X198498507Y-96869232D01*
X198507558Y-96864620D01*
X198679459Y-96739727D01*
X198679464Y-96739723D01*
X198829723Y-96589464D01*
X198829727Y-96589459D01*
X198954620Y-96417557D01*
X199051095Y-96228217D01*
X199116757Y-96026129D01*
X199116757Y-96026126D01*
X199127231Y-95960000D01*
X198233012Y-95960000D01*
X198265925Y-95902993D01*
X198300000Y-95775826D01*
X198300000Y-95644174D01*
X198265925Y-95517007D01*
X198233012Y-95460000D01*
X199127231Y-95460000D01*
X199116757Y-95393873D01*
X199116757Y-95393870D01*
X199051095Y-95191782D01*
X198954620Y-95002442D01*
X198829727Y-94830540D01*
X198829723Y-94830535D01*
X198715665Y-94716477D01*
X198682180Y-94655154D01*
X198687164Y-94585462D01*
X198729036Y-94529529D01*
X198760013Y-94512614D01*
X198892086Y-94463354D01*
X198892093Y-94463350D01*
X199007187Y-94377190D01*
X199007190Y-94377187D01*
X199093350Y-94262093D01*
X199093354Y-94262086D01*
X199143596Y-94127379D01*
X199143598Y-94127372D01*
X199149999Y-94067844D01*
X199150000Y-94067827D01*
X199150000Y-93420000D01*
X198233012Y-93420000D01*
X198265925Y-93362993D01*
X198300000Y-93235826D01*
X198300000Y-93104174D01*
X198265925Y-92977007D01*
X198233012Y-92920000D01*
X199150000Y-92920000D01*
X199150000Y-92272172D01*
X199149999Y-92272155D01*
X199143598Y-92212627D01*
X199143596Y-92212620D01*
X199093354Y-92077913D01*
X199093350Y-92077906D01*
X199007190Y-91962812D01*
X199007187Y-91962809D01*
X198892093Y-91876649D01*
X198892086Y-91876645D01*
X198757379Y-91826403D01*
X198757372Y-91826401D01*
X198697844Y-91820000D01*
X198050000Y-91820000D01*
X198050000Y-92736988D01*
X197992993Y-92704075D01*
X197865826Y-92670000D01*
X197734174Y-92670000D01*
X197607007Y-92704075D01*
X197550000Y-92736988D01*
X197550000Y-91820000D01*
X196902155Y-91820000D01*
X196842627Y-91826401D01*
X196842620Y-91826403D01*
X196707913Y-91876645D01*
X196707906Y-91876649D01*
X196592812Y-91962809D01*
X196592809Y-91962812D01*
X196506649Y-92077906D01*
X196506645Y-92077913D01*
X196456403Y-92212620D01*
X196456401Y-92212627D01*
X196450000Y-92272155D01*
X196450000Y-92920000D01*
X197366988Y-92920000D01*
X197334075Y-92977007D01*
X197300000Y-93104174D01*
X197300000Y-93235826D01*
X197334075Y-93362993D01*
X197366988Y-93420000D01*
X196450000Y-93420000D01*
X196450000Y-94067844D01*
X196456401Y-94127372D01*
X196456403Y-94127379D01*
X196506645Y-94262086D01*
X196506649Y-94262093D01*
X196592809Y-94377187D01*
X196592812Y-94377190D01*
X196707906Y-94463350D01*
X196707913Y-94463354D01*
X196839986Y-94512614D01*
X196895920Y-94554485D01*
X196920337Y-94619949D01*
X196905486Y-94688222D01*
X196884335Y-94716477D01*
X196770271Y-94830541D01*
X196645379Y-95002442D01*
X196548904Y-95191782D01*
X196483242Y-95393870D01*
X196483242Y-95393873D01*
X196472769Y-95460000D01*
X197366988Y-95460000D01*
X197334075Y-95517007D01*
X197300000Y-95644174D01*
X197300000Y-95775826D01*
X197334075Y-95902993D01*
X197366988Y-95960000D01*
X196448781Y-95960000D01*
X196381742Y-95940315D01*
X196361100Y-95923681D01*
X195463819Y-95026400D01*
X195430334Y-94965077D01*
X195427500Y-94938719D01*
X195427500Y-88789356D01*
X195447185Y-88722317D01*
X195448398Y-88720465D01*
X195455444Y-88709920D01*
X195509394Y-88629179D01*
X195569737Y-88483497D01*
X195600500Y-88328842D01*
X195600500Y-88171158D01*
X195600500Y-88171155D01*
X195600499Y-88171153D01*
X195569738Y-88016510D01*
X195569737Y-88016503D01*
X195525630Y-87910018D01*
X195509397Y-87870827D01*
X195509390Y-87870814D01*
X195421789Y-87739711D01*
X195421786Y-87739707D01*
X195310292Y-87628213D01*
X195310288Y-87628210D01*
X195179185Y-87540609D01*
X195179172Y-87540602D01*
X195033501Y-87480264D01*
X195033489Y-87480261D01*
X194878845Y-87449500D01*
X194878842Y-87449500D01*
X194721158Y-87449500D01*
X194721155Y-87449500D01*
X194566510Y-87480261D01*
X194566498Y-87480264D01*
X194420827Y-87540602D01*
X194420814Y-87540609D01*
X194289711Y-87628210D01*
X194289707Y-87628213D01*
X194178213Y-87739707D01*
X194178210Y-87739711D01*
X194090609Y-87870814D01*
X194090602Y-87870827D01*
X194030264Y-88016498D01*
X194030261Y-88016510D01*
X193999500Y-88171153D01*
X190086264Y-88171153D01*
X191844298Y-86413119D01*
X191905619Y-86379636D01*
X191970298Y-86382872D01*
X191983757Y-86387246D01*
X192193713Y-86420500D01*
X192193714Y-86420500D01*
X192406286Y-86420500D01*
X192406287Y-86420500D01*
X192616243Y-86387246D01*
X192818412Y-86321557D01*
X193007816Y-86225051D01*
X193029789Y-86209086D01*
X193179786Y-86100109D01*
X193179788Y-86100106D01*
X193179792Y-86100104D01*
X193330104Y-85949792D01*
X193330106Y-85949788D01*
X193330109Y-85949786D01*
X193455048Y-85777820D01*
X193455047Y-85777820D01*
X193455051Y-85777816D01*
X193551557Y-85588412D01*
X193617246Y-85386243D01*
X193650500Y-85176287D01*
X193650500Y-84963713D01*
X193617246Y-84753757D01*
X193551557Y-84551588D01*
X193455051Y-84362184D01*
X193455049Y-84362181D01*
X193455048Y-84362179D01*
X193330109Y-84190213D01*
X193179786Y-84039890D01*
X193007820Y-83914951D01*
X193007115Y-83914591D01*
X192999054Y-83910485D01*
X192948259Y-83862512D01*
X192931463Y-83794692D01*
X192953999Y-83728556D01*
X192999054Y-83689515D01*
X193007816Y-83685051D01*
X193029789Y-83669086D01*
X193179786Y-83560109D01*
X193179788Y-83560106D01*
X193179792Y-83560104D01*
X193330104Y-83409792D01*
X193330106Y-83409788D01*
X193330109Y-83409786D01*
X193455048Y-83237820D01*
X193455047Y-83237820D01*
X193455051Y-83237816D01*
X193551557Y-83048412D01*
X193617246Y-82846243D01*
X193650500Y-82636287D01*
X193650500Y-82423713D01*
X193617246Y-82213757D01*
X193551557Y-82011588D01*
X193455051Y-81822184D01*
X193455049Y-81822181D01*
X193455048Y-81822179D01*
X193330109Y-81650213D01*
X193179786Y-81499890D01*
X193007820Y-81374951D01*
X193007115Y-81374591D01*
X192999054Y-81370485D01*
X192948259Y-81322512D01*
X192931463Y-81254692D01*
X192953999Y-81188556D01*
X192999054Y-81149515D01*
X193007816Y-81145051D01*
X193029789Y-81129086D01*
X193179786Y-81020109D01*
X193179788Y-81020106D01*
X193179792Y-81020104D01*
X193330104Y-80869792D01*
X193330106Y-80869788D01*
X193330109Y-80869786D01*
X193455048Y-80697820D01*
X193455047Y-80697820D01*
X193455051Y-80697816D01*
X193551557Y-80508412D01*
X193617246Y-80306243D01*
X193650500Y-80096287D01*
X193650500Y-79883713D01*
X193617246Y-79673757D01*
X193551557Y-79471588D01*
X193455051Y-79282184D01*
X193455049Y-79282181D01*
X193455048Y-79282179D01*
X193330109Y-79110213D01*
X193216181Y-78996285D01*
X193182696Y-78934962D01*
X193187680Y-78865270D01*
X193229552Y-78809337D01*
X193260529Y-78792422D01*
X193392086Y-78743354D01*
X193392093Y-78743350D01*
X193507187Y-78657190D01*
X193507190Y-78657187D01*
X193593350Y-78542093D01*
X193593354Y-78542086D01*
X193643596Y-78407379D01*
X193643598Y-78407372D01*
X193649999Y-78347844D01*
X193650000Y-78347827D01*
X193650000Y-77700000D01*
X192733012Y-77700000D01*
X192765925Y-77642993D01*
X192800000Y-77515826D01*
X192800000Y-77384174D01*
X192765925Y-77257007D01*
X192733012Y-77200000D01*
X193650000Y-77200000D01*
X193650000Y-76552172D01*
X193649999Y-76552155D01*
X193643598Y-76492627D01*
X193643596Y-76492620D01*
X193593354Y-76357913D01*
X193593350Y-76357906D01*
X193507190Y-76242812D01*
X193507187Y-76242809D01*
X193392093Y-76156649D01*
X193392086Y-76156645D01*
X193257379Y-76106403D01*
X193257372Y-76106401D01*
X193197844Y-76100000D01*
X192550000Y-76100000D01*
X192550000Y-77016988D01*
X192492993Y-76984075D01*
X192365826Y-76950000D01*
X192234174Y-76950000D01*
X192107007Y-76984075D01*
X192050000Y-77016988D01*
X192050000Y-76100000D01*
X191402155Y-76100000D01*
X191342627Y-76106401D01*
X191342620Y-76106403D01*
X191207913Y-76156645D01*
X191207906Y-76156649D01*
X191092812Y-76242809D01*
X191092809Y-76242812D01*
X191006649Y-76357906D01*
X191006645Y-76357913D01*
X190956403Y-76492620D01*
X190956401Y-76492627D01*
X190950000Y-76552155D01*
X190950000Y-77200000D01*
X191866988Y-77200000D01*
X191834075Y-77257007D01*
X191800000Y-77384174D01*
X191800000Y-77515826D01*
X191834075Y-77642993D01*
X191866988Y-77700000D01*
X190950000Y-77700000D01*
X190950000Y-78347844D01*
X190956401Y-78407372D01*
X190956403Y-78407379D01*
X191006645Y-78542086D01*
X191006649Y-78542093D01*
X191092809Y-78657187D01*
X191092812Y-78657190D01*
X191207906Y-78743350D01*
X191207913Y-78743354D01*
X191339470Y-78792422D01*
X191395404Y-78834293D01*
X191419821Y-78899758D01*
X191404969Y-78968031D01*
X191383819Y-78996285D01*
X191269889Y-79110215D01*
X191144951Y-79282179D01*
X191048444Y-79471585D01*
X190982753Y-79673760D01*
X190949500Y-79883713D01*
X190949500Y-80096286D01*
X190980599Y-80292641D01*
X190982754Y-80306243D01*
X191021814Y-80426458D01*
X191048444Y-80508414D01*
X191144951Y-80697820D01*
X191269890Y-80869786D01*
X191420213Y-81020109D01*
X191592182Y-81145050D01*
X191600946Y-81149516D01*
X191651742Y-81197491D01*
X191668536Y-81265312D01*
X191645998Y-81331447D01*
X191600946Y-81370484D01*
X191592182Y-81374949D01*
X191420213Y-81499890D01*
X191269890Y-81650213D01*
X191144951Y-81822179D01*
X191048444Y-82011585D01*
X190982753Y-82213760D01*
X190949500Y-82423713D01*
X190949500Y-82532719D01*
X190929815Y-82599758D01*
X190877011Y-82645513D01*
X190807853Y-82655457D01*
X190744297Y-82626432D01*
X190737819Y-82620400D01*
X188963819Y-80846400D01*
X188930334Y-80785077D01*
X188927500Y-80758719D01*
X188927500Y-80289356D01*
X188947185Y-80222317D01*
X188948398Y-80220465D01*
X189009394Y-80129179D01*
X189069737Y-79983497D01*
X189100500Y-79828842D01*
X189100500Y-79671158D01*
X189100500Y-79671155D01*
X189100499Y-79671153D01*
X189074531Y-79540606D01*
X189069737Y-79516503D01*
X189051133Y-79471588D01*
X189009397Y-79370827D01*
X189009390Y-79370814D01*
X188921786Y-79239707D01*
X188919850Y-79237347D01*
X188919222Y-79235869D01*
X188918405Y-79234646D01*
X188918637Y-79234490D01*
X188892540Y-79173036D01*
X188891953Y-79166490D01*
X188888404Y-79110213D01*
X188795889Y-77642993D01*
X188727390Y-76556654D01*
X188598349Y-74510180D01*
X188593409Y-74431833D01*
X188608836Y-74363689D01*
X188614048Y-74355159D01*
X188642618Y-74312403D01*
X188702961Y-74166721D01*
X188733724Y-74012066D01*
X188733724Y-73854382D01*
X188733724Y-73854379D01*
X188733723Y-73854377D01*
X188702961Y-73699727D01*
X188696569Y-73684296D01*
X188642621Y-73554051D01*
X188642614Y-73554038D01*
X188555013Y-73422935D01*
X188555010Y-73422931D01*
X188443516Y-73311437D01*
X188443512Y-73311434D01*
X188312409Y-73223833D01*
X188312396Y-73223826D01*
X188166725Y-73163488D01*
X188166713Y-73163485D01*
X188012069Y-73132724D01*
X188012066Y-73132724D01*
X187854382Y-73132724D01*
X187854379Y-73132724D01*
X187699734Y-73163485D01*
X187699722Y-73163488D01*
X187554051Y-73223826D01*
X187554038Y-73223833D01*
X187422935Y-73311434D01*
X187422931Y-73311437D01*
X187311437Y-73422931D01*
X187311434Y-73422935D01*
X187223833Y-73554038D01*
X187223826Y-73554051D01*
X187163488Y-73699722D01*
X187163485Y-73699734D01*
X187132724Y-73854377D01*
X181927500Y-73854377D01*
X181927500Y-63188197D01*
X181927499Y-63188193D01*
X181925012Y-63175685D01*
X181925012Y-63175684D01*
X181903387Y-63066972D01*
X181903386Y-63066965D01*
X181858412Y-62958392D01*
X181856764Y-62953786D01*
X181787414Y-62849996D01*
X181787413Y-62849994D01*
X181749222Y-62811803D01*
X181700008Y-62762589D01*
X179625091Y-60687672D01*
X179616028Y-60671075D01*
X179602896Y-60657465D01*
X179592489Y-60627967D01*
X179591606Y-60626349D01*
X179591183Y-60624323D01*
X179571564Y-60525688D01*
X179577793Y-60456098D01*
X179620656Y-60400922D01*
X179686546Y-60377678D01*
X179693182Y-60377500D01*
X181488719Y-60377500D01*
X181555758Y-60397185D01*
X181576400Y-60413819D01*
X185474907Y-64312326D01*
X185508392Y-64373649D01*
X185508843Y-64375815D01*
X185530261Y-64483491D01*
X185530264Y-64483501D01*
X185590602Y-64629172D01*
X185590609Y-64629185D01*
X185678210Y-64760288D01*
X185678213Y-64760292D01*
X185789707Y-64871786D01*
X185789711Y-64871789D01*
X185920814Y-64959390D01*
X185920827Y-64959397D01*
X186066498Y-65019735D01*
X186066503Y-65019737D01*
X186211169Y-65048513D01*
X186221153Y-65050499D01*
X186221156Y-65050500D01*
X186221158Y-65050500D01*
X186378844Y-65050500D01*
X186378845Y-65050499D01*
X186533497Y-65019737D01*
X186679179Y-64959394D01*
X186810289Y-64871789D01*
X186921789Y-64760289D01*
X187009394Y-64629179D01*
X187069737Y-64483497D01*
X187100500Y-64328842D01*
X187100500Y-64171158D01*
X187100500Y-64171155D01*
X187100499Y-64171153D01*
X187091317Y-64124991D01*
X187069737Y-64016503D01*
X187056062Y-63983489D01*
X187009397Y-63870827D01*
X187009390Y-63870814D01*
X186921789Y-63739711D01*
X186921786Y-63739707D01*
X186810292Y-63628213D01*
X186810288Y-63628210D01*
X186778918Y-63607249D01*
X186734113Y-63553636D01*
X186725406Y-63484311D01*
X186755561Y-63421284D01*
X186778917Y-63401046D01*
X186785289Y-63396789D01*
X186896789Y-63285289D01*
X186984394Y-63154179D01*
X186990191Y-63140182D01*
X187017070Y-63099953D01*
X188212318Y-61904704D01*
X188273641Y-61871220D01*
X188343333Y-61876204D01*
X188387680Y-61904705D01*
X189978288Y-63495312D01*
X190011773Y-63556635D01*
X190012225Y-63607183D01*
X189999500Y-63671159D01*
X189999500Y-63828846D01*
X190030261Y-63983489D01*
X190030264Y-63983501D01*
X190090602Y-64129172D01*
X190090609Y-64129185D01*
X190178210Y-64260288D01*
X190178213Y-64260292D01*
X190289707Y-64371786D01*
X190289711Y-64371789D01*
X190420814Y-64459390D01*
X190420827Y-64459397D01*
X190558683Y-64516498D01*
X190566503Y-64519737D01*
X190721153Y-64550499D01*
X190721156Y-64550500D01*
X190721158Y-64550500D01*
X190878844Y-64550500D01*
X190878845Y-64550499D01*
X191033497Y-64519737D01*
X191179179Y-64459394D01*
X191310289Y-64371789D01*
X191421789Y-64260289D01*
X191509394Y-64129179D01*
X191569737Y-63983497D01*
X191600500Y-63828842D01*
X191600500Y-63671158D01*
X191600500Y-63671155D01*
X191600499Y-63671153D01*
X191569739Y-63516511D01*
X191569738Y-63516508D01*
X191569737Y-63516503D01*
X191563937Y-63502501D01*
X191562311Y-63494327D01*
X191559523Y-63489988D01*
X191554500Y-63455053D01*
X191554500Y-63330446D01*
X191554501Y-63330425D01*
X191554501Y-63175685D01*
X191528949Y-63047231D01*
X191528949Y-63047230D01*
X191527571Y-63040307D01*
X191525505Y-63029920D01*
X191498508Y-62964744D01*
X191495877Y-62958393D01*
X191468633Y-62892618D01*
X191468632Y-62892617D01*
X191468630Y-62892611D01*
X191414636Y-62811803D01*
X191386059Y-62769034D01*
X191386057Y-62769031D01*
X191276647Y-62659621D01*
X191276624Y-62659600D01*
X189042072Y-60425047D01*
X189015192Y-60384819D01*
X189012234Y-60377678D01*
X189009394Y-60370821D01*
X188935539Y-60260289D01*
X188921789Y-60239710D01*
X188810292Y-60128213D01*
X188810288Y-60128210D01*
X188679183Y-60040608D01*
X188679180Y-60040606D01*
X188679179Y-60040606D01*
X188665176Y-60034806D01*
X188624951Y-60007927D01*
X188280969Y-59663943D01*
X188280968Y-59663942D01*
X188157392Y-59581372D01*
X188157391Y-59581371D01*
X188157389Y-59581370D01*
X188157386Y-59581368D01*
X188157381Y-59581366D01*
X188063519Y-59542488D01*
X188063517Y-59542487D01*
X188058975Y-59540606D01*
X188020080Y-59524495D01*
X187995894Y-59519684D01*
X187988776Y-59518268D01*
X187988773Y-59518267D01*
X187874314Y-59495499D01*
X187874312Y-59495499D01*
X187725688Y-59495499D01*
X187719574Y-59495499D01*
X187719554Y-59495500D01*
X184094947Y-59495500D01*
X184047498Y-59486062D01*
X184033497Y-59480263D01*
X184033493Y-59480262D01*
X184033488Y-59480260D01*
X183878845Y-59449500D01*
X183878842Y-59449500D01*
X183721158Y-59449500D01*
X183721155Y-59449500D01*
X183566510Y-59480261D01*
X183566498Y-59480264D01*
X183420827Y-59540602D01*
X183420814Y-59540609D01*
X183289711Y-59628210D01*
X183289707Y-59628213D01*
X183178213Y-59739707D01*
X183178210Y-59739711D01*
X183090609Y-59870814D01*
X183090603Y-59870826D01*
X183078919Y-59899033D01*
X183058330Y-59924581D01*
X183038669Y-59950845D01*
X183036518Y-59951647D01*
X183035077Y-59953436D01*
X183003938Y-59963798D01*
X182973205Y-59975262D01*
X182970960Y-59974773D01*
X182968782Y-59975499D01*
X182936993Y-59967384D01*
X182904932Y-59960410D01*
X182902480Y-59958574D01*
X182901083Y-59958218D01*
X182876678Y-59939259D01*
X182705997Y-59768578D01*
X182672512Y-59707255D01*
X182677496Y-59637563D01*
X182705998Y-59593215D01*
X182756753Y-59542460D01*
X182866185Y-59378684D01*
X182866192Y-59378671D01*
X182941569Y-59196693D01*
X182941572Y-59196681D01*
X182979999Y-59003495D01*
X182980000Y-59003492D01*
X182980000Y-58605000D01*
X182280000Y-58605000D01*
X182280000Y-58105000D01*
X182882418Y-58105000D01*
X182949457Y-58124685D01*
X182989803Y-58166997D01*
X182993977Y-58174226D01*
X183090774Y-58271023D01*
X183174103Y-58319133D01*
X183209322Y-58339467D01*
X183209323Y-58339467D01*
X183209326Y-58339469D01*
X183341554Y-58374900D01*
X183341556Y-58374900D01*
X183478444Y-58374900D01*
X183478446Y-58374900D01*
X183610674Y-58339469D01*
X183729226Y-58271023D01*
X183826023Y-58174226D01*
X183894469Y-58055674D01*
X183929900Y-57923446D01*
X183929900Y-57786554D01*
X188670100Y-57786554D01*
X188670100Y-57923446D01*
X188705531Y-58055674D01*
X188705532Y-58055677D01*
X188753641Y-58139003D01*
X188773977Y-58174226D01*
X188870774Y-58271023D01*
X188954103Y-58319133D01*
X188989322Y-58339467D01*
X188989323Y-58339467D01*
X188989326Y-58339469D01*
X189121554Y-58374900D01*
X189121556Y-58374900D01*
X189258444Y-58374900D01*
X189258446Y-58374900D01*
X189390674Y-58339469D01*
X189509226Y-58271023D01*
X189606023Y-58174226D01*
X189610196Y-58166997D01*
X189660762Y-58118784D01*
X189717582Y-58105000D01*
X190320000Y-58105000D01*
X190320000Y-58605000D01*
X189620000Y-58605000D01*
X189620000Y-59003495D01*
X189658427Y-59196681D01*
X189658430Y-59196693D01*
X189733807Y-59378671D01*
X189733814Y-59378684D01*
X189843248Y-59542462D01*
X189843251Y-59542466D01*
X189982533Y-59681748D01*
X189982537Y-59681751D01*
X190146315Y-59791185D01*
X190146328Y-59791192D01*
X190328308Y-59866569D01*
X190370000Y-59874862D01*
X190370000Y-59071988D01*
X190379940Y-59089205D01*
X190435795Y-59145060D01*
X190504204Y-59184556D01*
X190580504Y-59205000D01*
X190659496Y-59205000D01*
X190735796Y-59184556D01*
X190804205Y-59145060D01*
X190860060Y-59089205D01*
X190870000Y-59071988D01*
X190870000Y-59874862D01*
X190911690Y-59866569D01*
X190911692Y-59866569D01*
X191093671Y-59791192D01*
X191093684Y-59791185D01*
X191257462Y-59681751D01*
X191257466Y-59681748D01*
X191396748Y-59542466D01*
X191396751Y-59542462D01*
X191506185Y-59378684D01*
X191506192Y-59378671D01*
X191581569Y-59196693D01*
X191581572Y-59196681D01*
X191619999Y-59003495D01*
X191620000Y-59003492D01*
X191620000Y-58605000D01*
X190920000Y-58605000D01*
X190920000Y-58105000D01*
X191620000Y-58105000D01*
X191620000Y-57706508D01*
X191619999Y-57706504D01*
X191581572Y-57513318D01*
X191581569Y-57513306D01*
X191506192Y-57331328D01*
X191506185Y-57331315D01*
X191396751Y-57167537D01*
X191396748Y-57167533D01*
X191257466Y-57028251D01*
X191257462Y-57028248D01*
X191093684Y-56918814D01*
X191093671Y-56918807D01*
X190911691Y-56843429D01*
X190911683Y-56843427D01*
X190870000Y-56835135D01*
X190870000Y-57638011D01*
X190860060Y-57620795D01*
X190804205Y-57564940D01*
X190735796Y-57525444D01*
X190659496Y-57505000D01*
X190580504Y-57505000D01*
X190504204Y-57525444D01*
X190435795Y-57564940D01*
X190379940Y-57620795D01*
X190370000Y-57638011D01*
X190370000Y-56835136D01*
X190369999Y-56835135D01*
X190328316Y-56843427D01*
X190328308Y-56843429D01*
X190146328Y-56918807D01*
X190146315Y-56918814D01*
X189982537Y-57028248D01*
X189982533Y-57028251D01*
X189843251Y-57167533D01*
X189843248Y-57167537D01*
X189733814Y-57331315D01*
X189733807Y-57331328D01*
X189707518Y-57394798D01*
X189663677Y-57449202D01*
X189597383Y-57471267D01*
X189529684Y-57453988D01*
X189516066Y-57443409D01*
X189515672Y-57443924D01*
X189509230Y-57438981D01*
X189509226Y-57438977D01*
X189432706Y-57394798D01*
X189390677Y-57370532D01*
X189390678Y-57370532D01*
X189375051Y-57366344D01*
X189258446Y-57335100D01*
X189121554Y-57335100D01*
X189004948Y-57366344D01*
X188989322Y-57370532D01*
X188870777Y-57438975D01*
X188870771Y-57438979D01*
X188773979Y-57535771D01*
X188773975Y-57535777D01*
X188705532Y-57654322D01*
X188705531Y-57654326D01*
X188670100Y-57786554D01*
X183929900Y-57786554D01*
X183894469Y-57654326D01*
X183826023Y-57535774D01*
X183729226Y-57438977D01*
X183652706Y-57394798D01*
X183610677Y-57370532D01*
X183610678Y-57370532D01*
X183595051Y-57366344D01*
X183478446Y-57335100D01*
X183341554Y-57335100D01*
X183224948Y-57366344D01*
X183209322Y-57370532D01*
X183090777Y-57438975D01*
X183084328Y-57443924D01*
X183082590Y-57441659D01*
X183033366Y-57468520D01*
X182963676Y-57463516D01*
X182907754Y-57421629D01*
X182892480Y-57394797D01*
X182866189Y-57331322D01*
X182866185Y-57331315D01*
X182756751Y-57167537D01*
X182756748Y-57167533D01*
X182617466Y-57028251D01*
X182617462Y-57028248D01*
X182453684Y-56918814D01*
X182453671Y-56918807D01*
X182271691Y-56843429D01*
X182271683Y-56843427D01*
X182230000Y-56835135D01*
X182230000Y-57638011D01*
X182220060Y-57620795D01*
X182164205Y-57564940D01*
X182095796Y-57525444D01*
X182019496Y-57505000D01*
X181940504Y-57505000D01*
X181864204Y-57525444D01*
X181795795Y-57564940D01*
X181739940Y-57620795D01*
X181730000Y-57638011D01*
X181730000Y-56835136D01*
X181729999Y-56835135D01*
X181688316Y-56843427D01*
X181688308Y-56843429D01*
X181506328Y-56918807D01*
X181506315Y-56918814D01*
X181342537Y-57028248D01*
X181342533Y-57028251D01*
X181203251Y-57167533D01*
X181203248Y-57167537D01*
X181093814Y-57331315D01*
X181093807Y-57331328D01*
X181018430Y-57513306D01*
X181018427Y-57513318D01*
X180980000Y-57706504D01*
X180980000Y-58105000D01*
X181680000Y-58105000D01*
X181680000Y-58605000D01*
X180980000Y-58605000D01*
X180980000Y-58998500D01*
X180960315Y-59065539D01*
X180907511Y-59111294D01*
X180856000Y-59122500D01*
X177839357Y-59122500D01*
X177772318Y-59102815D01*
X177770466Y-59101602D01*
X177679185Y-59040609D01*
X177679172Y-59040602D01*
X177533501Y-58980264D01*
X177533489Y-58980261D01*
X177378845Y-58949500D01*
X177378842Y-58949500D01*
X177221158Y-58949500D01*
X177221155Y-58949500D01*
X177066510Y-58980261D01*
X177066498Y-58980264D01*
X176920827Y-59040602D01*
X176920814Y-59040609D01*
X176789711Y-59128210D01*
X176789707Y-59128213D01*
X176678213Y-59239707D01*
X176678210Y-59239711D01*
X176590609Y-59370814D01*
X176590602Y-59370827D01*
X176530264Y-59516498D01*
X176530261Y-59516510D01*
X176499500Y-59671153D01*
X176499500Y-59828846D01*
X176530261Y-59983489D01*
X176530264Y-59983501D01*
X176590602Y-60129172D01*
X176590609Y-60129185D01*
X176678210Y-60260288D01*
X176678213Y-60260292D01*
X176789707Y-60371786D01*
X176789711Y-60371789D01*
X176920814Y-60459390D01*
X176920827Y-60459397D01*
X177066498Y-60519735D01*
X177066503Y-60519737D01*
X177221153Y-60550499D01*
X177221156Y-60550500D01*
X177221158Y-60550500D01*
X177378844Y-60550500D01*
X177378845Y-60550499D01*
X177533497Y-60519737D01*
X177679179Y-60459394D01*
X177770466Y-60398398D01*
X177788512Y-60392747D01*
X177804422Y-60382523D01*
X177835381Y-60378071D01*
X177837143Y-60377520D01*
X177839357Y-60377500D01*
X177906818Y-60377500D01*
X177973857Y-60397185D01*
X178019612Y-60449989D01*
X178029556Y-60519147D01*
X178028435Y-60525692D01*
X177999500Y-60671155D01*
X177999500Y-60828846D01*
X178030261Y-60983489D01*
X178030264Y-60983501D01*
X178090602Y-61129172D01*
X178090609Y-61129185D01*
X178178210Y-61260288D01*
X178178213Y-61260292D01*
X178289707Y-61371786D01*
X178289711Y-61371789D01*
X178420814Y-61459390D01*
X178420827Y-61459397D01*
X178488961Y-61487618D01*
X178566503Y-61519737D01*
X178674185Y-61541156D01*
X178736092Y-61573539D01*
X178737672Y-61575091D01*
X180636181Y-63473600D01*
X180669666Y-63534923D01*
X180672500Y-63561281D01*
X180672500Y-64935719D01*
X180652815Y-65002758D01*
X180600011Y-65048513D01*
X180530853Y-65058457D01*
X180467297Y-65029432D01*
X180460819Y-65023400D01*
X176125091Y-60687672D01*
X176091606Y-60626349D01*
X176091183Y-60624323D01*
X176069737Y-60516503D01*
X176031855Y-60425047D01*
X176009397Y-60370827D01*
X176009390Y-60370814D01*
X175921789Y-60239711D01*
X175921786Y-60239707D01*
X175810292Y-60128213D01*
X175810288Y-60128210D01*
X175679185Y-60040609D01*
X175679172Y-60040602D01*
X175533501Y-59980264D01*
X175533489Y-59980261D01*
X175378845Y-59949500D01*
X175378842Y-59949500D01*
X175221158Y-59949500D01*
X175221155Y-59949500D01*
X175066510Y-59980261D01*
X175066498Y-59980264D01*
X174920827Y-60040602D01*
X174920814Y-60040609D01*
X174789711Y-60128210D01*
X174789707Y-60128213D01*
X174678213Y-60239707D01*
X174678210Y-60239711D01*
X174590609Y-60370814D01*
X174590602Y-60370827D01*
X174530264Y-60516498D01*
X174530261Y-60516510D01*
X174499500Y-60671153D01*
X174499500Y-60828846D01*
X174530261Y-60983489D01*
X174530264Y-60983501D01*
X174590602Y-61129172D01*
X174590609Y-61129185D01*
X174678210Y-61260288D01*
X174678213Y-61260292D01*
X174789707Y-61371786D01*
X174789711Y-61371789D01*
X174920814Y-61459390D01*
X174920827Y-61459397D01*
X174988961Y-61487618D01*
X175066503Y-61519737D01*
X175174185Y-61541156D01*
X175236092Y-61573539D01*
X175237672Y-61575091D01*
X179815380Y-66152799D01*
X179848865Y-66214122D01*
X179851699Y-66240480D01*
X179851699Y-67614918D01*
X179832014Y-67681957D01*
X179779210Y-67727712D01*
X179710052Y-67737656D01*
X179646496Y-67708631D01*
X179640018Y-67702599D01*
X172625091Y-60687672D01*
X172591606Y-60626349D01*
X172591183Y-60624323D01*
X172569737Y-60516503D01*
X172531855Y-60425047D01*
X172509397Y-60370827D01*
X172509390Y-60370814D01*
X172421789Y-60239711D01*
X172421786Y-60239707D01*
X172310292Y-60128213D01*
X172310288Y-60128210D01*
X172179185Y-60040609D01*
X172179172Y-60040602D01*
X172033501Y-59980264D01*
X172033489Y-59980261D01*
X171878845Y-59949500D01*
X171878842Y-59949500D01*
X171721158Y-59949500D01*
X171721155Y-59949500D01*
X171566510Y-59980261D01*
X171566498Y-59980264D01*
X171420827Y-60040602D01*
X171420814Y-60040609D01*
X171289711Y-60128210D01*
X171289707Y-60128213D01*
X171178213Y-60239707D01*
X171178210Y-60239711D01*
X171090609Y-60370814D01*
X171090602Y-60370827D01*
X171030264Y-60516498D01*
X171030261Y-60516510D01*
X170999500Y-60671153D01*
X170999500Y-60828846D01*
X171030261Y-60983489D01*
X171030264Y-60983501D01*
X171090602Y-61129172D01*
X171090609Y-61129185D01*
X171178210Y-61260288D01*
X171178213Y-61260292D01*
X171289707Y-61371786D01*
X171289711Y-61371789D01*
X171420814Y-61459390D01*
X171420827Y-61459397D01*
X171488961Y-61487618D01*
X171566503Y-61519737D01*
X171674185Y-61541156D01*
X171736092Y-61573539D01*
X171737672Y-61575091D01*
X179015455Y-68852874D01*
X179048940Y-68914197D01*
X179051774Y-68940555D01*
X179051774Y-74042773D01*
X179037380Y-74091790D01*
X179049342Y-74114545D01*
X179051774Y-74138982D01*
X179051774Y-75212322D01*
X179032089Y-75279361D01*
X179030876Y-75281213D01*
X178969883Y-75372494D01*
X178969876Y-75372507D01*
X178909538Y-75518178D01*
X178909535Y-75518188D01*
X178879482Y-75669276D01*
X178847097Y-75731186D01*
X178786381Y-75765761D01*
X178716612Y-75762021D01*
X178670184Y-75732765D01*
X178204926Y-75267507D01*
X178171441Y-75206184D01*
X178176425Y-75136492D01*
X178204925Y-75092146D01*
X178465358Y-74831715D01*
X178465360Y-74831715D01*
X178482076Y-74814998D01*
X178482141Y-74814962D01*
X178519250Y-74777853D01*
X178519251Y-74777854D01*
X178579355Y-74717751D01*
X178676861Y-74578496D01*
X178748703Y-74424424D01*
X178778718Y-74312396D01*
X178792697Y-74260223D01*
X178792697Y-74260222D01*
X178792697Y-74260220D01*
X178792698Y-74260217D01*
X178804245Y-74128176D01*
X178818239Y-74092400D01*
X178808797Y-74077708D01*
X178804246Y-74053585D01*
X178792686Y-73921513D01*
X178792685Y-73921508D01*
X178748681Y-73757318D01*
X178748679Y-73757310D01*
X178721824Y-73699727D01*
X178676827Y-73603245D01*
X178579314Y-73464000D01*
X178579308Y-73463994D01*
X178526715Y-73411408D01*
X178458562Y-73343255D01*
X178458558Y-73343250D01*
X178451489Y-73336181D01*
X178397613Y-73282306D01*
X178337512Y-73222205D01*
X178337511Y-73222204D01*
X178337510Y-73222203D01*
X178198264Y-73124703D01*
X178198262Y-73124702D01*
X178082357Y-73070655D01*
X178044200Y-73052862D01*
X178044196Y-73052861D01*
X178044192Y-73052859D01*
X177880007Y-73008867D01*
X177879997Y-73008865D01*
X177710660Y-72994050D01*
X177710658Y-72994050D01*
X177541320Y-73008865D01*
X177541310Y-73008867D01*
X177377125Y-73052859D01*
X177377116Y-73052863D01*
X177223055Y-73124702D01*
X177223053Y-73124703D01*
X177083807Y-73222204D01*
X177067404Y-73238606D01*
X176969828Y-73336182D01*
X176709395Y-73596614D01*
X176648072Y-73630099D01*
X176578380Y-73625115D01*
X176534033Y-73596614D01*
X175963819Y-73026400D01*
X175930334Y-72965077D01*
X175927500Y-72938719D01*
X175927500Y-72289356D01*
X175947185Y-72222317D01*
X175948398Y-72220465D01*
X176009394Y-72129179D01*
X176069737Y-71983497D01*
X176100500Y-71828842D01*
X176100500Y-71671158D01*
X176100500Y-71671155D01*
X176100499Y-71671153D01*
X176091957Y-71628209D01*
X176069737Y-71516503D01*
X176054751Y-71480323D01*
X176009397Y-71370827D01*
X176009390Y-71370814D01*
X175921789Y-71239711D01*
X175921786Y-71239707D01*
X175810292Y-71128213D01*
X175810288Y-71128210D01*
X175679185Y-71040609D01*
X175679172Y-71040602D01*
X175533501Y-70980264D01*
X175533489Y-70980261D01*
X175378845Y-70949500D01*
X175378842Y-70949500D01*
X175221158Y-70949500D01*
X175221155Y-70949500D01*
X175066510Y-70980261D01*
X175066498Y-70980264D01*
X174920827Y-71040602D01*
X174920814Y-71040609D01*
X174789711Y-71128210D01*
X174789707Y-71128213D01*
X174678213Y-71239707D01*
X174654602Y-71275044D01*
X174600989Y-71319848D01*
X174531664Y-71328555D01*
X174468637Y-71298400D01*
X174431918Y-71238956D01*
X174427500Y-71206152D01*
X174427500Y-70789356D01*
X174447185Y-70722317D01*
X174448398Y-70720465D01*
X174509394Y-70629179D01*
X174569737Y-70483497D01*
X174600500Y-70328842D01*
X174600500Y-70171158D01*
X174600500Y-70171155D01*
X174600499Y-70171153D01*
X174569738Y-70016510D01*
X174569737Y-70016503D01*
X174569735Y-70016498D01*
X174509397Y-69870827D01*
X174509390Y-69870814D01*
X174421789Y-69739711D01*
X174421786Y-69739707D01*
X174310292Y-69628213D01*
X174310288Y-69628210D01*
X174179185Y-69540609D01*
X174179172Y-69540602D01*
X174033501Y-69480264D01*
X174033489Y-69480261D01*
X173878845Y-69449500D01*
X173878842Y-69449500D01*
X173721158Y-69449500D01*
X173721155Y-69449500D01*
X173566510Y-69480261D01*
X173566498Y-69480264D01*
X173420827Y-69540602D01*
X173420814Y-69540609D01*
X173289711Y-69628210D01*
X173289707Y-69628213D01*
X173178213Y-69739707D01*
X173154602Y-69775044D01*
X173100989Y-69819848D01*
X173031664Y-69828555D01*
X172968637Y-69798400D01*
X172931918Y-69738956D01*
X172927500Y-69706152D01*
X172927500Y-64463192D01*
X172903386Y-64341968D01*
X172903385Y-64341967D01*
X172903385Y-64341963D01*
X172869555Y-64260289D01*
X172856086Y-64227771D01*
X172856079Y-64227758D01*
X172787412Y-64124991D01*
X172787411Y-64124990D01*
X172700008Y-64037587D01*
X171350093Y-62687672D01*
X171316608Y-62626349D01*
X171316185Y-62624323D01*
X171294739Y-62516503D01*
X171258504Y-62429023D01*
X171234399Y-62370827D01*
X171234392Y-62370814D01*
X171146791Y-62239711D01*
X171146788Y-62239707D01*
X171035294Y-62128213D01*
X171035290Y-62128210D01*
X170904187Y-62040609D01*
X170904174Y-62040602D01*
X170758503Y-61980264D01*
X170758491Y-61980261D01*
X170603847Y-61949500D01*
X170603844Y-61949500D01*
X170446160Y-61949500D01*
X170446157Y-61949500D01*
X170291512Y-61980261D01*
X170291500Y-61980264D01*
X170145829Y-62040602D01*
X170145816Y-62040609D01*
X170014713Y-62128210D01*
X170014709Y-62128213D01*
X169903215Y-62239707D01*
X169903212Y-62239711D01*
X169815611Y-62370814D01*
X169815604Y-62370827D01*
X169755266Y-62516498D01*
X169755263Y-62516510D01*
X169724502Y-62671153D01*
X169724502Y-62828846D01*
X169755263Y-62983489D01*
X169755266Y-62983501D01*
X169815604Y-63129172D01*
X169815611Y-63129185D01*
X169903212Y-63260288D01*
X169903215Y-63260292D01*
X170014709Y-63371786D01*
X170014713Y-63371789D01*
X170145816Y-63459390D01*
X170145829Y-63459397D01*
X170194887Y-63479717D01*
X170291505Y-63519737D01*
X170399187Y-63541156D01*
X170461094Y-63573539D01*
X170462674Y-63575091D01*
X170663463Y-63775880D01*
X170696948Y-63837203D01*
X170691964Y-63906895D01*
X170650092Y-63962828D01*
X170584628Y-63987245D01*
X170539932Y-63980024D01*
X170539324Y-63982031D01*
X170533500Y-63980264D01*
X170533497Y-63980263D01*
X170533492Y-63980262D01*
X170533489Y-63980261D01*
X170378845Y-63949500D01*
X170378842Y-63949500D01*
X170221158Y-63949500D01*
X170221155Y-63949500D01*
X170066510Y-63980261D01*
X170066498Y-63980264D01*
X169920827Y-64040602D01*
X169920814Y-64040609D01*
X169789711Y-64128210D01*
X169789707Y-64128213D01*
X169678213Y-64239707D01*
X169678210Y-64239711D01*
X169590609Y-64370814D01*
X169590602Y-64370827D01*
X169530264Y-64516498D01*
X169530261Y-64516510D01*
X169499500Y-64671153D01*
X158000000Y-64671153D01*
X158000000Y-53676504D01*
X180980000Y-53676504D01*
X180980000Y-53925000D01*
X181680000Y-53925000D01*
X181680000Y-54425000D01*
X180980000Y-54425000D01*
X180980000Y-54673495D01*
X181018427Y-54866681D01*
X181018430Y-54866693D01*
X181093807Y-55048671D01*
X181093814Y-55048684D01*
X181203248Y-55212462D01*
X181203251Y-55212466D01*
X181342533Y-55351748D01*
X181342537Y-55351751D01*
X181506315Y-55461185D01*
X181506328Y-55461192D01*
X181688308Y-55536569D01*
X181730000Y-55544862D01*
X181730000Y-54741988D01*
X181739940Y-54759205D01*
X181795795Y-54815060D01*
X181864204Y-54854556D01*
X181940504Y-54875000D01*
X182019496Y-54875000D01*
X182095796Y-54854556D01*
X182164205Y-54815060D01*
X182220060Y-54759205D01*
X182230000Y-54741988D01*
X182230000Y-55544862D01*
X182271690Y-55536569D01*
X182271692Y-55536569D01*
X182453671Y-55461192D01*
X182453684Y-55461185D01*
X182617462Y-55351751D01*
X182617466Y-55351748D01*
X182756748Y-55212466D01*
X182756751Y-55212462D01*
X182866185Y-55048684D01*
X182866192Y-55048671D01*
X182941569Y-54866693D01*
X182941572Y-54866681D01*
X182979999Y-54673495D01*
X182980000Y-54673492D01*
X182980000Y-54425000D01*
X182280000Y-54425000D01*
X182280000Y-53925000D01*
X182980000Y-53925000D01*
X182980000Y-53676508D01*
X182979999Y-53676504D01*
X189620000Y-53676504D01*
X189620000Y-53925000D01*
X190320000Y-53925000D01*
X190320000Y-54425000D01*
X189620000Y-54425000D01*
X189620000Y-54673495D01*
X189658427Y-54866681D01*
X189658430Y-54866693D01*
X189733807Y-55048671D01*
X189733814Y-55048684D01*
X189843248Y-55212462D01*
X189843251Y-55212466D01*
X189982533Y-55351748D01*
X189982537Y-55351751D01*
X190146315Y-55461185D01*
X190146328Y-55461192D01*
X190328308Y-55536569D01*
X190370000Y-55544862D01*
X190370000Y-54741988D01*
X190379940Y-54759205D01*
X190435795Y-54815060D01*
X190504204Y-54854556D01*
X190580504Y-54875000D01*
X190659496Y-54875000D01*
X190735796Y-54854556D01*
X190804205Y-54815060D01*
X190860060Y-54759205D01*
X190870000Y-54741988D01*
X190870000Y-55544862D01*
X190911690Y-55536569D01*
X190911692Y-55536569D01*
X191093671Y-55461192D01*
X191093684Y-55461185D01*
X191257462Y-55351751D01*
X191257466Y-55351748D01*
X191396748Y-55212466D01*
X191396751Y-55212462D01*
X191506185Y-55048684D01*
X191506192Y-55048671D01*
X191581569Y-54866693D01*
X191581572Y-54866681D01*
X191619999Y-54673495D01*
X191620000Y-54673492D01*
X191620000Y-54425000D01*
X190920000Y-54425000D01*
X190920000Y-53925000D01*
X191620000Y-53925000D01*
X191620000Y-53676508D01*
X191619999Y-53676504D01*
X191581572Y-53483318D01*
X191581569Y-53483306D01*
X191506192Y-53301328D01*
X191506185Y-53301315D01*
X191396751Y-53137537D01*
X191396748Y-53137533D01*
X191257466Y-52998251D01*
X191257462Y-52998248D01*
X191093684Y-52888814D01*
X191093671Y-52888807D01*
X190911691Y-52813429D01*
X190911683Y-52813427D01*
X190870000Y-52805135D01*
X190870000Y-53608011D01*
X190860060Y-53590795D01*
X190804205Y-53534940D01*
X190735796Y-53495444D01*
X190659496Y-53475000D01*
X190580504Y-53475000D01*
X190504204Y-53495444D01*
X190435795Y-53534940D01*
X190379940Y-53590795D01*
X190370000Y-53608011D01*
X190370000Y-52805136D01*
X190369999Y-52805135D01*
X190328316Y-52813427D01*
X190328308Y-52813429D01*
X190146328Y-52888807D01*
X190146315Y-52888814D01*
X189982537Y-52998248D01*
X189982533Y-52998251D01*
X189843251Y-53137533D01*
X189843248Y-53137537D01*
X189733814Y-53301315D01*
X189733807Y-53301328D01*
X189658430Y-53483306D01*
X189658427Y-53483318D01*
X189620000Y-53676504D01*
X182979999Y-53676504D01*
X182941572Y-53483318D01*
X182941569Y-53483306D01*
X182866192Y-53301328D01*
X182866185Y-53301315D01*
X182756751Y-53137537D01*
X182756748Y-53137533D01*
X182617466Y-52998251D01*
X182617462Y-52998248D01*
X182453684Y-52888814D01*
X182453671Y-52888807D01*
X182271691Y-52813429D01*
X182271683Y-52813427D01*
X182230000Y-52805135D01*
X182230000Y-53608011D01*
X182220060Y-53590795D01*
X182164205Y-53534940D01*
X182095796Y-53495444D01*
X182019496Y-53475000D01*
X181940504Y-53475000D01*
X181864204Y-53495444D01*
X181795795Y-53534940D01*
X181739940Y-53590795D01*
X181730000Y-53608011D01*
X181730000Y-52805136D01*
X181729999Y-52805135D01*
X181688316Y-52813427D01*
X181688308Y-52813429D01*
X181506328Y-52888807D01*
X181506315Y-52888814D01*
X181342537Y-52998248D01*
X181342533Y-52998251D01*
X181203251Y-53137533D01*
X181203248Y-53137537D01*
X181093814Y-53301315D01*
X181093807Y-53301328D01*
X181018430Y-53483306D01*
X181018427Y-53483318D01*
X180980000Y-53676504D01*
X158000000Y-53676504D01*
X158000000Y-50624500D01*
X158019685Y-50557461D01*
X158072489Y-50511706D01*
X158124000Y-50500500D01*
X200876000Y-50500500D01*
X200943039Y-50520185D01*
G37*
%TD.AperFunction*%
%TD*%
M02*
